<svg width="60" height="31" viewBox="0 0 60 31" fill="none" xmlns="http://www.w3.org/2000/svg">
<path d="M12.5227 30.3977C11.0265 30.3883 9.58239 30.1373 8.19034 29.6449C6.80777 29.1525 5.56723 28.3523 4.46875 27.2443C3.37027 26.1364 2.49905 24.6686 1.85511 22.8409C1.22064 21.0133 0.903409 18.7689 0.903409 16.108C0.912879 13.6648 1.19223 11.482 1.74148 9.55966C2.30019 7.62784 3.09564 5.98958 4.12784 4.64489C5.16951 3.30019 6.41477 2.27746 7.86364 1.5767C9.3125 0.866476 10.9366 0.511363 12.7358 0.511363C14.6771 0.511363 16.3911 0.890151 17.8778 1.64773C19.3646 2.39583 20.5578 3.41383 21.4574 4.7017C22.3665 5.98958 22.9157 7.43371 23.1051 9.03409H17.0398C16.803 8.02083 16.3059 7.22538 15.5483 6.64773C14.7907 6.07008 13.8532 5.78125 12.7358 5.78125C10.8419 5.78125 9.40246 6.60511 8.41761 8.25284C7.44223 9.90057 6.94508 12.1402 6.92614 14.9716H7.125C7.56061 14.1098 8.14773 13.3759 8.88636 12.7699C9.63447 12.1544 10.482 11.6856 11.429 11.3636C12.3854 11.0322 13.3939 10.8665 14.4545 10.8665C16.178 10.8665 17.7121 11.2737 19.0568 12.0881C20.4015 12.893 21.4621 14.0009 22.2386 15.4119C23.0152 16.8229 23.4034 18.4375 23.4034 20.2557C23.4034 22.2254 22.9441 23.9773 22.0256 25.5114C21.1165 27.0455 19.8428 28.2481 18.2045 29.1193C16.5758 29.9811 14.6818 30.4072 12.5227 30.3977ZM12.4943 25.5682C13.4413 25.5682 14.2888 25.3409 15.0369 24.8864C15.785 24.4318 16.3722 23.8163 16.7983 23.0398C17.2244 22.2633 17.4375 21.392 17.4375 20.4261C17.4375 19.4602 17.2244 18.5937 16.7983 17.8267C16.3816 17.0597 15.804 16.4489 15.0653 15.9943C14.3267 15.5398 13.4839 15.3125 12.5369 15.3125C11.8267 15.3125 11.1686 15.4451 10.5625 15.7102C9.96591 15.9754 9.44034 16.3447 8.9858 16.8182C8.54072 17.2917 8.19034 17.8409 7.93466 18.4659C7.67898 19.0814 7.55114 19.7396 7.55114 20.4403C7.55114 21.3778 7.7642 22.2348 8.19034 23.0114C8.62595 23.7879 9.21307 24.4081 9.9517 24.8722C10.6998 25.3362 11.5473 25.5682 12.4943 25.5682ZM30.147 30.3693C29.2095 30.3693 28.4046 30.0379 27.7322 29.375C27.0694 28.7027 26.7379 27.8977 26.7379 26.9602C26.7379 26.0322 27.0694 25.2367 27.7322 24.5739C28.4046 23.911 29.2095 23.5795 30.147 23.5795C31.0561 23.5795 31.8516 23.911 32.5334 24.5739C33.2152 25.2367 33.5561 26.0322 33.5561 26.9602C33.5561 27.5852 33.3951 28.1581 33.0732 28.679C32.7607 29.1903 32.3487 29.6023 31.8374 29.9148C31.326 30.2178 30.7625 30.3693 30.147 30.3693ZM48.858 30.3977C46.8504 30.3977 45.0606 30.0284 43.4886 29.2898C41.9261 28.5511 40.6856 27.5331 39.767 26.2358C38.8485 24.9384 38.3703 23.4517 38.3324 21.7756H44.2983C44.3646 22.9025 44.8381 23.8163 45.7188 24.517C46.5994 25.2178 47.6458 25.5682 48.858 25.5682C49.8239 25.5682 50.6761 25.3551 51.4148 24.929C52.1629 24.4934 52.7453 23.892 53.1619 23.125C53.5881 22.3485 53.8011 21.4583 53.8011 20.4545C53.8011 19.4318 53.5833 18.5322 53.1477 17.7557C52.7216 16.9792 52.1297 16.3731 51.3722 15.9375C50.6146 15.5019 49.7481 15.2794 48.7727 15.2699C47.9205 15.2699 47.0919 15.4451 46.2869 15.7955C45.4915 16.1458 44.8712 16.6241 44.4261 17.2301L38.9574 16.25L40.3352 0.90909H58.1193V5.9375H45.4062L44.6534 13.2244H44.8239C45.3352 12.5047 46.107 11.9081 47.1392 11.4347C48.1714 10.9612 49.3267 10.7244 50.6051 10.7244C52.357 10.7244 53.9195 11.1364 55.2926 11.9602C56.6657 12.7841 57.75 13.9157 58.5455 15.3551C59.3409 16.785 59.7339 18.4328 59.7244 20.2983C59.7339 22.2585 59.2794 24.0009 58.3608 25.5256C57.4517 27.0407 56.178 28.2339 54.5398 29.1051C52.911 29.9669 51.017 30.3977 48.858 30.3977Z" fill="#CE363F"/>
</svg>
