<svg width="22" height="29" viewBox="0 0 22 29" fill="none" xmlns="http://www.w3.org/2000/svg">
<path d="M9.60065 18L17.134 10.4666L15.2673 8.53329L9.60065 14.2L6.80065 11.4L4.86732 13.2666L9.60065 18ZM11.0007 28.6666L1.40065 21.4666C1.06732 21.2222 0.806429 20.9111 0.617984 20.5333C0.428651 20.1555 0.333984 19.7555 0.333984 19.3333V3.33329C0.333984 2.59996 0.595317 1.97196 1.11798 1.44929C1.63976 0.927515 2.26732 0.666626 3.00065 0.666626H19.0007C19.734 0.666626 20.362 0.927515 20.8847 1.44929C21.4064 1.97196 21.6673 2.59996 21.6673 3.33329V19.3333C21.6673 19.7555 21.5731 20.1555 21.3847 20.5333C21.1953 20.9111 20.934 21.2222 20.6007 21.4666L11.0007 28.6666Z" fill="#04A1E5"/>
</svg>
