<svg width="20" height="20" viewBox="0 0 20 20" fill="none" xmlns="http://www.w3.org/2000/svg">
<path d="M2.74577 13.0908C3.07127 13.4162 3.59887 13.4161 3.92425 13.0906C4.24963 12.7651 4.24955 12.2375 3.92405 11.9121L2.01189 10.0006L4.90245 7.11006C6.64724 5.36528 9.12414 4.65437 11.4945 5.1538C11.9448 5.24868 12.3868 4.96053 12.4817 4.51019C12.5766 4.05986 12.2884 3.61788 11.8381 3.523C8.92216 2.90865 5.87129 3.78424 3.72394 5.93159L0.244064 9.41146C-0.0813936 9.73692 -0.0813546 10.2646 0.244181 10.59L2.74577 13.0908Z" fill="#B8B8B8"/>
<path d="M19.7556 9.41048L17.254 6.90975C16.9285 6.58437 16.4009 6.58445 16.0755 6.90995C15.7501 7.23544 15.7502 7.76304 16.0757 8.08842L17.9879 9.99992L15.0973 12.8905C13.3525 14.6353 10.8756 15.3462 8.50526 14.8467C8.05493 14.7519 7.61295 15.04 7.51807 15.4903C7.42319 15.9407 7.71134 16.3827 8.16168 16.4775C11.0776 17.0919 14.1285 16.2163 16.2758 14.069L19.7557 10.5891C20.0812 10.2636 20.0811 9.73586 19.7556 9.41048Z" fill="#B8B8B8"/>
<path d="M5.83203 10.0002C5.83203 10.4605 6.2051 10.8335 6.66532 10.8335C7.12554 10.8335 7.49861 10.4605 7.49861 10.0002C7.49861 8.6197 8.61799 7.50032 9.99853 7.50032C10.4587 7.50032 10.8318 7.12725 10.8318 6.66703C10.8318 6.20681 10.4587 5.83374 9.99853 5.83374C7.69755 5.8337 5.83203 7.69922 5.83203 10.0002Z" fill="#B8B8B8"/>
<path d="M12.5012 10.0002C12.5012 11.3807 11.3818 12.5001 10.0013 12.5001C9.54104 12.5001 9.16797 12.8732 9.16797 13.3334C9.16797 13.7936 9.54104 14.1667 10.0013 14.1667C12.3022 14.1667 14.1678 12.3012 14.1678 10.0002C14.1678 9.53994 13.7947 9.16687 13.3345 9.16687C12.8742 9.16687 12.5012 9.53998 12.5012 10.0002Z" fill="#B8B8B8"/>
<path d="M19.7552 0.244064C19.4298 -0.0813546 18.9022 -0.0813546 18.5767 0.244064L0.244064 18.5767C-0.0813546 18.9022 -0.0813546 19.4298 0.244064 19.7552C0.569482 20.0806 1.09712 20.0806 1.42254 19.7552L19.7552 1.42254C20.0807 1.09712 20.0807 0.569482 19.7552 0.244064Z" fill="#B8B8B8"/>
</svg>
