<svg width="24" height="24" viewBox="0 0 24 24" fill="none" xmlns="http://www.w3.org/2000/svg">
<path d="M16.5277 11.966L23.3362 5.15745C24.2213 4.34043 24.2213 2.97872 23.3362 2.1617L21.8383 0.66383C21.0213 -0.221277 19.6596 -0.221277 18.8426 0.66383L12.034 7.47234L5.15745 0.66383C4.34043 -0.221277 2.97872 -0.221277 2.1617 0.66383L0.66383 2.1617C-0.221277 2.97872 -0.221277 4.34043 0.66383 5.15745L7.47234 11.966L0.66383 18.8426C-0.221277 19.6596 -0.221277 21.0213 0.66383 21.8383L2.1617 23.3362C2.97872 24.2213 4.34043 24.2213 5.15745 23.3362L12.034 16.5277L18.8426 23.3362C19.6596 24.2213 21.0213 24.2213 21.8383 23.3362L23.3362 21.8383C24.2213 21.0213 24.2213 19.6596 23.3362 18.8426L16.5277 11.966Z" fill="#FD5C5C"/>
</svg>
