<svg width="29" height="29" viewBox="0 0 29 29" fill="none" xmlns="http://www.w3.org/2000/svg">
<path d="M24.1993 10.2L25.1993 9.20004L22.666 6.73337V3.00004H21.3327V7.26671L24.1993 10.2ZM21.9993 13.6667C20.1549 13.6667 18.5829 13.0165 17.2833 11.716C15.9829 10.4165 15.3327 8.84449 15.3327 7.00004C15.3327 5.1556 15.9829 3.58315 17.2833 2.28271C18.5829 0.983152 20.1549 0.333374 21.9993 0.333374C23.8438 0.333374 25.4162 0.983152 26.7167 2.28271C28.0162 3.58315 28.666 5.1556 28.666 7.00004C28.666 8.84449 28.0162 10.4165 26.7167 11.716C25.4162 13.0165 23.8438 13.6667 21.9993 13.6667ZM6.66602 21.6667C7.22157 21.6667 7.69357 21.472 8.08202 21.0827C8.47135 20.6943 8.66602 20.2223 8.66602 19.6667C8.66602 19.1112 8.47135 18.6392 8.08202 18.2507C7.69357 17.8614 7.22157 17.6667 6.66602 17.6667C6.11046 17.6667 5.63846 17.8614 5.25002 18.2507C4.86068 18.6392 4.66602 19.1112 4.66602 19.6667C4.66602 20.2223 4.86068 20.6943 5.25002 21.0827C5.63846 21.472 6.11046 21.6667 6.66602 21.6667ZM15.9993 21.6667C16.5549 21.6667 17.0269 21.472 17.4153 21.0827C17.8047 20.6943 17.9993 20.2223 17.9993 19.6667C17.9993 19.1112 17.8047 18.6392 17.4153 18.2507C17.0269 17.8614 16.5549 17.6667 15.9993 17.6667C15.4438 17.6667 14.9718 17.8614 14.5833 18.2507C14.194 18.6392 13.9993 19.1112 13.9993 19.6667C13.9993 20.2223 14.194 20.6943 14.5833 21.0827C14.9718 21.472 15.4438 21.6667 15.9993 21.6667ZM0.666016 21V8.33337C0.666016 6.51115 1.51046 5.16671 3.19935 4.30004C4.88824 3.43337 7.51046 3.00004 11.066 3.00004C11.4882 3.00004 11.8994 3.00537 12.2993 3.01604C12.6993 3.0276 13.1105 3.04449 13.5327 3.06671C13.2882 3.71115 13.0829 4.3556 12.9167 5.00004C12.7496 5.64449 12.666 6.31115 12.666 7.00004C12.666 7.44449 12.6993 7.88893 12.766 8.33337C12.8327 8.77782 12.9327 9.22226 13.066 9.66671H3.33268V13.6667H15.466C16.3327 14.5334 17.3327 15.1947 18.466 15.6507C19.5993 16.1058 20.7771 16.3334 21.9993 16.3334V21C21.9993 21.6445 21.8771 22.2387 21.6327 22.7827C21.3882 23.3276 21.066 23.8223 20.666 24.2667V27C20.666 27.3778 20.538 27.6943 20.282 27.9494C20.0269 28.2054 19.7105 28.3334 19.3327 28.3334H17.9993C17.6216 28.3334 17.3051 28.2054 17.05 27.9494C16.794 27.6943 16.666 27.3778 16.666 27V25.6667H5.99935V27C5.99935 27.3778 5.87179 27.6943 5.61668 27.9494C5.36068 28.2054 5.04379 28.3334 4.66602 28.3334H3.33268C2.9549 28.3334 2.63846 28.2054 2.38335 27.9494C2.12735 27.6943 1.99935 27.3778 1.99935 27V24.2667C1.59935 23.8223 1.27713 23.3276 1.03268 22.7827C0.788238 22.2387 0.666016 21.6445 0.666016 21Z" fill="#04A1E5"/>
</svg>
