<svg width="40" height="40" viewBox="0 0 40 40" fill="none" xmlns="http://www.w3.org/2000/svg">
<path d="M29.4277 27.7617L22.356 34.8333C22.0468 35.1429 21.6795 35.3885 21.2753 35.556C20.8711 35.7236 20.4378 35.8098 20.0002 35.8098C19.5626 35.8098 19.1293 35.7236 18.7251 35.556C18.3209 35.3885 17.9536 35.1429 17.6444 34.8333L10.571 27.7617C8.70639 25.8969 7.43658 23.5212 6.92217 20.9348C6.40775 18.3484 6.67184 15.6675 7.68103 13.2312C8.69022 10.7949 10.3992 8.71257 12.5918 7.24751C14.7845 5.78246 17.3623 5.00049 19.9994 5.00049C22.6364 5.00049 25.2142 5.78246 27.4069 7.24751C29.5995 8.71257 31.3085 10.7949 32.3177 13.2312C33.3269 15.6675 33.591 18.3484 33.0765 20.9348C32.5621 23.5212 31.2923 25.8969 29.4277 27.7617V27.7617Z" stroke="#04A1E5" stroke-width="2" stroke-linecap="round" stroke-linejoin="round"/>
<path d="M25 18.3334C25 19.6595 24.4732 20.9312 23.5355 21.8689C22.5979 22.8066 21.3261 23.3334 20 23.3334C18.6739 23.3334 17.4021 22.8066 16.4645 21.8689C15.5268 20.9312 15 19.6595 15 18.3334C15 17.0073 15.5268 15.7355 16.4645 14.7978C17.4021 13.8602 18.6739 13.3334 20 13.3334C21.3261 13.3334 22.5979 13.8602 23.5355 14.7978C24.4732 15.7355 25 17.0073 25 18.3334V18.3334Z" stroke="#04A1E5" stroke-width="2" stroke-linecap="round" stroke-linejoin="round"/>
</svg>
