<svg width="40" height="40" viewBox="0 0 40 40" fill="none" xmlns="http://www.w3.org/2000/svg">
<path d="M25 15C25 14.1159 24.6488 13.2681 24.0237 12.643C23.3986 12.0179 22.5507 11.6667 21.6667 11.6667C20.7826 11.6667 19.9348 12.0179 19.3096 12.643C18.6845 13.2681 18.3333 14.1159 18.3333 15V23.3333C18.3333 24.2174 17.9821 25.0652 17.357 25.6904C16.7319 26.3155 15.8841 26.6667 15 26.6667H25M15 20H21.6667M35 20C35 21.9698 34.612 23.9204 33.8582 25.7403C33.1044 27.5601 31.9995 29.2137 30.6066 30.6066C29.2137 31.9995 27.5601 33.1044 25.7403 33.8582C23.9204 34.612 21.9698 35 20 35C18.0302 35 16.0796 34.612 14.2597 33.8582C12.4399 33.1044 10.7863 31.9995 9.3934 30.6066C8.00052 29.2137 6.89563 27.5601 6.14181 25.7403C5.38799 23.9204 5 21.9698 5 20C5 16.0218 6.58035 12.2064 9.3934 9.3934C12.2064 6.58035 16.0218 5 20 5C23.9782 5 27.7936 6.58035 30.6066 9.3934C33.4196 12.2064 35 16.0218 35 20Z" stroke="#04A1E5" stroke-width="2" stroke-linecap="round" stroke-linejoin="round"/>
</svg>
