<svg width="40" height="40" viewBox="0 0 40 40" fill="none" xmlns="http://www.w3.org/2000/svg">
<path d="M20 23.3333L35 15L20 6.66663L5 15L20 23.3333Z" stroke="#04A1E5" stroke-width="2"/>
<path d="M20 23.3333L30.2666 17.63C31.6175 21.0602 32.0009 24.7953 31.375 28.4283C27.1476 28.8386 23.162 30.5894 20 33.425C16.8384 30.5897 12.8534 28.839 8.62663 28.4283C8.0003 24.7953 8.38368 21.06 9.73497 17.63L20 23.3333Z" stroke="#04A1E5" stroke-width="2"/>
<path d="M13.3333 33.3333V20.8333L20 17.13M20 23.3333L35 15L20 6.66663L5 15L20 23.3333ZM20 23.3333L30.2667 17.63C31.6175 21.0601 32.0009 24.7952 31.375 28.4283C27.1476 28.8386 23.162 30.5893 20 33.425C16.8384 30.5897 12.8535 28.8389 8.62667 28.4283C8.00033 24.7953 8.38372 21.06 9.735 17.63L20 23.3333Z" stroke="#04A1E5" stroke-width="2" stroke-linecap="round" stroke-linejoin="round"/>
</svg>
