<svg width="22" height="22" viewBox="0 0 22 22" fill="none" xmlns="http://www.w3.org/2000/svg">
<path d="M21.1676 9.08747L12.194 9.08704C11.7978 9.08704 11.4766 9.40818 11.4766 9.80444V12.6711C11.4766 13.0673 11.7978 13.3885 12.194 13.3885H17.2474C16.694 14.8246 15.6612 16.0272 14.3435 16.7914L16.4983 20.5215C19.9548 18.5224 21.9983 15.0149 21.9983 11.0885C21.9983 10.5295 21.9571 10.1298 21.8747 9.67979C21.812 9.33789 21.5152 9.08747 21.1676 9.08747Z" fill="#167EE6"/>
<path d="M11.0019 17.6956C8.52885 17.6956 6.36993 16.3444 5.21041 14.345L1.48047 16.4949C3.37861 19.7846 6.93445 22 11.0019 22C12.9972 22 14.88 21.4627 16.5019 20.5265V20.5214L14.3471 16.7913C13.3615 17.3629 12.2209 17.6956 11.0019 17.6956Z" fill="#12B347"/>
<path d="M16.5 20.5265V20.5214L14.3452 16.7913C13.3596 17.3629 12.2192 17.6956 11 17.6956V22C12.9953 22 14.8782 21.4627 16.5 20.5265Z" fill="#0F993E"/>
<path d="M4.30435 11C4.30435 9.78103 4.63702 8.6406 5.20854 7.65503L1.4786 5.50513C0.537195 7.12191 0 8.99956 0 11C0 13.0005 0.537195 14.8781 1.4786 16.4949L5.20854 14.345C4.63702 13.3594 4.30435 12.219 4.30435 11Z" fill="#FFD500"/>
<path d="M11.0019 4.30435C12.6145 4.30435 14.0958 4.87738 15.2529 5.83056C15.5383 6.06568 15.9532 6.04871 16.2146 5.78725L18.2458 3.75611C18.5424 3.45946 18.5213 2.97387 18.2044 2.69895C16.2658 1.0172 13.7436 0 11.0019 0C6.93445 0 3.37861 2.21534 1.48047 5.50511L5.21041 7.65501C6.36993 5.65555 8.52885 4.30435 11.0019 4.30435Z" fill="#FF4B26"/>
<path d="M15.251 5.83056C15.5364 6.06568 15.9513 6.04871 16.2128 5.78725L18.2439 3.75611C18.5405 3.45946 18.5194 2.97387 18.2025 2.69895C16.264 1.01716 13.7417 0 11 0V4.30435C12.6126 4.30435 14.094 4.87738 15.251 5.83056Z" fill="#D93F21"/>
</svg>
