<svg width="169" height="45" viewBox="0 0 169 45" fill="none" xmlns="http://www.w3.org/2000/svg">
<path d="M0 0V45H26.5554L18.685 39.7149L35.8497 25.0851L5.86912 0H0Z" fill="url(#paint0_linear_1126_239)"/>
<path d="M52.0706 0V45H41.0251L32.7891 38.7383L50.3002 25.2L33.2701 10.7043L46.5478 0H52.0706Z" fill="#2E3191"/>
<path d="M55.4775 7.21915C56.0932 7.50638 57.0169 7.79362 57.979 7.79362C59.0182 7.79362 59.557 7.39149 59.557 6.79787C59.557 6.2234 59.0759 5.89787 57.8828 5.49574C56.2279 4.95957 55.1311 4.11702 55.1311 2.7766C55.1503 1.18723 56.5743 0 58.9412 0C60.0765 0 60.904 0.210638 61.5005 0.459574L61.0002 2.14468C60.5961 1.97234 59.8841 1.70426 58.9027 1.70426C57.9213 1.70426 57.4402 2.10638 57.4402 2.60426C57.4402 3.19787 57.9983 3.44681 59.2876 3.90638C61.0579 4.51915 61.8854 5.3617 61.8854 6.66383C61.8854 8.21489 60.5961 9.53617 57.8444 9.53617C56.709 9.53617 55.5737 9.24894 55.0156 8.9617L55.4775 7.21915Z" fill="#2E3191"/>
<path d="M71.8736 5.84042C71.8351 4.72978 71.7774 3.38935 71.7774 2.04893H71.7389C71.431 3.23616 70.9885 4.57659 70.6228 5.64893L69.4105 9.24893H67.6209L66.5818 5.66808C66.2547 4.57659 65.9083 3.25531 65.6774 2.04893H65.6389C65.5812 3.29361 65.5427 4.72978 65.4657 5.87871L65.2733 9.38297H63.1758L63.8108 0.134033H66.832L67.8134 3.21701C68.1405 4.2702 68.4291 5.47659 68.66 6.56808H68.6985C68.9872 5.49573 69.3143 4.2319 69.6414 3.21701L70.719 0.153182H73.6632L74.2213 9.40212H72.0083L71.8736 5.84042Z" fill="#2E3191"/>
<path d="M76.0282 7.21915C76.644 7.50638 77.5677 7.79362 78.5298 7.79362C79.5689 7.79362 80.127 7.39149 80.127 6.79787C80.127 6.2234 79.6459 5.89787 78.4529 5.49574C76.798 4.95957 75.7011 4.11702 75.7011 2.7766C75.7011 1.20638 77.1251 0 79.492 0C80.6273 0 81.4548 0.210638 82.0513 0.459574L81.551 2.14468C81.1469 1.97234 80.4349 1.70426 79.4535 1.70426C78.4721 1.70426 77.991 2.10638 77.991 2.60426C77.991 3.19787 78.5491 3.44681 79.8383 3.90638C81.6087 4.51915 82.4362 5.3617 82.4362 6.66383C82.4362 8.21489 81.1469 9.53617 78.3951 9.53617C77.2598 9.53617 76.1245 9.24894 75.5664 8.9617L76.0282 7.21915Z" fill="#2E3191"/>
<path d="M57.673 16.5829V20.1254H61.4062V16.5829H63.6576V25.8318H61.4062V21.9637H57.673V25.8318H55.4023V16.5829H57.673Z" fill="#2E3191"/>
<path d="M67.9297 17.2725C67.9297 17.847 67.4486 18.3066 66.7173 18.3066C66.0054 18.3066 65.5243 17.847 65.5435 17.2725C65.5243 16.6598 66.0054 16.2193 66.7366 16.2193C67.4486 16.2002 67.9104 16.6598 67.9297 17.2725ZM65.6013 25.8321V19.13H67.8527V25.8321H65.6013Z" fill="#2E3191"/>
<path d="M76.5314 24.8554C76.5314 26.1384 76.2427 27.1916 75.4345 27.8809C74.6263 28.5129 73.5487 28.7043 72.4904 28.7043C71.5474 28.7043 70.5276 28.532 69.8733 28.1873L70.3159 26.6171C70.7777 26.866 71.5859 27.1341 72.4134 27.1341C73.491 27.1341 74.2992 26.598 74.2992 25.3724V24.8937H74.28C73.8566 25.449 73.1446 25.7746 72.3172 25.7746C70.5276 25.7746 69.2383 24.4341 69.2383 22.5001C69.2383 20.3554 70.7585 18.9767 72.5288 18.9767C73.5295 18.9767 74.1453 19.3788 74.5109 19.915H74.5494L74.6263 19.1107H76.5891C76.5506 19.532 76.5314 20.1065 76.5314 21.1022V24.8554ZM74.28 21.849C74.28 21.715 74.2607 21.5809 74.2415 21.466C74.0875 20.9107 73.6449 20.5469 73.0292 20.5469C72.2209 20.5469 71.5474 21.2363 71.5474 22.4618C71.5474 23.4575 72.0862 24.2426 73.0292 24.2426C73.6064 24.2426 74.0683 23.8788 74.2222 23.4001C74.28 23.2469 74.2992 23.0363 74.2992 22.8448V21.849H74.28Z" fill="#2E3191"/>
<path d="M78.3398 16.1044H80.5913V19.9342H80.6298C80.8607 19.6469 81.1686 19.4171 81.5149 19.2448C81.8613 19.0725 82.2654 18.9767 82.6888 18.9767C84.132 18.9767 85.2288 19.8959 85.2288 21.9065V25.832H82.9774V22.1363C82.9774 21.2554 82.6503 20.6618 81.8036 20.6618C81.207 20.6618 80.8414 21.0256 80.6682 21.3895C80.6105 21.5235 80.5913 21.6959 80.5913 21.849V25.832H78.3398V16.1044Z" fill="#2E3191"/>
<path d="M88.7682 23.1512C88.8452 24.0129 89.7689 24.4341 90.808 24.4341C91.5777 24.4341 92.1935 24.3384 92.8093 24.1661L93.0979 25.5831C92.3474 25.8512 91.443 26.0044 90.4616 26.0044C87.9985 26.0044 86.5938 24.6831 86.5938 22.5767C86.5938 20.8724 87.7291 18.9958 90.2499 18.9958C92.5976 18.9958 93.4828 20.681 93.4828 22.3469C93.4828 22.7107 93.4443 23.0171 93.4058 23.1703H88.7682V23.1512ZM91.4238 21.715C91.4238 21.2171 91.1928 20.3554 90.1537 20.3554C89.2108 20.3554 88.8259 21.1597 88.7682 21.715H91.4238Z" fill="#2E3191"/>
<path d="M94.8702 21.332C94.8702 20.3363 94.8317 19.7043 94.8125 19.1299H96.756L96.833 20.3554H96.8907C97.2564 19.3788 98.1608 18.9767 98.8535 18.9767C99.0652 18.9767 99.1614 18.9767 99.3346 18.9958V20.9682C99.1807 20.9299 98.969 20.8916 98.7188 20.8916C97.8914 20.8916 97.3333 21.3129 97.1794 21.9448C97.1409 22.0788 97.1409 22.2511 97.1409 22.4043V25.8128H94.8702V21.332Z" fill="#2E3191"/>
<path d="M109.513 21.9256H105.837V24.1277H109.955V25.8319H103.586V16.583H109.763V18.3064H105.837V20.2213H109.513V21.9256Z" fill="#2E3191"/>
<path d="M118.385 16.1044V23.8405C118.385 24.5873 118.423 25.3916 118.442 25.8512H116.441L116.345 24.8554H116.306C115.845 25.6022 114.979 25.9852 114.036 25.9852C112.323 25.9852 110.938 24.6256 110.938 22.5384C110.918 20.2788 112.458 18.9767 114.19 18.9767C115.075 18.9767 115.768 19.2639 116.095 19.7235H116.133V16.0852H118.385V16.1044ZM116.133 21.9639C116.133 21.849 116.114 21.6958 116.095 21.6001C115.96 21.0448 115.479 20.5661 114.767 20.5661C113.747 20.5661 113.208 21.4086 113.208 22.481C113.208 23.6107 113.824 24.3384 114.748 24.3384C115.402 24.3384 115.922 23.9363 116.056 23.3427C116.095 23.1895 116.114 23.0363 116.114 22.8639V21.9639H116.133Z" fill="#2E3191"/>
<path d="M125.137 25.832L125.04 24.8937H125.002C124.675 25.3533 124.001 25.9852 122.731 25.9852C121.269 25.9852 120.172 25.1809 120.172 23.0554V19.1299H122.443V22.7299C122.443 23.6682 122.75 24.3001 123.578 24.3001C124.194 24.3001 124.559 23.9171 124.713 23.5724C124.752 23.4575 124.79 23.3043 124.79 23.1129V19.1299H127.061V23.6873C127.061 24.5682 127.099 25.2767 127.119 25.832H125.137Z" fill="#2E3191"/>
<path d="M134.299 25.6788C133.895 25.8512 133.144 25.9852 132.278 25.9852C129.931 25.9852 128.43 24.6639 128.43 22.5384C128.43 20.5852 129.892 18.9767 132.586 18.9767C133.183 18.9767 133.837 19.0724 134.299 19.2448L133.933 20.7958C133.664 20.6809 133.26 20.5852 132.682 20.5852C131.489 20.5852 130.72 21.3703 130.739 22.4618C130.739 23.6873 131.624 24.3384 132.721 24.3384C133.26 24.3384 133.664 24.2618 134.01 24.1277L134.299 25.6788Z" fill="#2E3191"/>
<path d="M141.652 24.2043C141.652 24.8554 141.69 25.4682 141.748 25.832H139.708L139.574 25.1618H139.535C139.054 25.698 138.323 25.9852 137.457 25.9852C135.995 25.9852 135.109 24.9894 135.109 23.9363C135.109 22.1937 136.803 21.3512 139.362 21.3703V21.2746C139.362 20.9107 139.15 20.4129 138.034 20.4129C137.284 20.4129 136.514 20.6426 136.033 20.9107L135.61 19.5703C136.11 19.3022 137.111 18.9767 138.419 18.9767C140.844 18.9767 141.614 20.298 141.614 21.8682V24.2043H141.652ZM139.458 22.6724C138.265 22.6533 137.361 22.9214 137.361 23.7256C137.361 24.2618 137.746 24.5299 138.246 24.5299C138.804 24.5299 139.266 24.1852 139.42 23.7639C139.458 23.649 139.458 23.5341 139.458 23.4001V22.6724Z" fill="#2E3191"/>
<path d="M145.847 17.2151V19.13H147.464V20.6619H145.847V23.0938C145.847 23.8981 146.059 24.281 146.732 24.281C147.021 24.281 147.233 24.2619 147.406 24.2236L147.425 25.7938C147.137 25.9087 146.598 25.9853 145.963 25.9853C145.231 25.9853 144.635 25.7364 144.269 25.3917C143.846 24.9896 143.654 24.3576 143.654 23.4002V20.6619H142.691V19.13H143.654V17.6747L145.847 17.2151Z" fill="#2E3191"/>
<path d="M151.102 17.2725C151.102 17.847 150.62 18.3066 149.889 18.3066C149.177 18.3066 148.696 17.847 148.715 17.2725C148.696 16.6598 149.177 16.2193 149.908 16.2193C150.62 16.2002 151.082 16.6598 151.102 17.2725ZM148.773 25.8321V19.13H151.025V25.8321H148.773Z" fill="#2E3191"/>
<path d="M159.992 22.4811C159.992 24.9896 157.914 25.9853 156.105 25.9853C154.046 25.9853 152.41 24.6832 152.41 22.4811C152.41 20.2215 154.142 18.9768 156.278 18.9768C158.472 18.9768 159.992 20.3172 159.992 22.4811ZM154.739 22.5002C154.739 23.5726 155.2 24.4917 156.201 24.4917C157.202 24.4917 157.644 23.5917 157.644 22.5002C157.644 21.5428 157.298 20.4513 156.201 20.4513C155.104 20.4513 154.739 21.5619 154.739 22.5002Z" fill="#2E3191"/>
<path d="M161.398 21.2747C161.398 20.4321 161.359 19.7236 161.34 19.13H163.303L163.399 20.0491H163.437C163.726 19.6279 164.476 18.9768 165.67 18.9768C167.151 18.9768 168.267 19.8768 168.267 21.8491V25.8321H166.016V22.1172C166.016 21.2555 165.689 20.6619 164.881 20.6619C164.265 20.6619 163.88 21.064 163.745 21.447C163.687 21.5811 163.649 21.7725 163.649 21.964V25.8321H161.398V21.2747Z" fill="#2E3191"/>
<path d="M63.7555 41.8595C63.0628 42.0701 61.735 42.3765 60.4265 42.3765C58.5984 42.3765 57.2899 41.9552 56.3662 41.1318C55.4425 40.3275 54.9422 39.1212 54.9615 37.7807C54.9807 34.7169 57.3861 32.9552 60.6766 32.9552C61.9659 32.9552 62.9666 33.185 63.4476 33.4148L62.9666 35.0807C62.4278 34.8701 61.735 34.6786 60.6382 34.6786C58.7523 34.6786 57.3284 35.6743 57.3284 37.6658C57.3284 39.5807 58.6176 40.6914 60.465 40.6914C60.9845 40.6914 61.4079 40.6339 61.5811 40.5573V38.6233H60.0416V36.9956H63.7748V41.8595H63.7555Z" fill="#2E3191"/>
<path d="M65.4835 37.7999C65.4835 36.8042 65.445 36.1722 65.4258 35.5978H67.3693L67.4463 36.8233H67.504C67.8696 35.8467 68.7741 35.4446 69.4668 35.4446C69.6785 35.4446 69.7747 35.4446 69.9479 35.4637V37.4361C69.7939 37.3978 69.6015 37.3595 69.3321 37.3595C68.5047 37.3595 67.9274 37.7616 67.7927 38.4127C67.7542 38.5467 67.7542 38.719 67.7542 38.8722V42.2807H65.5028V37.7999H65.4835Z" fill="#2E3191"/>
<path d="M78.1677 38.9298C78.1677 41.4383 76.0894 42.434 74.2806 42.434C72.2216 42.434 70.5859 41.1319 70.5859 38.9298C70.5859 36.6702 72.3178 35.4255 74.4538 35.4255C76.6475 35.4255 78.1677 36.766 78.1677 38.9298ZM72.9336 38.9489C72.9336 40.0213 73.3954 40.9404 74.3961 40.9404C75.3967 40.9404 75.8585 40.0404 75.8585 38.9489C75.8585 37.9915 75.5122 36.9 74.3961 36.9C73.28 36.9192 72.9336 38.0106 72.9336 38.9489Z" fill="#2E3191"/>
<path d="M84.5194 42.281L84.4232 41.3427H84.3847C84.0576 41.8022 83.384 42.4342 82.114 42.4342C80.6515 42.4342 79.5547 41.6299 79.5547 39.5044V35.5597H81.8254V39.1597C81.8254 40.098 82.1333 40.7299 82.9607 40.7299C83.5765 40.7299 83.9421 40.3469 84.096 40.0022C84.1345 39.8874 84.173 39.7342 84.173 39.5427V35.5597H86.4052V40.1171C86.4052 40.998 86.4437 41.7065 86.4629 42.2618H84.5194V42.281Z" fill="#2E3191"/>
<path d="M88.214 37.8383C88.214 36.9575 88.1755 36.2107 88.1562 35.5979H90.119L90.2152 36.5362H90.2537C90.7925 35.8277 91.62 35.4447 92.6783 35.4447C94.2563 35.4447 95.6803 36.7277 95.6803 38.8532C95.6803 41.2851 94.0061 42.4532 92.3897 42.4532C91.5045 42.4532 90.831 42.1277 90.5039 41.6873H90.4654V45H88.214V37.8383ZM90.4846 39.4085C90.4846 39.5809 90.5039 39.7149 90.5231 39.849C90.6771 40.4043 91.1966 40.8447 91.8509 40.8447C92.8323 40.8447 93.4096 40.0979 93.4096 38.949C93.4096 37.8766 92.89 37.0724 91.8894 37.0724C91.2544 37.0724 90.6963 37.5128 90.5424 38.1256C90.5039 38.2404 90.5039 38.3745 90.5039 38.4894V39.4085H90.4846Z" fill="#2E3191"/>
<defs>
<linearGradient id="paint0_linear_1126_239" x1="0" y1="22.5023" x2="35.8479" y2="22.5023" gradientUnits="userSpaceOnUse">
<stop stop-color="#00ADEE"/>
<stop offset="0.9663" stop-color="#2E3191"/>
<stop offset="1"/>
</linearGradient>
</defs>
</svg>
