<svg width="1602" height="720" viewBox="0 0 1602 720" fill="none" xmlns="http://www.w3.org/2000/svg">
<mask id="mask0_936_28" style="mask-type:alpha" maskUnits="userSpaceOnUse" x="0" y="0" width="1602" height="720">
<rect width="1602" height="720" fill="#F5F7FF"/>
</mask>
<g mask="url(#mask0_936_28)">
<path fill-rule="evenodd" clip-rule="evenodd" d="M1493.94 448.604C1534.7 444.818 1576.51 459.05 1608.03 485.172C1638.48 510.407 1650.14 549.886 1661.78 587.688C1673.23 624.886 1686.02 663.732 1674.44 700.888C1662.79 738.259 1630.06 763.091 1599.47 787.511C1567.38 813.129 1534.99 845.923 1493.94 844.98C1453.1 844.042 1422.91 809.302 1391.87 782.741C1363.4 758.379 1336.03 732.871 1322.23 698.031C1307.76 661.498 1299.19 620.222 1312.93 583.408C1326.43 547.244 1363.31 528.078 1394.27 505.024C1425.66 481.648 1454.97 452.222 1493.94 448.604Z" fill="#276ABC"/>
<path fill-rule="evenodd" clip-rule="evenodd" d="M354.924 44.5031C494.066 73.1063 517.893 257.673 617.653 358.624C715.948 458.091 893.279 484.66 924.482 620.855C958.851 770.87 885.348 932.725 773.433 1038.57C663.839 1142.22 505.848 1163.64 354.924 1159.53C208.944 1155.55 65.0392 1116.23 -41.3456 1016.37C-150.972 913.48 -218.476 771.053 -218.997 620.855C-219.52 470.173 -150.523 329.464 -44.0987 222.589C62.674 115.364 206.574 14.007 354.924 44.5031Z" fill="#276ABC" fill-opacity="0.04"/>
</g>
</svg>
