<svg width="180" height="54" viewBox="0 0 180 54" fill="none" xmlns="http://www.w3.org/2000/svg">
<g filter="url(#filter0_d_60_296)">
<path d="M4 0V46H31.1455L23.1002 40.5974L40.6464 25.6426L9.99954 0H4Z" fill="url(#paint0_linear_60_296)"/>
<path d="M57.2285 0V46H45.9376L37.5186 39.5991L55.4188 25.76L38.0103 10.9421L51.5831 0H57.2285Z" fill="#2E3191"/>
<path d="M60.7104 7.37957C61.3398 7.67319 62.284 7.96681 63.2676 7.96681C64.3298 7.96681 64.8806 7.55574 64.8806 6.94894C64.8806 6.3617 64.3888 6.02894 63.1692 5.61787C61.4775 5.06979 60.3563 4.20851 60.3563 2.8383C60.376 1.21362 61.8316 0 64.2511 0C65.4117 0 66.2575 0.215319 66.8673 0.469787L66.3558 2.19234C65.9428 2.01617 65.215 1.74213 64.2118 1.74213C63.2085 1.74213 62.7168 2.15319 62.7168 2.66213C62.7168 3.26894 63.2872 3.5234 64.6052 3.99319C66.4149 4.61957 67.2607 5.48085 67.2607 6.81191C67.2607 8.39745 65.9428 9.74808 63.1299 9.74808C61.9693 9.74808 60.8087 9.45447 60.2383 9.16085L60.7104 7.37957Z" fill="#2E3191"/>
<path d="M77.4697 5.97022C77.4304 4.8349 77.3714 3.46468 77.3714 2.09447H77.3321C77.0173 3.30809 76.5649 4.6783 76.1912 5.77447L74.9519 9.45447H73.1225L72.0603 5.79405C71.7259 4.6783 71.3718 3.32766 71.1358 2.09447H71.0965C71.0374 3.36681 70.9981 4.8349 70.9194 6.00936L70.7227 9.59149H68.5786L69.2277 0.137024H72.316L73.3192 3.28851C73.6536 4.36511 73.9487 5.5983 74.1847 6.71404H74.2241C74.5192 5.61787 74.8536 4.32596 75.188 3.28851L76.2895 0.156598H79.2991L79.8696 9.61107H77.6074L77.4697 5.97022Z" fill="#2E3191"/>
<path d="M81.7187 7.37957C82.3481 7.67319 83.2923 7.96681 84.2759 7.96681C85.3381 7.96681 85.9085 7.55574 85.9085 6.94894C85.9085 6.3617 85.4168 6.02894 84.1972 5.61787C82.5055 5.06979 81.3843 4.20851 81.3843 2.8383C81.3843 1.23319 82.8399 0 85.2594 0C86.42 0 87.2658 0.215319 87.8756 0.469787L87.3641 2.19234C86.9511 2.01617 86.2232 1.74213 85.22 1.74213C84.2168 1.74213 83.7251 2.15319 83.7251 2.66213C83.7251 3.26894 84.2955 3.5234 85.6135 3.99319C87.4232 4.61957 88.269 5.48085 88.269 6.81191C88.269 8.39745 86.9511 9.74808 84.1382 9.74808C82.9776 9.74808 81.817 9.45447 81.2466 9.16085L81.7187 7.37957Z" fill="#2E3191"/>
<path d="M62.953 16.9514V20.5727H66.7691V16.9514H69.0705V26.4059H66.7691V22.4518H62.953V26.4059H60.6318V16.9514H62.953Z" fill="#2E3191"/>
<path d="M73.4373 17.6562C73.4373 18.2434 72.9455 18.7132 72.198 18.7132C71.4702 18.7132 70.9785 18.2434 70.9981 17.6562C70.9785 17.0298 71.4702 16.5796 72.2177 16.5796C72.9455 16.56 73.4176 17.0298 73.4373 17.6562ZM71.0571 26.406V19.5549H73.3586V26.406H71.0571Z" fill="#2E3191"/>
<path d="M82.2301 25.4076C82.2301 26.7191 81.935 27.7957 81.1088 28.5004C80.2827 29.1463 79.1811 29.3421 78.0992 29.3421C77.1354 29.3421 76.0928 29.1659 75.424 28.8136L75.8765 27.2085C76.3486 27.4629 77.1747 27.737 78.0206 27.737C79.1221 27.737 79.9483 27.1889 79.9483 25.9361V25.4468H79.9286C79.4959 26.0144 78.768 26.3472 77.9222 26.3472C76.0928 26.3472 74.7749 24.977 74.7749 23C74.7749 20.8076 76.3289 19.3983 78.1386 19.3983C79.1615 19.3983 79.7909 19.8093 80.1647 20.3574H80.204L80.2827 19.5353H82.2891C82.2497 19.9659 82.2301 20.5531 82.2301 21.571V25.4076ZM79.9286 22.3344C79.9286 22.1974 79.9089 22.0604 79.8893 21.9429C79.7319 21.3753 79.2795 21.0034 78.65 21.0034C77.8239 21.0034 77.1354 21.708 77.1354 22.9608C77.1354 23.9787 77.6862 24.7812 78.65 24.7812C79.2401 24.7812 79.7122 24.4093 79.8696 23.92C79.9286 23.7634 79.9483 23.548 79.9483 23.3523V22.3344H79.9286Z" fill="#2E3191"/>
<path d="M84.0791 16.4621H86.3806V20.377H86.4199C86.656 20.0834 86.9707 19.8485 87.3248 19.6723C87.6788 19.4961 88.0919 19.3983 88.5247 19.3983C90 19.3983 91.1212 20.3378 91.1212 22.3932V26.4059H88.8197V22.6281C88.8197 21.7276 88.4853 21.1208 87.6198 21.1208C87.01 21.1208 86.6363 21.4927 86.4592 21.8646C86.4002 22.0017 86.3806 22.1778 86.3806 22.3344V26.4059H84.0791V16.4621V16.4621Z" fill="#2E3191"/>
<path d="M94.7404 23.6654C94.819 24.5463 95.7632 24.9769 96.8255 24.9769C97.6123 24.9769 98.2417 24.8791 98.8712 24.7029L99.1663 26.1514C98.3991 26.4254 97.4746 26.582 96.4714 26.582C93.9535 26.582 92.5176 25.2314 92.5176 23.0782C92.5176 21.3361 93.6781 19.4178 96.255 19.4178C98.6548 19.4178 99.5597 21.1403 99.5597 22.8433C99.5597 23.2152 99.5203 23.5284 99.481 23.685H94.7404V23.6654ZM97.4549 22.1974C97.4549 21.6884 97.2189 20.8076 96.1567 20.8076C95.1928 20.8076 94.7994 21.6297 94.7404 22.1974H97.4549Z" fill="#2E3191"/>
<path d="M100.976 21.8059C100.976 20.788 100.937 20.1421 100.917 19.5549H102.904L102.982 20.8076H103.041C103.415 19.8093 104.34 19.3983 105.048 19.3983C105.264 19.3983 105.363 19.3983 105.54 19.4178V21.434C105.382 21.3948 105.166 21.3557 104.91 21.3557C104.064 21.3557 103.494 21.7863 103.336 22.4323C103.297 22.5693 103.297 22.7455 103.297 22.9021V26.3863H100.976V21.8059Z" fill="#2E3191"/>
<path d="M115.946 22.4127H112.189V24.6638H116.398V26.4059H109.887V16.9514H116.202V18.7131H112.189V20.6706H115.946V22.4127Z" fill="#2E3191"/>
<path d="M125.014 16.4621V24.3702C125.014 25.1336 125.053 25.9558 125.073 26.4255H123.027L122.929 25.4077H122.889C122.417 26.1711 121.532 26.5626 120.568 26.5626C118.817 26.5626 117.401 25.1728 117.401 23.0392C117.381 20.7294 118.955 19.3983 120.725 19.3983C121.63 19.3983 122.338 19.6919 122.673 20.1617H122.712V16.4426H125.014V16.4621ZM122.712 22.4519C122.712 22.3345 122.692 22.1779 122.673 22.08C122.535 21.5124 122.043 21.023 121.316 21.023C120.273 21.023 119.722 21.8843 119.722 22.9804C119.722 24.1353 120.352 24.8792 121.296 24.8792C121.965 24.8792 122.496 24.4681 122.633 23.8613C122.673 23.7047 122.692 23.5481 122.692 23.3719V22.4519H122.712Z" fill="#2E3191"/>
<path d="M131.918 26.406L131.819 25.4468H131.78C131.446 25.9166 130.757 26.5626 129.459 26.5626C127.964 26.5626 126.843 25.7405 126.843 23.5677V19.5549H129.164V23.2349C129.164 24.1941 129.479 24.84 130.324 24.84C130.954 24.84 131.328 24.4485 131.485 24.0962C131.524 23.9788 131.564 23.8222 131.564 23.6264V19.5549H133.885V24.2137C133.885 25.1141 133.924 25.8383 133.944 26.406H131.918Z" fill="#2E3191"/>
<path d="M141.281 26.2493C140.868 26.4255 140.101 26.5625 139.216 26.5625C136.816 26.5625 135.282 25.2119 135.282 23.0391C135.282 21.0425 136.777 19.3983 139.531 19.3983C140.14 19.3983 140.809 19.4961 141.281 19.6723L140.908 21.2578C140.632 21.1404 140.219 21.0425 139.629 21.0425C138.409 21.0425 137.623 21.8451 137.642 22.9608C137.642 24.2136 138.547 24.8791 139.668 24.8791C140.219 24.8791 140.632 24.8008 140.986 24.6638L141.281 26.2493Z" fill="#2E3191"/>
<path d="M148.795 24.7421C148.795 25.4076 148.835 26.034 148.894 26.4059H146.809L146.671 25.7208H146.632C146.14 26.2689 145.392 26.5625 144.507 26.5625C143.012 26.5625 142.107 25.5446 142.107 24.468C142.107 22.6868 143.838 21.8255 146.455 21.8451V21.7472C146.455 21.3753 146.238 20.8663 145.097 20.8663C144.33 20.8663 143.543 21.1012 143.052 21.3753L142.619 20.0051C143.13 19.731 144.153 19.3983 145.491 19.3983C147.969 19.3983 148.756 20.7489 148.756 22.354V24.7421H148.795ZM146.553 23.1761C145.333 23.1566 144.409 23.4306 144.409 24.2527C144.409 24.8008 144.802 25.0749 145.314 25.0749C145.884 25.0749 146.356 24.7225 146.514 24.2919C146.553 24.1744 146.553 24.057 146.553 23.92V23.1761V23.1761Z" fill="#2E3191"/>
<path d="M153.084 17.5974V19.5549H154.736V21.1208H153.084V23.6068C153.084 24.4289 153.3 24.8204 153.989 24.8204C154.284 24.8204 154.5 24.8008 154.677 24.7617L154.697 26.3668C154.402 26.4842 153.851 26.5625 153.202 26.5625C152.454 26.5625 151.845 26.308 151.471 25.9557C151.038 25.5446 150.841 24.8987 150.841 23.92V21.1208H149.858V19.5549H150.841V18.0672L153.084 17.5974Z" fill="#2E3191"/>
<path d="M158.454 17.6562C158.454 18.2434 157.962 18.7132 157.215 18.7132C156.487 18.7132 155.995 18.2434 156.015 17.6562C155.995 17.0298 156.487 16.5796 157.234 16.5796C157.962 16.56 158.434 17.0298 158.454 17.6562ZM156.074 26.406V19.5549H158.375V26.406H156.074Z" fill="#2E3191"/>
<path d="M167.542 22.9804C167.542 25.5446 165.417 26.5625 163.568 26.5625C161.464 26.5625 159.792 25.2314 159.792 22.9804C159.792 20.6706 161.562 19.3983 163.745 19.3983C165.988 19.3983 167.542 20.7685 167.542 22.9804ZM162.172 23C162.172 24.0961 162.644 25.0357 163.667 25.0357C164.69 25.0357 165.142 24.1157 165.142 23C165.142 22.0212 164.788 20.9055 163.667 20.9055C162.545 20.9055 162.172 22.0408 162.172 23Z" fill="#2E3191"/>
<path d="M168.978 21.7472C168.978 20.8859 168.939 20.1617 168.919 19.5549H170.925L171.024 20.4944H171.063C171.358 20.0638 172.125 19.3983 173.345 19.3983C174.859 19.3983 176 20.3183 176 22.3344V26.4059H173.699V22.6085C173.699 21.7276 173.365 21.1208 172.538 21.1208C171.909 21.1208 171.515 21.5319 171.378 21.9234C171.319 22.0604 171.279 22.2561 171.279 22.4519V26.4059H168.978V21.7472V21.7472Z" fill="#2E3191"/>
<path d="M69.1687 42.7898C68.4606 43.0051 67.1033 43.3183 65.7657 43.3183C63.897 43.3183 62.5594 42.8876 61.6152 42.0459C60.671 41.2238 60.1596 39.9906 60.1793 38.6204C60.1989 35.4885 62.6578 33.6876 66.0214 33.6876C67.3394 33.6876 68.3622 33.9225 68.854 34.1574L68.3622 35.8604C67.8115 35.6451 67.1033 35.4493 65.9821 35.4493C64.0544 35.4493 62.5987 36.4672 62.5987 38.5029C62.5987 40.4604 63.9167 41.5957 65.8051 41.5957C66.3362 41.5957 66.7689 41.537 66.946 41.4587V39.4817H65.3723V37.8178H69.1884V42.7898H69.1687Z" fill="#2E3191"/>
<path d="M70.9394 38.64C70.9394 37.6221 70.9 36.9761 70.8804 36.3889H72.8671L72.9458 37.6417H73.0048C73.3785 36.6434 74.3031 36.2323 75.0112 36.2323C75.2276 36.2323 75.3259 36.2323 75.503 36.2519V38.268C75.3456 38.2289 75.1489 38.1897 74.8735 38.1897C74.0277 38.1897 73.4375 38.6008 73.2999 39.2663C73.2605 39.4034 73.2605 39.5795 73.2605 39.7361V43.2204H70.9591V38.64H70.9394Z" fill="#2E3191"/>
<path d="M83.9021 39.7949C83.9021 42.3592 81.7777 43.377 79.9286 43.377C77.8239 43.377 76.1519 42.046 76.1519 39.7949C76.1519 37.4851 77.9222 36.2128 80.1057 36.2128C82.3481 36.2128 83.9021 37.583 83.9021 39.7949ZM78.5517 39.8145C78.5517 40.9106 79.0238 41.8502 80.0466 41.8502C81.0695 41.8502 81.5416 40.9302 81.5416 39.8145C81.5416 38.8357 81.1875 37.72 80.0466 37.72C78.9057 37.7396 78.5517 38.8553 78.5517 39.8145Z" fill="#2E3191"/>
<path d="M90.3934 43.2204L90.295 42.2613H90.2557C89.9213 42.7311 89.2328 43.377 87.9346 43.377C86.4396 43.377 85.3184 42.5549 85.3184 40.3821V36.3498H87.6395V40.0298C87.6395 40.9889 87.9542 41.6349 88.8001 41.6349C89.4295 41.6349 89.8033 41.2434 89.9606 40.8911C90 40.7736 90.0393 40.617 90.0393 40.4213V36.3498H92.3211V41.0085C92.3211 41.9089 92.3604 42.6332 92.3801 43.2009H90.3934V43.2204Z" fill="#2E3191"/>
<path d="M94.1703 38.6791C94.1703 37.7787 94.131 37.0153 94.1113 36.3889H96.1177L96.2161 37.348H96.2554C96.8062 36.6238 97.652 36.2323 98.7339 36.2323C100.347 36.2323 101.803 37.5438 101.803 39.7166C101.803 42.2025 100.091 43.3966 98.4389 43.3966C97.534 43.3966 96.8455 43.0638 96.5111 42.6136H96.4718V46H94.1703V38.6791ZM96.4915 40.2842C96.4915 40.4604 96.5111 40.5974 96.5308 40.7344C96.6882 41.3021 97.2193 41.7523 97.8881 41.7523C98.8913 41.7523 99.4814 40.9889 99.4814 39.8144C99.4814 38.7183 98.9503 37.8961 97.9274 37.8961C97.2783 37.8961 96.7078 38.3463 96.5505 38.9727C96.5111 39.0902 96.5111 39.2272 96.5111 39.3446V40.2842H96.4915Z" fill="#2E3191"/>
</g>
<defs>
<filter id="filter0_d_60_296" x="0" y="0" width="180" height="54" filterUnits="userSpaceOnUse" color-interpolation-filters="sRGB">
<feFlood flood-opacity="0" result="BackgroundImageFix"/>
<feColorMatrix in="SourceAlpha" type="matrix" values="0 0 0 0 0 0 0 0 0 0 0 0 0 0 0 0 0 0 127 0" result="hardAlpha"/>
<feOffset dy="4"/>
<feGaussianBlur stdDeviation="2"/>
<feComposite in2="hardAlpha" operator="out"/>
<feColorMatrix type="matrix" values="0 0 0 0 0 0 0 0 0 0 0 0 0 0 0 0 0 0 0.25 0"/>
<feBlend mode="normal" in2="BackgroundImageFix" result="effect1_dropShadow_60_296"/>
<feBlend mode="normal" in="SourceGraphic" in2="effect1_dropShadow_60_296" result="shape"/>
</filter>
<linearGradient id="paint0_linear_60_296" x1="4" y1="23.0023" x2="40.6445" y2="23.0023" gradientUnits="userSpaceOnUse">
<stop stop-color="#00ADEE"/>
<stop offset="0.9663" stop-color="#2E3191"/>
<stop offset="1"/>
</linearGradient>
</defs>
</svg>
