<svg width="109" height="60" viewBox="0 0 109 60" fill="none" xmlns="http://www.w3.org/2000/svg">
<path d="M48.3336 33.8308C47.4669 34.5571 46.2669 34.9532 44.8003 34.9532C43.2669 34.9532 42.0669 34.5571 41.2003 33.8308C40.3336 33.1046 39.9336 31.9823 39.9336 30.3978V23.3997H42.4669V30.3978C42.4669 30.7279 42.4669 30.992 42.5336 31.3221C42.6003 31.5862 42.6669 31.8502 42.8669 32.1143C43.0669 32.3124 43.2669 32.5104 43.6003 32.6425C43.9336 32.7745 44.3336 32.8405 44.8003 32.8405C45.6669 32.8405 46.3336 32.6425 46.6669 32.2464C47.0003 31.8502 47.2003 31.2561 47.2003 30.3978V23.3997H49.6669V30.3978C49.6669 31.9163 49.2003 33.1046 48.3336 33.8308Z" fill="#041E42"/>
<path d="M53.001 23.3997V34.6231H50.7344V23.3997H53.001Z" fill="#041E42"/>
<path d="M56.2672 32.6424C56.3339 32.8405 56.4672 32.9725 56.6672 33.0386C56.8005 33.1706 57.0005 33.2366 57.2005 33.3026C57.4005 33.3687 57.6005 33.3687 57.8672 33.3687C58.0005 33.3687 58.2005 33.3687 58.4005 33.3026C58.6005 33.2366 58.7339 33.2366 58.8672 33.1046C59.0005 33.0386 59.1339 32.9065 59.2005 32.7745C59.2672 32.6424 59.3339 32.5104 59.3339 32.2463C59.3339 31.9162 59.1339 31.6521 58.6672 31.5201C58.2005 31.322 57.6005 31.19 56.8005 30.9919C56.4672 30.9259 56.1339 30.8599 55.8672 30.7279C55.5339 30.6618 55.2672 30.5298 55.0005 30.3317C54.7339 30.1997 54.5339 29.9356 54.4005 29.7376C54.2672 29.4735 54.2005 29.2094 54.2005 28.8133C54.2005 28.2851 54.3339 27.889 54.5339 27.4929C54.7339 27.1628 55.0005 26.8987 55.3339 26.7006C55.6672 26.5026 56.0672 26.3705 56.4672 26.3045C56.8672 26.2385 57.3339 26.1725 57.8005 26.1725C58.2672 26.1725 58.6672 26.2385 59.0672 26.3045C59.4672 26.3705 59.8672 26.5026 60.2005 26.7006C60.5339 26.8987 60.8005 27.1628 61.0005 27.4929C61.2005 27.823 61.3339 28.2191 61.4005 28.7473H59.2005C59.2005 28.2851 59.0005 28.021 58.7339 27.889C58.4672 27.757 58.0672 27.6909 57.6672 27.6909C57.5339 27.6909 57.4005 27.6909 57.2672 27.6909C57.1339 27.6909 57.0005 27.757 56.8672 27.823C56.7339 27.889 56.6672 27.955 56.5339 28.021C56.4672 28.1531 56.4005 28.2851 56.4005 28.4172C56.4005 28.6152 56.4672 28.7473 56.6005 28.8793C56.7339 29.0113 56.9339 29.0774 57.2005 29.2094C57.4672 29.2754 57.7339 29.3414 58.0005 29.4075C58.3339 29.4735 58.6005 29.5395 58.9339 29.6055C59.2672 29.6715 59.6005 29.7376 59.8672 29.8696C60.2005 30.0016 60.4672 30.1337 60.7339 30.2657C61.0005 30.4638 61.2005 30.6618 61.3339 30.9259C61.4672 31.19 61.5339 31.5201 61.5339 31.8502C61.5339 32.3784 61.4005 32.8405 61.2005 33.1706C61.0005 33.5667 60.6672 33.8308 60.3339 34.0289C60.0005 34.2269 59.6005 34.425 59.1339 34.491C58.6672 34.557 58.2005 34.623 57.7339 34.623C57.2672 34.623 56.8005 34.557 56.3339 34.491C55.8672 34.425 55.4672 34.2269 55.1339 34.0289C54.8005 33.8308 54.4672 33.5007 54.2672 33.1706C54.0672 32.8405 53.9339 32.3784 53.8672 31.7842H56.0005C56.0672 32.2463 56.1339 32.5104 56.2672 32.6424Z" fill="#041E42"/>
<path d="M62.3342 24.0598H64.5342V26.5026H66.2009V28.021H64.5342V32.0483C64.5342 32.4444 64.6009 32.7085 64.7342 32.7745C64.8676 32.9065 65.1342 32.9725 65.4676 32.9725C65.6009 32.9725 65.7342 32.9725 65.8009 32.9725C65.9342 32.9725 66.0009 32.9725 66.1342 32.9065V34.623C65.9342 34.623 65.7342 34.6891 65.4676 34.6891C65.2676 34.6891 65.0009 34.6891 64.8009 34.6891C64.4676 34.6891 64.1342 34.6891 63.8009 34.623C63.4676 34.557 63.2009 34.491 63.0009 34.359C62.7342 34.2269 62.6009 34.0289 62.4676 33.7648C62.3342 33.5007 62.2676 33.1706 62.2676 32.7745L62.3342 24.0598Z" fill="#041E42"/>
<path d="M69.2004 32.7085C69.5337 33.0386 70.0004 33.1706 70.667 33.1706C71.1337 33.1706 71.5337 33.0386 71.867 32.8405C72.2004 32.6424 72.4004 32.3784 72.467 32.1143H74.467C74.1337 33.1046 73.667 33.7648 73.0004 34.2269C72.3337 34.623 71.5337 34.8871 70.6004 34.8871C69.9337 34.8871 69.4004 34.7551 68.8671 34.557C68.3337 34.359 67.9337 34.0289 67.5337 33.6988C67.2004 33.3026 66.8671 32.8405 66.6671 32.3123C66.4671 31.7842 66.4004 31.19 66.4004 30.5958C66.4004 30.0017 66.5337 29.4075 66.7337 28.8793C66.9337 28.3512 67.2004 27.889 67.6004 27.4929C68.0004 27.0968 68.4004 26.8327 68.9337 26.5686C69.467 26.3706 70.0004 26.2385 70.667 26.2385C71.3337 26.2385 72.0004 26.3706 72.467 26.6346C73.0004 26.8987 73.4004 27.2288 73.7337 27.691C74.067 28.1531 74.3337 28.6813 74.467 29.2094C74.6004 29.8036 74.667 30.3978 74.6004 30.9919H68.667C68.667 31.8502 68.8671 32.3784 69.2004 32.7085ZM71.7337 28.4172C71.467 28.1531 71.067 27.955 70.5337 27.955C70.2004 27.955 69.867 28.0211 69.667 28.1531C69.4004 28.2851 69.2671 28.4172 69.0671 28.6152C68.9337 28.8133 68.8004 29.0114 68.7337 29.2094C68.6671 29.4075 68.667 29.6055 68.6004 29.7376H72.267C72.2004 29.1434 72.0004 28.7473 71.7337 28.4172Z" fill="#041E42"/>
<path d="M77.4681 26.5026V28.0211C77.6014 27.757 77.7348 27.5589 77.8681 27.2949C78.0681 27.0968 78.2681 26.8987 78.4681 26.7667C78.7348 26.6347 78.9348 26.5026 79.2014 26.4366C79.4681 26.3706 79.7348 26.3046 80.0014 26.3046C80.1348 26.3046 80.3348 26.3046 80.4681 26.3706V28.4832C80.3348 28.4832 80.2681 28.4172 80.0681 28.4172C79.9348 28.4172 79.8014 28.4172 79.6681 28.4172C79.2681 28.4172 78.9348 28.4832 78.6014 28.6153C78.3348 28.7473 78.0681 28.9454 77.9348 29.1434C77.7348 29.4075 77.6681 29.6716 77.5348 30.0017C77.4681 30.3318 77.4014 30.6619 77.4014 31.058V34.7551H75.1348V26.5026H77.4681Z" fill="#041E42"/>
<path d="M48.3336 46.5068C47.4669 47.233 46.2669 47.6291 44.8003 47.6291C43.2669 47.6291 42.0669 47.233 41.2003 46.5068C40.3336 45.7805 39.9336 44.6582 39.9336 43.0737V36.1416H42.4669V43.1397C42.4669 43.4698 42.4669 43.7339 42.5336 44.064C42.6003 44.3281 42.6669 44.5922 42.8669 44.8562C43.0669 45.0543 43.2669 45.2524 43.6003 45.3844C43.9336 45.5165 44.3336 45.5825 44.8003 45.5825C45.6669 45.5825 46.3336 45.3844 46.6669 44.9883C47.0003 44.5922 47.2003 43.998 47.2003 43.1397V36.1416H49.6669V43.1397C49.6669 44.6582 49.2002 45.7805 48.3336 46.5068Z" fill="#041E42"/>
<path d="M52.8677 39.2446V40.3669H52.9344C53.201 39.9048 53.601 39.5746 54.0677 39.3106C54.5344 39.1125 55.001 38.9805 55.4677 38.9805C56.0677 38.9805 56.601 39.0465 56.9344 39.2446C57.3344 39.3766 57.601 39.6407 57.8677 39.9048C58.0677 40.1688 58.2677 40.565 58.3344 40.9611C58.401 41.3572 58.4677 41.8193 58.4677 42.3475V47.365H56.201V42.7436C56.201 42.0834 56.0677 41.5553 55.8677 41.2252C55.6677 40.8951 55.2677 40.697 54.7344 40.697C54.1344 40.697 53.6677 40.8951 53.401 41.2252C53.1344 41.5553 53.001 42.1494 53.001 43.0077V47.299H50.7344V39.2446H52.8677Z" fill="#041E42"/>
<path d="M59.5332 37.9902V36.1416H61.7999V37.9902H59.5332ZM61.7999 39.2445V47.365H59.5332V39.2445H61.7999Z" fill="#041E42"/>
<path d="M65.134 47.365L62.334 39.2445H64.734L66.4673 44.7902L68.2007 39.2445H70.4673L67.6673 47.365H65.134Z" fill="#041E42"/>
<path d="M72.8664 45.4505C73.1997 45.7806 73.6664 45.9126 74.3331 45.9126C74.7997 45.9126 75.1997 45.7806 75.5331 45.5825C75.8664 45.3844 76.0664 45.1204 76.1331 44.8563H78.1331C77.7997 45.8466 77.3331 46.5068 76.6664 46.9689C75.9997 47.365 75.1997 47.6291 74.2664 47.6291C73.5997 47.6291 73.0664 47.4971 72.5331 47.299C71.9997 47.101 71.5997 46.7709 71.1997 46.4408C70.8664 46.0446 70.5331 45.5825 70.3331 45.1204C70.1331 44.5922 70.0664 43.998 70.0664 43.4038C70.0664 42.8097 70.1331 42.2155 70.3997 41.6873C70.5997 41.1592 70.8664 40.697 71.2664 40.3009C71.6664 39.9048 72.0664 39.6407 72.5997 39.3766C73.1331 39.1785 73.6664 39.0465 74.3331 39.0465C74.9997 39.0465 75.6664 39.1785 76.1331 39.4426C76.6664 39.7067 77.0664 40.0368 77.3997 40.499C77.7331 40.9611 77.9997 41.4893 78.1331 42.0174C78.2664 42.6116 78.3331 43.2058 78.2664 43.8H72.3331C72.3331 44.5922 72.5331 45.1204 72.8664 45.4505ZM75.3997 41.1592C75.1331 40.8951 74.7331 40.697 74.1331 40.697C73.7997 40.697 73.4664 40.763 73.2664 40.8951C72.9997 41.0271 72.8664 41.1592 72.6664 41.3572C72.5331 41.5553 72.3997 41.7533 72.3331 41.9514C72.2664 42.1495 72.2664 42.3475 72.1997 42.4796H75.8664C75.8664 41.8854 75.6664 41.4232 75.3997 41.1592Z" fill="#041E42"/>
<path d="M80.9329 39.2446V40.763C81.0663 40.4989 81.1996 40.3009 81.3329 40.0368C81.5329 39.8387 81.7329 39.6407 81.9329 39.5086C82.1996 39.3766 82.3996 39.2446 82.6663 39.1785C82.933 39.1125 83.1996 39.0465 83.4663 39.0465C83.5996 39.0465 83.7996 39.0465 83.933 39.1125V41.2252C83.7996 41.2252 83.733 41.1591 83.533 41.1591C83.3996 41.1591 83.2663 41.1591 83.133 41.1591C82.733 41.1591 82.3996 41.2252 82.0663 41.3572C81.7996 41.4892 81.533 41.6873 81.3996 41.8854C81.1996 42.1494 81.0663 42.4135 80.9996 42.7436C80.9329 43.0737 80.8663 43.4038 80.8663 43.8V47.4971H78.5996V39.2446H80.9329Z" fill="#041E42"/>
<path d="M86.7337 45.3844C86.8004 45.5824 86.9337 45.7145 87.1337 45.7805C87.267 45.9125 87.467 45.9786 87.667 46.0446C87.867 46.1106 88.067 46.1106 88.3337 46.1106C88.467 46.1106 88.667 46.1106 88.867 46.0446C89.067 45.9786 89.2004 45.9786 89.3337 45.8465C89.467 45.7805 89.6004 45.6485 89.667 45.5164C89.7337 45.3844 89.8004 45.2523 89.8004 44.9883C89.8004 44.6582 89.6004 44.3941 89.1337 44.262C88.667 44.064 88.0671 43.932 87.2671 43.7339C86.9337 43.6679 86.6004 43.6018 86.3337 43.4698C86.0004 43.4038 85.7337 43.2718 85.467 43.0737C85.2004 42.9417 85.0004 42.6776 84.8671 42.4795C84.7337 42.2154 84.6671 41.9513 84.6671 41.5552C84.6671 41.0271 84.8004 40.6309 85.0004 40.2348C85.2004 39.9047 85.467 39.6406 85.8004 39.4426C86.1337 39.2445 86.5337 39.1125 86.9337 39.0465C87.3337 38.9804 87.8004 38.9144 88.2671 38.9144C88.7337 38.9144 89.1337 38.9804 89.5337 39.0465C89.9337 39.1125 90.3337 39.2445 90.667 39.4426C91.0004 39.6406 91.267 39.9047 91.467 40.2348C91.667 40.5649 91.8004 40.961 91.867 41.4892H89.7337C89.7337 41.0271 89.5337 40.763 89.2671 40.6309C89.0004 40.4989 88.6004 40.4329 88.2004 40.4329C88.0671 40.4329 87.9337 40.4329 87.8004 40.4329C87.667 40.4329 87.5337 40.4989 87.4004 40.5649C87.2671 40.6309 87.2004 40.697 87.0671 40.763C87.0004 40.895 86.9337 41.0271 86.9337 41.1591C86.9337 41.3572 87.0004 41.5552 87.1337 41.6212C87.267 41.7533 87.4671 41.8193 87.7337 41.9513C88.0004 42.0174 88.2671 42.0834 88.5337 42.1494C88.867 42.2154 89.1337 42.2814 89.467 42.3475C89.8004 42.4135 90.1337 42.4795 90.4004 42.6115C90.7337 42.7436 91.0004 42.8756 91.2671 43.0077C91.5337 43.2057 91.7337 43.4038 91.867 43.6679C92.0004 43.9319 92.067 44.262 92.067 44.5921C92.067 45.1203 91.9337 45.5824 91.7337 45.9125C91.5337 46.3087 91.2004 46.5727 90.867 46.7708C90.5337 46.9689 90.1337 47.1669 89.667 47.2329C89.2004 47.299 88.7337 47.365 88.2671 47.365C87.8004 47.365 87.3337 47.299 86.8671 47.2329C86.4004 47.1669 86.0004 46.9689 85.6671 46.7708C85.3337 46.5727 85.0004 46.2426 84.8004 45.9125C84.6004 45.5824 84.4671 45.1203 84.4004 44.5261H86.5337C86.6004 44.9883 86.6671 45.1863 86.7337 45.3844Z" fill="#041E42"/>
<path d="M92.8008 37.9902V36.1416H95.0674V37.9902H92.8008ZM95.0674 39.2445V47.365H92.8008V39.2445H95.0674Z" fill="#041E42"/>
<path d="M96.1348 36.8018H98.4014V39.2445H100.068V40.763H98.4014V44.7902C98.4014 45.1863 98.4681 45.4504 98.6014 45.5164C98.7348 45.6484 99.0014 45.7145 99.3348 45.7145C99.4681 45.7145 99.6014 45.7145 99.6681 45.7145C99.8014 45.7145 99.8681 45.7144 100.001 45.6484V47.365C99.8014 47.365 99.6014 47.431 99.3348 47.431C99.0681 47.431 98.8681 47.431 98.6681 47.431C98.3348 47.431 98.0014 47.431 97.6681 47.365C97.3348 47.2989 97.0681 47.2329 96.8681 47.1009C96.6014 46.9688 96.4681 46.7708 96.3348 46.5067C96.2014 46.2426 96.1348 45.9125 96.1348 45.5164V36.8018Z" fill="#041E42"/>
<path d="M104.201 49.8077C103.734 50.0718 103.134 50.2038 102.401 50.2038C102.134 50.2038 101.934 50.2038 101.734 50.2038C101.534 50.2038 101.268 50.1378 101.068 50.1378V48.2892C101.268 48.2892 101.468 48.3553 101.734 48.3553C101.934 48.3553 102.201 48.3553 102.401 48.3553C102.668 48.3553 102.934 48.2232 103.068 48.0252C103.201 47.8271 103.268 47.629 103.268 47.365C103.268 47.1669 103.268 47.0349 103.201 46.8368L100.268 39.2445H102.668L104.534 44.7902L106.334 39.2445H108.668L105.201 48.4213C105.001 49.0815 104.668 49.5436 104.201 49.8077Z" fill="#041E42"/>
<path d="M39.9336 0.226685H34.9336C34.9336 0.226685 40.2669 0.820861 43.6669 7.68689H48.6669C45.2669 0.820861 39.9336 0.226685 39.9336 0.226685Z" fill="#041E42"/>
<path d="M48.7335 7.68689C50.0001 4.78203 51.0001 1.21698 56.1335 0.226685H50.0668C48.8001 0.424743 47.7335 0.952899 46.8668 1.48106C46.7335 1.54707 46.6001 1.67911 46.4668 1.74513C46.4668 1.74513 49.0001 3.85776 48.7335 7.68689Z" fill="#041E42"/>
<path d="M21 11.7802V47.2989C21 50.1378 21.8667 52.4485 23.4667 53.9669C25.4 55.6174 29.4 56.7398 33.2667 56.7398C35.8 56.7398 38.1333 56.4097 40.0667 55.7495C41.8667 55.1553 43.3333 54.231 44.4667 53.1087C44.4667 53.1087 44.5333 53.0427 44.6 53.0427V53.1747C44.1333 53.7689 43 55.0893 40.2 56.6077C36.4 58.7204 32.6 59.6447 27.3333 59.6447C18.2 59.5786 9.8 56.4097 5.86667 51.4582C4.33333 49.4776 3.66667 47.629 3.66667 43.7999V5.64032C3.66667 3.19758 2.13333 1.15096 0 0.226685C0 0.226685 9.06667 0.226685 11.4667 0.226685C14.4667 0.226685 21 2.86748 21 11.7802Z" fill="#041E42"/>
</svg>
