<svg width="334" height="132" viewBox="0 0 334 132" fill="none" xmlns="http://www.w3.org/2000/svg">
<path d="M15.657 14.6567L11.414 18.8997C11.2284 19.0854 11.0081 19.2328 10.7656 19.3333C10.523 19.4339 10.2631 19.4856 10.0005 19.4856C9.73796 19.4856 9.47798 19.4339 9.23544 19.3333C8.99291 19.2328 8.77256 19.0854 8.587 18.8997L4.343 14.6567C3.22422 13.5379 2.46234 12.1124 2.15369 10.5606C1.84504 9.00873 2.00349 7.40022 2.60901 5.93844C3.21452 4.47665 4.2399 3.22725 5.55548 2.34821C6.87107 1.46918 8.41777 1 10 1C11.5822 1 13.1289 1.46918 14.4445 2.34821C15.7601 3.22725 16.7855 4.47665 17.391 5.93844C17.9965 7.40022 18.155 9.00873 17.8463 10.5606C17.5377 12.1124 16.7758 13.5379 15.657 14.6567V14.6567Z" stroke="white" stroke-linecap="round" stroke-linejoin="round"/>
<path d="M13 9C13 9.79565 12.6839 10.5587 12.1213 11.1213C11.5587 11.6839 10.7956 12 10 12C9.20435 12 8.44129 11.6839 7.87868 11.1213C7.31607 10.5587 7 9.79565 7 9C7 8.20435 7.31607 7.44129 7.87868 6.87868C8.44129 6.31607 9.20435 6 10 6C10.7956 6 11.5587 6.31607 12.1213 6.87868C12.6839 7.44129 13 8.20435 13 9V9Z" stroke="white" stroke-linecap="round" stroke-linejoin="round"/>
<path d="M33.054 17V16.1051L36.4148 12.4261C36.8092 11.9953 37.134 11.6207 37.3892 11.3026C37.6444 10.9811 37.8333 10.6795 37.956 10.3977C38.0819 10.1127 38.1449 9.81439 38.1449 9.50284C38.1449 9.14489 38.0587 8.83499 37.8864 8.57315C37.7173 8.31132 37.4853 8.10914 37.1903 7.96662C36.8954 7.8241 36.5639 7.75284 36.196 7.75284C35.8049 7.75284 35.4635 7.83404 35.1719 7.99645C34.8835 8.15554 34.6598 8.37926 34.5007 8.66761C34.3449 8.95597 34.267 9.29403 34.267 9.68182H33.0938C33.0938 9.08523 33.2313 8.56155 33.5064 8.1108C33.7815 7.66004 34.156 7.30871 34.63 7.05682C35.1072 6.80492 35.6425 6.67898 36.2358 6.67898C36.8324 6.67898 37.361 6.80492 37.8217 7.05682C38.2824 7.30871 38.6437 7.64844 38.9055 8.07599C39.1674 8.50355 39.2983 8.97917 39.2983 9.50284C39.2983 9.87737 39.2304 10.2436 39.0945 10.6016C38.9619 10.9562 38.7299 11.3523 38.3984 11.7898C38.0703 12.224 37.6146 12.7543 37.0312 13.3807L34.7443 15.8267V15.9062H39.4773V17H33.054ZM45.1101 6.81818V17H43.8771V8.1108H43.8175L41.3317 9.76136V8.50852L43.8771 6.81818H45.1101ZM51.6577 6.34091L48.3764 18.5312H47.3026L50.5838 6.34091H51.6577ZM52.79 14.9119V13.8977L57.2644 6.81818H58.0002V8.3892H57.503L54.1223 13.7386V13.8182H60.1479V14.9119H52.79ZM57.5826 17V14.6037V14.1314V6.81818H58.7559V17H57.5826ZM65.6303 6.34091L62.3491 18.5312H61.2752L64.5565 6.34091H65.6303ZM67.5978 17H66.3052L70.0439 6.81818H71.3166L75.0552 17H73.7626L70.72 8.42898H70.6404L67.5978 17ZM68.0751 13.0227H73.2853V14.1165H68.0751V13.0227ZM78.2321 15.608L78.1525 16.1449C78.0962 16.5227 78.01 16.9271 77.894 17.358C77.7813 17.7888 77.6636 18.1948 77.541 18.576C77.4184 18.9571 77.3173 19.2604 77.2377 19.4858H76.3429C76.3859 19.2737 76.4423 18.9936 76.5119 18.6456C76.5815 18.2976 76.6511 17.9081 76.7207 17.4773C76.7936 17.0497 76.8533 16.6122 76.8997 16.1648L76.9593 15.608H78.2321ZM88.4002 6.81818H89.6332V14.0966C89.6332 14.7462 89.5138 15.2981 89.2752 15.7521C89.0366 16.2062 88.7002 16.5509 88.266 16.7862C87.8318 17.0215 87.3197 17.1392 86.7298 17.1392C86.1729 17.1392 85.6774 17.0381 85.2433 16.8359C84.8091 16.6304 84.4677 16.3388 84.2191 15.9609C83.9705 15.5831 83.8462 15.134 83.8462 14.6136H85.0593C85.0593 14.902 85.1306 15.1539 85.2731 15.3693C85.4189 15.5814 85.6178 15.7472 85.8697 15.8665C86.1216 15.9858 86.4083 16.0455 86.7298 16.0455C87.0844 16.0455 87.386 15.9709 87.6346 15.8217C87.8832 15.6726 88.0721 15.4538 88.2013 15.1655C88.3339 14.8738 88.4002 14.5175 88.4002 14.0966V6.81818ZM91.945 17V9.36364H93.1183V17H91.945ZM92.5415 8.09091C92.3129 8.09091 92.1156 8.01302 91.9499 7.85724C91.7875 7.70147 91.7063 7.5142 91.7063 7.29545C91.7063 7.0767 91.7875 6.88944 91.9499 6.73366C92.1156 6.57789 92.3129 6.5 92.5415 6.5C92.7702 6.5 92.9658 6.57789 93.1282 6.73366C93.2939 6.88944 93.3768 7.0767 93.3768 7.29545C93.3768 7.5142 93.2939 7.70147 93.1282 7.85724C92.9658 8.01302 92.7702 8.09091 92.5415 8.09091ZM98.3496 20.0227C97.7828 20.0227 97.2956 19.9498 96.888 19.804C96.4803 19.6615 96.1406 19.4725 95.8688 19.2372C95.6003 19.0052 95.3865 18.7566 95.2275 18.4915L96.1621 17.8352C96.2682 17.9744 96.4024 18.1335 96.5648 18.3125C96.7272 18.4948 96.9493 18.6522 97.231 18.7848C97.516 18.9207 97.8889 18.9886 98.3496 18.9886C98.9661 18.9886 99.4748 18.8395 99.8759 18.5412C100.277 18.2429 100.477 17.7756 100.477 17.1392V15.5881H100.378C100.292 15.7273 100.169 15.8996 100.01 16.1051C99.8543 16.3073 99.629 16.4879 99.334 16.647C99.0423 16.8028 98.6479 16.8807 98.1507 16.8807C97.5343 16.8807 96.9808 16.7348 96.4902 16.4432C96.003 16.1515 95.6169 15.7273 95.3319 15.1705C95.0501 14.6136 94.9093 13.9375 94.9093 13.142C94.9093 12.3598 95.0468 11.6787 95.3219 11.0987C95.597 10.5154 95.9798 10.0646 96.4703 9.74645C96.9609 9.42495 97.5276 9.2642 98.1706 9.2642C98.6678 9.2642 99.0622 9.34706 99.3539 9.51278C99.6489 9.67519 99.8742 9.8608 100.03 10.0696C100.189 10.2751 100.312 10.4441 100.398 10.5767H100.517V9.36364H101.651V17.2188C101.651 17.875 101.502 18.4086 101.203 18.8196C100.908 19.2339 100.511 19.5372 100.01 19.7294C99.513 19.925 98.9595 20.0227 98.3496 20.0227ZM98.3098 15.8267C98.7805 15.8267 99.1782 15.719 99.503 15.5036C99.8278 15.2881 100.075 14.9782 100.244 14.5739C100.413 14.1695 100.497 13.6856 100.497 13.1222C100.497 12.572 100.414 12.0864 100.249 11.6655C100.083 11.2446 99.8378 10.9148 99.513 10.6761C99.1882 10.4375 98.7871 10.3182 98.3098 10.3182C97.8127 10.3182 97.3984 10.4441 97.0669 10.696C96.7388 10.9479 96.4919 11.286 96.3262 11.7102C96.1638 12.1345 96.0826 12.6051 96.0826 13.1222C96.0826 13.6525 96.1654 14.1214 96.3311 14.5291C96.5002 14.9335 96.7488 15.2517 97.0769 15.4837C97.4083 15.7124 97.8193 15.8267 98.3098 15.8267ZM106.046 17.179C105.562 17.179 105.123 17.0878 104.728 16.9055C104.334 16.7199 104.021 16.4531 103.789 16.1051C103.557 15.7538 103.441 15.3295 103.441 14.8324C103.441 14.3949 103.527 14.0402 103.699 13.7685C103.871 13.4934 104.102 13.2779 104.39 13.1222C104.678 12.9664 104.997 12.8504 105.345 12.7741C105.696 12.6946 106.049 12.6316 106.404 12.5852C106.868 12.5256 107.244 12.4808 107.532 12.451C107.824 12.4179 108.036 12.3632 108.169 12.2869C108.304 12.2107 108.372 12.0781 108.372 11.8892V11.8494C108.372 11.3589 108.238 10.9777 107.97 10.706C107.704 10.4342 107.302 10.2983 106.762 10.2983C106.201 10.2983 105.762 10.4209 105.444 10.6662C105.126 10.9115 104.902 11.1733 104.773 11.4517L103.659 11.054C103.858 10.59 104.123 10.2287 104.455 9.97017C104.789 9.70833 105.154 9.52604 105.548 9.4233C105.946 9.31723 106.337 9.2642 106.722 9.2642C106.967 9.2642 107.249 9.29403 107.567 9.35369C107.888 9.41004 108.198 9.5277 108.497 9.70668C108.798 9.88565 109.048 10.1558 109.247 10.517C109.446 10.8783 109.546 11.3622 109.546 11.9688V17H108.372V15.9659H108.313C108.233 16.1316 108.101 16.3089 107.915 16.4979C107.729 16.6868 107.482 16.8475 107.174 16.9801C106.866 17.1127 106.49 17.179 106.046 17.179ZM106.225 16.125C106.689 16.125 107.08 16.0339 107.398 15.8516C107.719 15.6693 107.961 15.4339 108.124 15.1456C108.289 14.8572 108.372 14.554 108.372 14.2358V13.1619C108.323 13.2216 108.213 13.2763 108.044 13.326C107.878 13.3724 107.686 13.4138 107.468 13.4503C107.252 13.4834 107.042 13.5133 106.836 13.5398C106.634 13.563 106.47 13.5829 106.344 13.5994C106.039 13.6392 105.754 13.7038 105.489 13.7933C105.227 13.8795 105.015 14.0104 104.852 14.1861C104.693 14.3584 104.614 14.5937 104.614 14.892C104.614 15.2997 104.765 15.608 105.066 15.8168C105.371 16.0223 105.757 16.125 106.225 16.125ZM115.008 9.36364V10.358H111.051V9.36364H115.008ZM112.204 7.53409H113.377V14.8125C113.377 15.1439 113.426 15.3925 113.522 15.5582C113.621 15.7206 113.747 15.83 113.9 15.8864C114.055 15.9394 114.219 15.9659 114.392 15.9659C114.521 15.9659 114.627 15.9593 114.71 15.946C114.793 15.9295 114.859 15.9162 114.909 15.9062L115.147 16.9602C115.068 16.9901 114.957 17.0199 114.814 17.0497C114.672 17.0829 114.491 17.0994 114.272 17.0994C113.941 17.0994 113.616 17.0282 113.298 16.8857C112.983 16.7431 112.721 16.526 112.512 16.2344C112.307 15.9427 112.204 15.5748 112.204 15.1307V7.53409ZM119.793 17.1591C119.104 17.1591 118.499 16.995 117.979 16.6669C117.462 16.3388 117.057 15.8797 116.766 15.2898C116.477 14.6998 116.333 14.0104 116.333 13.2216C116.333 12.4261 116.477 11.7318 116.766 11.1385C117.057 10.5452 117.462 10.0845 117.979 9.75639C118.499 9.42827 119.104 9.2642 119.793 9.2642C120.483 9.2642 121.086 9.42827 121.603 9.75639C122.123 10.0845 122.528 10.5452 122.816 11.1385C123.108 11.7318 123.254 12.4261 123.254 13.2216C123.254 14.0104 123.108 14.6998 122.816 15.2898C122.528 15.8797 122.123 16.3388 121.603 16.6669C121.086 16.995 120.483 17.1591 119.793 17.1591ZM119.793 16.1051C120.317 16.1051 120.748 15.9709 121.086 15.7024C121.424 15.4339 121.674 15.081 121.837 14.6435C121.999 14.206 122.08 13.732 122.08 13.2216C122.08 12.7112 121.999 12.2356 121.837 11.7947C121.674 11.3539 121.424 10.9976 121.086 10.7259C120.748 10.4541 120.317 10.3182 119.793 10.3182C119.27 10.3182 118.839 10.4541 118.501 10.7259C118.163 10.9976 117.912 11.3539 117.75 11.7947C117.588 12.2356 117.506 12.7112 117.506 13.2216C117.506 13.732 117.588 14.206 117.75 14.6435C117.912 15.081 118.163 15.4339 118.501 15.7024C118.839 15.9709 119.27 16.1051 119.793 16.1051ZM126.218 6.81818V17H125.045V6.81818H126.218ZM130.614 17.179C130.13 17.179 129.691 17.0878 129.297 16.9055C128.902 16.7199 128.589 16.4531 128.357 16.1051C128.125 15.7538 128.009 15.3295 128.009 14.8324C128.009 14.3949 128.095 14.0402 128.267 13.7685C128.44 13.4934 128.67 13.2779 128.958 13.1222C129.247 12.9664 129.565 12.8504 129.913 12.7741C130.264 12.6946 130.617 12.6316 130.972 12.5852C131.436 12.5256 131.812 12.4808 132.1 12.451C132.392 12.4179 132.604 12.3632 132.737 12.2869C132.873 12.2107 132.941 12.0781 132.941 11.8892V11.8494C132.941 11.3589 132.806 10.9777 132.538 10.706C132.273 10.4342 131.87 10.2983 131.33 10.2983C130.77 10.2983 130.331 10.4209 130.012 10.6662C129.694 10.9115 129.471 11.1733 129.341 11.4517L128.228 11.054C128.426 10.59 128.692 10.2287 129.023 9.97017C129.358 9.70833 129.722 9.52604 130.117 9.4233C130.515 9.31723 130.906 9.2642 131.29 9.2642C131.535 9.2642 131.817 9.29403 132.135 9.35369C132.457 9.41004 132.767 9.5277 133.065 9.70668C133.367 9.88565 133.617 10.1558 133.816 10.517C134.015 10.8783 134.114 11.3622 134.114 11.9688V17H132.941V15.9659H132.881C132.801 16.1316 132.669 16.3089 132.483 16.4979C132.298 16.6868 132.051 16.8475 131.743 16.9801C131.434 17.1127 131.058 17.179 130.614 17.179ZM130.793 16.125C131.257 16.125 131.648 16.0339 131.966 15.8516C132.288 15.6693 132.53 15.4339 132.692 15.1456C132.858 14.8572 132.941 14.554 132.941 14.2358V13.1619C132.891 13.2216 132.782 13.2763 132.613 13.326C132.447 13.3724 132.255 13.4138 132.036 13.4503C131.82 13.4834 131.61 13.5133 131.404 13.5398C131.202 13.563 131.038 13.5829 130.912 13.5994C130.607 13.6392 130.322 13.7038 130.057 13.7933C129.795 13.8795 129.583 14.0104 129.421 14.1861C129.262 14.3584 129.182 14.5937 129.182 14.892C129.182 15.2997 129.333 15.608 129.635 15.8168C129.94 16.0223 130.326 16.125 130.793 16.125ZM138.006 15.608L137.926 16.1449C137.87 16.5227 137.783 16.9271 137.667 17.358C137.555 17.7888 137.437 18.1948 137.314 18.576C137.192 18.9571 137.091 19.2604 137.011 19.4858H136.116C136.159 19.2737 136.216 18.9936 136.285 18.6456C136.355 18.2976 136.425 17.9081 136.494 17.4773C136.567 17.0497 136.627 16.6122 136.673 16.1648L136.733 15.608H138.006ZM143.48 17H140.338V6.81818H143.62C144.607 6.81818 145.453 7.02202 146.155 7.42969C146.858 7.83404 147.396 8.41572 147.771 9.17472C148.145 9.9304 148.333 10.8352 148.333 11.8892C148.333 12.9498 148.144 13.8629 147.766 14.6286C147.388 15.3909 146.838 15.9775 146.115 16.3885C145.393 16.7962 144.515 17 143.48 17ZM141.571 15.9062H143.401C144.243 15.9062 144.94 15.7438 145.494 15.419C146.047 15.0942 146.46 14.6319 146.732 14.032C147.004 13.4321 147.14 12.7178 147.14 11.8892C147.14 11.0672 147.005 10.3596 146.737 9.76633C146.468 9.16974 146.067 8.71236 145.534 8.39418C145 8.07268 144.336 7.91193 143.54 7.91193H141.571V15.9062ZM151.415 12.4062V17H150.242V6.81818H151.415V10.5568H151.515C151.694 10.1624 151.962 9.84919 152.32 9.61719C152.681 9.38187 153.162 9.2642 153.762 9.2642C154.282 9.2642 154.738 9.36861 155.129 9.57741C155.52 9.78291 155.823 10.0994 156.039 10.527C156.257 10.9512 156.367 11.4915 156.367 12.1477V17H155.194V12.2273C155.194 11.6207 155.036 11.1518 154.721 10.8203C154.41 10.4856 153.977 10.3182 153.424 10.3182C153.039 10.3182 152.694 10.3994 152.39 10.5618C152.088 10.7242 151.849 10.9612 151.674 11.2727C151.501 11.5843 151.415 11.9621 151.415 12.4062ZM160.76 17.179C160.277 17.179 159.837 17.0878 159.443 16.9055C159.049 16.7199 158.735 16.4531 158.503 16.1051C158.271 15.7538 158.155 15.3295 158.155 14.8324C158.155 14.3949 158.242 14.0402 158.414 13.7685C158.586 13.4934 158.817 13.2779 159.105 13.1222C159.393 12.9664 159.711 12.8504 160.059 12.7741C160.411 12.6946 160.764 12.6316 161.118 12.5852C161.582 12.5256 161.959 12.4808 162.247 12.451C162.539 12.4179 162.751 12.3632 162.883 12.2869C163.019 12.2107 163.087 12.0781 163.087 11.8892V11.8494C163.087 11.3589 162.953 10.9777 162.684 10.706C162.419 10.4342 162.017 10.2983 161.476 10.2983C160.916 10.2983 160.477 10.4209 160.159 10.6662C159.841 10.9115 159.617 11.1733 159.488 11.4517L158.374 11.054C158.573 10.59 158.838 10.2287 159.17 9.97017C159.504 9.70833 159.869 9.52604 160.263 9.4233C160.661 9.31723 161.052 9.2642 161.437 9.2642C161.682 9.2642 161.964 9.29403 162.282 9.35369C162.603 9.41004 162.913 9.5277 163.211 9.70668C163.513 9.88565 163.763 10.1558 163.962 10.517C164.161 10.8783 164.26 11.3622 164.26 11.9688V17H163.087V15.9659H163.028C162.948 16.1316 162.815 16.3089 162.63 16.4979C162.444 16.6868 162.197 16.8475 161.889 16.9801C161.581 17.1127 161.205 17.179 160.76 17.179ZM160.939 16.125C161.403 16.125 161.795 16.0339 162.113 15.8516C162.434 15.6693 162.676 15.4339 162.839 15.1456C163.004 14.8572 163.087 14.554 163.087 14.2358V13.1619C163.037 13.2216 162.928 13.2763 162.759 13.326C162.593 13.3724 162.401 13.4138 162.182 13.4503C161.967 13.4834 161.756 13.5133 161.551 13.5398C161.349 13.563 161.185 13.5829 161.059 13.5994C160.754 13.6392 160.469 13.7038 160.204 13.7933C159.942 13.8795 159.73 14.0104 159.567 14.1861C159.408 14.3584 159.329 14.5937 159.329 14.892C159.329 15.2997 159.479 15.608 159.781 15.8168C160.086 16.0223 160.472 16.125 160.939 16.125ZM167.575 12.4062V17H166.402V9.36364H167.536V10.5568H167.635C167.814 10.169 168.086 9.85748 168.45 9.62216C168.815 9.38352 169.286 9.2642 169.862 9.2642C170.379 9.2642 170.832 9.37027 171.219 9.58239C171.607 9.79119 171.909 10.1094 172.124 10.5369C172.34 10.9612 172.447 11.4981 172.447 12.1477V17H171.274V12.2273C171.274 11.6274 171.118 11.16 170.807 10.8253C170.495 10.4872 170.068 10.3182 169.524 10.3182C169.15 10.3182 168.815 10.3994 168.52 10.5618C168.228 10.7242 167.998 10.9612 167.829 11.2727C167.66 11.5843 167.575 11.9621 167.575 12.4062ZM174.591 17V9.36364H175.725V10.5568H175.824C175.983 10.1491 176.24 9.83262 176.595 9.60724C176.95 9.37855 177.376 9.2642 177.873 9.2642C178.376 9.2642 178.796 9.37855 179.131 9.60724C179.469 9.83262 179.732 10.1491 179.921 10.5568H180.001C180.196 10.1624 180.489 9.84919 180.881 9.61719C181.272 9.38187 181.741 9.2642 182.287 9.2642C182.97 9.2642 183.529 9.47798 183.963 9.90554C184.397 10.3298 184.614 10.991 184.614 11.8892V17H183.441V11.8892C183.441 11.3258 183.287 10.9231 182.979 10.6811C182.67 10.4392 182.307 10.3182 181.89 10.3182C181.353 10.3182 180.937 10.4806 180.642 10.8054C180.347 11.1269 180.199 11.5346 180.199 12.0284V17H179.006V11.7699C179.006 11.3357 178.865 10.986 178.584 10.7209C178.302 10.4524 177.939 10.3182 177.495 10.3182C177.19 10.3182 176.905 10.3994 176.64 10.5618C176.378 10.7242 176.166 10.9496 176.003 11.2379C175.844 11.523 175.765 11.8527 175.765 12.2273V17H174.591ZM189.862 17.1591C189.172 17.1591 188.567 16.995 188.047 16.6669C187.53 16.3388 187.126 15.8797 186.834 15.2898C186.546 14.6998 186.401 14.0104 186.401 13.2216C186.401 12.4261 186.546 11.7318 186.834 11.1385C187.126 10.5452 187.53 10.0845 188.047 9.75639C188.567 9.42827 189.172 9.2642 189.862 9.2642C190.551 9.2642 191.154 9.42827 191.671 9.75639C192.192 10.0845 192.596 10.5452 192.884 11.1385C193.176 11.7318 193.322 12.4261 193.322 13.2216C193.322 14.0104 193.176 14.6998 192.884 15.2898C192.596 15.8797 192.192 16.3388 191.671 16.6669C191.154 16.995 190.551 17.1591 189.862 17.1591ZM189.862 16.1051C190.385 16.1051 190.816 15.9709 191.154 15.7024C191.492 15.4339 191.743 15.081 191.905 14.6435C192.067 14.206 192.149 13.732 192.149 13.2216C192.149 12.7112 192.067 12.2356 191.905 11.7947C191.743 11.3539 191.492 10.9976 191.154 10.7259C190.816 10.4541 190.385 10.3182 189.862 10.3182C189.338 10.3182 188.907 10.4541 188.569 10.7259C188.231 10.9976 187.981 11.3539 187.818 11.7947C187.656 12.2356 187.575 12.7112 187.575 13.2216C187.575 13.732 187.656 14.206 187.818 14.6435C187.981 15.081 188.231 15.4339 188.569 15.7024C188.907 15.9709 189.338 16.1051 189.862 16.1051ZM196.286 12.4062V17H195.113V9.36364H196.246V10.5568H196.346C196.525 10.169 196.797 9.85748 197.161 9.62216C197.526 9.38352 197.996 9.2642 198.573 9.2642C199.09 9.2642 199.543 9.37027 199.93 9.58239C200.318 9.79119 200.62 10.1094 200.835 10.5369C201.051 10.9612 201.158 11.4981 201.158 12.1477V17H199.985V12.2273C199.985 11.6274 199.829 11.16 199.518 10.8253C199.206 10.4872 198.779 10.3182 198.235 10.3182C197.861 10.3182 197.526 10.3994 197.231 10.5618C196.939 10.7242 196.709 10.9612 196.54 11.2727C196.371 11.5843 196.286 11.9621 196.286 12.4062ZM206.186 17.1591C205.55 17.1591 204.988 16.9983 204.501 16.6768C204.013 16.352 203.632 15.8946 203.357 15.3047C203.082 14.7114 202.944 14.0104 202.944 13.2017C202.944 12.3996 203.082 11.7036 203.357 11.1136C203.632 10.5237 204.015 10.0679 204.506 9.74645C204.996 9.42495 205.563 9.2642 206.206 9.2642C206.703 9.2642 207.096 9.34706 207.384 9.51278C207.676 9.67519 207.898 9.8608 208.05 10.0696C208.206 10.2751 208.327 10.4441 208.413 10.5767H208.513V6.81818H209.686V17H208.552V15.8267H208.413C208.327 15.9659 208.204 16.1416 208.045 16.3537C207.886 16.5625 207.659 16.7498 207.364 16.9155C207.069 17.0779 206.676 17.1591 206.186 17.1591ZM206.345 16.1051C206.816 16.1051 207.213 15.9825 207.538 15.7372C207.863 15.4886 208.11 15.1456 208.279 14.7081C208.448 14.2673 208.532 13.7585 208.532 13.1818C208.532 12.6117 208.45 12.1129 208.284 11.6854C208.118 11.2545 207.873 10.9197 207.548 10.6811C207.223 10.4392 206.822 10.3182 206.345 10.3182C205.848 10.3182 205.434 10.4458 205.102 10.701C204.774 10.9529 204.527 11.2959 204.361 11.7301C204.199 12.161 204.118 12.6449 204.118 13.1818C204.118 13.7254 204.201 14.2192 204.366 14.6634C204.535 15.1042 204.784 15.4555 205.112 15.7173C205.443 15.9759 205.854 16.1051 206.345 16.1051ZM211.998 17V9.36364H213.171V17H211.998ZM212.594 8.09091C212.366 8.09091 212.168 8.01302 212.003 7.85724C211.84 7.70147 211.759 7.5142 211.759 7.29545C211.759 7.0767 211.84 6.88944 212.003 6.73366C212.168 6.57789 212.366 6.5 212.594 6.5C212.823 6.5 213.019 6.57789 213.181 6.73366C213.347 6.88944 213.43 7.0767 213.43 7.29545C213.43 7.5142 213.347 7.70147 213.181 7.85724C213.019 8.01302 212.823 8.09091 212.594 8.09091ZM36.375 38H33.233V27.8182H36.5142C37.5019 27.8182 38.3471 28.022 39.0497 28.4297C39.7524 28.834 40.291 29.4157 40.6655 30.1747C41.04 30.9304 41.2273 31.8352 41.2273 32.8892C41.2273 33.9498 41.0384 34.8629 40.6605 35.6286C40.2827 36.3909 39.7325 36.9775 39.0099 37.3885C38.2874 37.7962 37.4091 38 36.375 38ZM34.4659 36.9062H36.2955C37.1373 36.9062 37.835 36.7438 38.3885 36.419C38.942 36.0942 39.3546 35.6319 39.6264 35.032C39.8982 34.4321 40.0341 33.7178 40.0341 32.8892C40.0341 32.0672 39.8999 31.3596 39.6314 30.7663C39.3629 30.1697 38.9619 29.7124 38.4283 29.3942C37.8946 29.0727 37.2301 28.9119 36.4347 28.9119H34.4659V36.9062ZM44.3097 33.4062V38H43.1364V27.8182H44.3097V31.5568H44.4091C44.5881 31.1624 44.8565 30.8492 45.2145 30.6172C45.5758 30.3819 46.0563 30.2642 46.6562 30.2642C47.1766 30.2642 47.6323 30.3686 48.0234 30.5774C48.4145 30.7829 48.7178 31.0994 48.9332 31.527C49.152 31.9512 49.2614 32.4915 49.2614 33.1477V38H48.0881V33.2273C48.0881 32.6207 47.9306 32.1518 47.6158 31.8203C47.3042 31.4856 46.8717 31.3182 46.3182 31.3182C45.9337 31.3182 45.589 31.3994 45.2841 31.5618C44.9825 31.7242 44.7438 31.9612 44.5682 32.2727C44.3958 32.5843 44.3097 32.9621 44.3097 33.4062ZM53.655 38.179C53.1711 38.179 52.7319 38.0878 52.3375 37.9055C51.9431 37.7199 51.6299 37.4531 51.3979 37.1051C51.1659 36.7538 51.0499 36.3295 51.0499 35.8324C51.0499 35.3949 51.1361 35.0402 51.3084 34.7685C51.4808 34.4934 51.7111 34.2779 51.9995 34.1222C52.2878 33.9664 52.606 33.8504 52.954 33.7741C53.3053 33.6946 53.6583 33.6316 54.013 33.5852C54.477 33.5256 54.8532 33.4808 55.1415 33.451C55.4332 33.4179 55.6453 33.3632 55.7779 33.2869C55.9138 33.2107 55.9817 33.0781 55.9817 32.8892V32.8494C55.9817 32.3589 55.8475 31.9777 55.579 31.706C55.3139 31.4342 54.9112 31.2983 54.3709 31.2983C53.8108 31.2983 53.3716 31.4209 53.0534 31.6662C52.7353 31.9115 52.5115 32.1733 52.3823 32.4517L51.2686 32.054C51.4675 31.59 51.7327 31.2287 52.0641 30.9702C52.3989 30.7083 52.7634 30.526 53.1578 30.4233C53.5556 30.3172 53.9467 30.2642 54.3311 30.2642C54.5764 30.2642 54.8581 30.294 55.1763 30.3537C55.4978 30.41 55.8077 30.5277 56.106 30.7067C56.4076 30.8857 56.6578 31.1558 56.8567 31.517C57.0556 31.8783 57.155 32.3622 57.155 32.9688V38H55.9817V36.9659H55.9221C55.8425 37.1316 55.7099 37.3089 55.5243 37.4979C55.3387 37.6868 55.0918 37.8475 54.7836 37.9801C54.4753 38.1127 54.0991 38.179 53.655 38.179ZM53.834 37.125C54.298 37.125 54.6891 37.0339 55.0073 36.8516C55.3288 36.6693 55.5707 36.4339 55.7331 36.1456C55.8989 35.8572 55.9817 35.554 55.9817 35.2358V34.1619C55.932 34.2216 55.8226 34.2763 55.6536 34.326C55.4879 34.3724 55.2956 34.4138 55.0769 34.4503C54.8614 34.4834 54.651 34.5133 54.4455 34.5398C54.2433 34.563 54.0792 34.5829 53.9533 34.5994C53.6484 34.6392 53.3633 34.7038 53.0982 34.7933C52.8364 34.8795 52.6242 35.0104 52.4618 35.1861C52.3027 35.3584 52.2232 35.5937 52.2232 35.892C52.2232 36.2997 52.374 36.608 52.6756 36.8168C52.9805 37.0223 53.3667 37.125 53.834 37.125ZM60.3903 35.2159L60.3704 33.7642H60.609L63.9499 30.3636H65.4016L61.842 33.9631H61.7425L60.3903 35.2159ZM59.2965 38V27.8182H60.4698V38H59.2965ZM64.1488 38L61.1658 34.2216L62.0011 33.4062L65.6403 38H64.1488ZM69.1589 38.179C68.675 38.179 68.2359 38.0878 67.8414 37.9055C67.447 37.7199 67.1338 37.4531 66.9018 37.1051C66.6698 36.7538 66.5538 36.3295 66.5538 35.8324C66.5538 35.3949 66.64 35.0402 66.8123 34.7685C66.9847 34.4934 67.215 34.2779 67.5034 34.1222C67.7917 33.9664 68.1099 33.8504 68.4579 33.7741C68.8092 33.6946 69.1622 33.6316 69.5169 33.5852C69.9809 33.5256 70.3571 33.4808 70.6454 33.451C70.9371 33.4179 71.1492 33.3632 71.2818 33.2869C71.4177 33.2107 71.4856 33.0781 71.4856 32.8892V32.8494C71.4856 32.3589 71.3514 31.9777 71.0829 31.706C70.8178 31.4342 70.4151 31.2983 69.8748 31.2983C69.3147 31.2983 68.8755 31.4209 68.5574 31.6662C68.2392 31.9115 68.0154 32.1733 67.8862 32.4517L66.7725 32.054C66.9714 31.59 67.2366 31.2287 67.568 30.9702C67.9028 30.7083 68.2673 30.526 68.6618 30.4233C69.0595 30.3172 69.4506 30.2642 69.835 30.2642C70.0803 30.2642 70.362 30.294 70.6802 30.3537C71.0017 30.41 71.3116 30.5277 71.6099 30.7067C71.9115 30.8857 72.1618 31.1558 72.3606 31.517C72.5595 31.8783 72.6589 32.3622 72.6589 32.9688V38H71.4856V36.9659H71.426C71.3464 37.1316 71.2138 37.3089 71.0282 37.4979C70.8426 37.6868 70.5957 37.8475 70.2875 37.9801C69.9792 38.1127 69.603 38.179 69.1589 38.179ZM69.3379 37.125C69.8019 37.125 70.193 37.0339 70.5112 36.8516C70.8327 36.6693 71.0746 36.4339 71.237 36.1456C71.4028 35.8572 71.4856 35.554 71.4856 35.2358V34.1619C71.4359 34.2216 71.3265 34.2763 71.1575 34.326C70.9918 34.3724 70.7995 34.4138 70.5808 34.4503C70.3654 34.4834 70.1549 34.5133 69.9494 34.5398C69.7472 34.563 69.5832 34.5829 69.4572 34.5994C69.1523 34.6392 68.8672 34.7038 68.6021 34.7933C68.3403 34.8795 68.1281 35.0104 67.9657 35.1861C67.8066 35.3584 67.7271 35.5937 67.7271 35.892C67.7271 36.2997 67.8779 36.608 68.1795 36.8168C68.4844 37.0223 68.8706 37.125 69.3379 37.125ZM82.2976 27.8182V38H81.0646V29.1108H81.005L78.5192 30.7614V29.5085L81.0646 27.8182H82.2976ZM85.2259 38V37.1051L88.5866 33.4261C88.9811 32.9953 89.3059 32.6207 89.5611 32.3026C89.8163 31.9811 90.0052 31.6795 90.1278 31.3977C90.2538 31.1127 90.3168 30.8144 90.3168 30.5028C90.3168 30.1449 90.2306 29.835 90.0582 29.5732C89.8892 29.3113 89.6572 29.1091 89.3622 28.9666C89.0672 28.8241 88.7358 28.7528 88.3679 28.7528C87.9768 28.7528 87.6354 28.834 87.3438 28.9964C87.0554 29.1555 86.8317 29.3793 86.6726 29.6676C86.5168 29.956 86.4389 30.294 86.4389 30.6818H85.2656C85.2656 30.0852 85.4032 29.5616 85.6783 29.1108C85.9534 28.66 86.3279 28.3087 86.8018 28.0568C87.2791 27.8049 87.8144 27.679 88.4077 27.679C89.0043 27.679 89.5329 27.8049 89.9936 28.0568C90.4543 28.3087 90.8156 28.6484 91.0774 29.076C91.3393 29.5036 91.4702 29.9792 91.4702 30.5028C91.4702 30.8774 91.4022 31.2436 91.2663 31.6016C91.1338 31.9562 90.9018 32.3523 90.5703 32.7898C90.2422 33.224 89.7865 33.7543 89.2031 34.3807L86.9162 36.8267V36.9062H91.6491V38H85.2259ZM97.0234 38.1392C96.2744 38.1392 95.6364 37.9354 95.1094 37.5277C94.5824 37.1167 94.1797 36.5218 93.9013 35.7429C93.6229 34.9607 93.4837 34.0161 93.4837 32.9091C93.4837 31.8087 93.6229 30.8691 93.9013 30.0902C94.183 29.308 94.5874 28.7114 95.1143 28.3004C95.6446 27.8861 96.281 27.679 97.0234 27.679C97.7659 27.679 98.4006 27.8861 98.9276 28.3004C99.4579 28.7114 99.8622 29.308 100.141 30.0902C100.422 30.8691 100.563 31.8087 100.563 32.9091C100.563 34.0161 100.424 34.9607 100.146 35.7429C99.8672 36.5218 99.4645 37.1167 98.9375 37.5277C98.4105 37.9354 97.7725 38.1392 97.0234 38.1392ZM97.0234 37.0455C97.7659 37.0455 98.3426 36.6875 98.7536 35.9716C99.1645 35.2557 99.37 34.2348 99.37 32.9091C99.37 32.0275 99.2756 31.2768 99.0866 30.657C98.901 30.0372 98.6326 29.5649 98.2812 29.2401C97.9332 28.9152 97.514 28.7528 97.0234 28.7528C96.2876 28.7528 95.7126 29.1158 95.2983 29.8416C94.884 30.5642 94.6768 31.5866 94.6768 32.9091C94.6768 33.7907 94.7696 34.5398 94.9553 35.1562C95.1409 35.7727 95.4077 36.2417 95.7557 36.5632C96.107 36.8847 96.5296 37.0455 97.0234 37.0455ZM105.694 27.679C106.112 27.6823 106.529 27.7618 106.947 27.9176C107.364 28.0734 107.746 28.3319 108.09 28.6932C108.435 29.0511 108.712 29.54 108.92 30.1598C109.129 30.7796 109.234 31.5568 109.234 32.4915C109.234 33.3963 109.147 34.2 108.975 34.9027C108.806 35.602 108.561 36.192 108.239 36.6726C107.921 37.1532 107.533 37.5178 107.076 37.7663C106.622 38.0149 106.108 38.1392 105.535 38.1392C104.965 38.1392 104.456 38.0265 104.009 37.8011C103.564 37.5724 103.2 37.2559 102.915 36.8516C102.633 36.4439 102.452 35.9716 102.373 35.4347H103.586C103.695 35.902 103.912 36.2881 104.237 36.593C104.565 36.8946 104.998 37.0455 105.535 37.0455C106.32 37.0455 106.94 36.7024 107.394 36.0163C107.852 35.3303 108.08 34.3608 108.08 33.108H108.001C107.815 33.3864 107.595 33.6267 107.339 33.8288C107.084 34.031 106.801 34.1868 106.489 34.2962C106.178 34.4055 105.846 34.4602 105.495 34.4602C104.912 34.4602 104.376 34.3161 103.889 34.0277C103.405 33.736 103.018 33.3366 102.726 32.8295C102.438 32.3191 102.293 31.7358 102.293 31.0795C102.293 30.4564 102.433 29.8864 102.711 29.3693C102.993 28.849 103.387 28.4347 103.894 28.1264C104.405 27.8182 105.004 27.669 105.694 27.679ZM105.694 28.7727C105.276 28.7727 104.9 28.8771 104.565 29.0859C104.234 29.2914 103.97 29.5698 103.775 29.9212C103.583 30.2692 103.487 30.6553 103.487 31.0795C103.487 31.5038 103.579 31.8899 103.765 32.2379C103.954 32.5826 104.211 32.8577 104.536 33.0632C104.864 33.2654 105.237 33.3665 105.654 33.3665C105.969 33.3665 106.262 33.3052 106.534 33.1825C106.806 33.0566 107.043 32.8859 107.245 32.6705C107.451 32.4517 107.611 32.2048 107.727 31.9297C107.843 31.6513 107.901 31.3613 107.901 31.0597C107.901 30.6619 107.805 30.2891 107.613 29.9411C107.424 29.593 107.162 29.3113 106.827 29.0959C106.496 28.8804 106.118 28.7727 105.694 28.7727Z" fill="white"/>
<path d="M1 60C1 59.4696 1.21071 58.9609 1.58579 58.5858C1.96086 58.2107 2.46957 58 3 58H6.28C6.48979 58.0002 6.69422 58.0663 6.86436 58.189C7.03449 58.3118 7.1617 58.485 7.228 58.684L8.726 63.177C8.8019 63.4053 8.79293 63.6534 8.70072 63.8756C8.60851 64.0979 8.43925 64.2795 8.224 64.387L5.967 65.517C7.07332 67.9655 9.03446 69.9267 11.483 71.033L12.613 68.776C12.7205 68.5607 12.9021 68.3915 13.1244 68.2993C13.3466 68.2071 13.5947 68.1981 13.823 68.274L18.316 69.772C18.5152 69.8383 18.6885 69.9657 18.8112 70.136C18.934 70.3064 19.0001 70.511 19 70.721V74C19 74.5304 18.7893 75.0391 18.4142 75.4142C18.0391 75.7893 17.5304 76 17 76H16C7.716 76 1 69.284 1 61V60Z" stroke="white" stroke-linecap="round" stroke-linejoin="round"/>
<path d="M36.0568 69.2102V62.6477H37.1705V69.2102H36.0568ZM33.3324 66.4858V65.3722H39.8949V66.4858H33.3324ZM45.6035 71.1392C44.8545 71.1392 44.2164 70.9354 43.6895 70.5277C43.1625 70.1167 42.7598 69.5218 42.4814 68.7429C42.2029 67.9607 42.0637 67.0161 42.0637 65.9091C42.0637 64.8087 42.2029 63.8691 42.4814 63.0902C42.7631 62.308 43.1674 61.7114 43.6944 61.3004C44.2247 60.8861 44.8611 60.679 45.6035 60.679C46.3459 60.679 46.9806 60.8861 47.5076 61.3004C48.0379 61.7114 48.4423 62.308 48.7207 63.0902C49.0024 63.8691 49.1433 64.8087 49.1433 65.9091C49.1433 67.0161 49.0041 67.9607 48.7257 68.7429C48.4473 69.5218 48.0446 70.1167 47.5176 70.5277C46.9906 70.9354 46.3526 71.1392 45.6035 71.1392ZM45.6035 70.0455C46.3459 70.0455 46.9226 69.6875 47.3336 68.9716C47.7446 68.2557 47.9501 67.2348 47.9501 65.9091C47.9501 65.0275 47.8556 64.2768 47.6667 63.657C47.4811 63.0372 47.2127 62.5649 46.8613 62.2401C46.5133 61.9152 46.094 61.7528 45.6035 61.7528C44.8677 61.7528 44.2927 62.1158 43.8784 62.8416C43.4641 63.5642 43.2569 64.5866 43.2569 65.9091C43.2569 66.7907 43.3497 67.5398 43.5353 68.1562C43.7209 68.7727 43.9877 69.2417 44.3358 69.5632C44.6871 69.8847 45.1097 70.0455 45.6035 70.0455ZM54.612 60.8182V71H53.3791V62.1108H53.3194L50.8336 63.7614V62.5085L53.3791 60.8182H54.612ZM60.9806 71.1392C60.3244 71.1392 59.7394 71.0265 59.2257 70.8011C58.7153 70.5758 58.3092 70.2625 58.0076 69.8615C57.7093 69.4571 57.5469 68.9882 57.5204 68.4545H58.7733C58.7998 68.7827 58.9125 69.0661 59.1113 69.3047C59.3102 69.54 59.5704 69.7223 59.8919 69.8516C60.2134 69.9808 60.5697 70.0455 60.9608 70.0455C61.3983 70.0455 61.786 69.9692 62.1241 69.8168C62.4622 69.6643 62.7273 69.4522 62.9196 69.1804C63.1118 68.9086 63.2079 68.5938 63.2079 68.2358C63.2079 67.8613 63.1151 67.5315 62.9295 67.2464C62.7439 66.9581 62.4721 66.7327 62.1142 66.5703C61.7562 66.4079 61.3187 66.3267 60.8017 66.3267H59.9863V65.233H60.8017C61.206 65.233 61.5607 65.16 61.8656 65.0142C62.1738 64.8684 62.4141 64.6629 62.5865 64.3977C62.7621 64.1326 62.85 63.821 62.85 63.4631C62.85 63.1184 62.7737 62.8184 62.6213 62.5632C62.4688 62.308 62.2534 62.1091 61.975 61.9666C61.6999 61.8241 61.3751 61.7528 61.0005 61.7528C60.6492 61.7528 60.3178 61.8175 60.0062 61.9467C59.698 62.0727 59.4461 62.2566 59.2505 62.4986C59.055 62.7372 58.9489 63.0256 58.9324 63.3636H57.7392C57.7591 62.83 57.9198 62.3627 58.2214 61.9616C58.523 61.5573 58.9174 61.2424 59.4047 61.017C59.8952 60.7917 60.4338 60.679 61.0204 60.679C61.6502 60.679 62.1904 60.8066 62.6412 61.0618C63.0919 61.3137 63.4383 61.6468 63.6802 62.0611C63.9222 62.4754 64.0431 62.9228 64.0431 63.4034C64.0431 63.9768 63.8923 64.4657 63.5907 64.87C63.2924 65.2744 62.8864 65.5545 62.3727 65.7102V65.7898C63.0157 65.8958 63.5178 66.1693 63.8791 66.6101C64.2404 67.0476 64.421 67.5895 64.421 68.2358C64.421 68.7893 64.2702 69.2865 63.9686 69.7273C63.6703 70.1648 63.2626 70.5095 62.7456 70.7614C62.2285 71.0133 61.6402 71.1392 60.9806 71.1392ZM66.4544 71V70.1051L69.8152 66.4261C70.2096 65.9953 70.5344 65.6207 70.7896 65.3026C71.0448 64.9811 71.2337 64.6795 71.3564 64.3977C71.4823 64.1127 71.5453 63.8144 71.5453 63.5028C71.5453 63.1449 71.4591 62.835 71.2868 62.5732C71.1177 62.3113 70.8857 62.1091 70.5907 61.9666C70.2958 61.8241 69.9643 61.7528 69.5964 61.7528C69.2053 61.7528 68.8639 61.834 68.5723 61.9964C68.2839 62.1555 68.0602 62.3793 67.9011 62.6676C67.7453 62.956 67.6674 63.294 67.6674 63.6818H66.4941C66.4941 63.0852 66.6317 62.5616 66.9068 62.1108C67.1819 61.66 67.5564 61.3087 68.0304 61.0568C68.5076 60.8049 69.0429 60.679 69.6362 60.679C70.2328 60.679 70.7614 60.8049 71.2221 61.0568C71.6828 61.3087 72.0441 61.6484 72.3059 62.076C72.5678 62.5036 72.6987 62.9792 72.6987 63.5028C72.6987 63.8774 72.6307 64.2436 72.4949 64.6016C72.3623 64.9562 72.1303 65.3523 71.7988 65.7898C71.4707 66.224 71.015 66.7543 70.4316 67.3807L68.1447 69.8267V69.9062H72.8777V71H66.4544ZM74.4735 68.9119V67.8977L78.948 60.8182H79.6838V62.3892H79.1866L75.8059 67.7386V67.8182H81.8315V68.9119H74.4735ZM79.2662 71V68.6037V68.1314V60.8182H80.4395V71H79.2662ZM83.6946 71V70.1051L87.0554 66.4261C87.4498 65.9953 87.7746 65.6207 88.0298 65.3026C88.285 64.9811 88.474 64.6795 88.5966 64.3977C88.7225 64.1127 88.7855 63.8144 88.7855 63.5028C88.7855 63.1449 88.6993 62.835 88.527 62.5732C88.358 62.3113 88.1259 62.1091 87.831 61.9666C87.536 61.8241 87.2045 61.7528 86.8366 61.7528C86.4455 61.7528 86.1042 61.834 85.8125 61.9964C85.5241 62.1555 85.3004 62.3793 85.1413 62.6676C84.9856 62.956 84.9077 63.294 84.9077 63.6818H83.7344C83.7344 63.0852 83.8719 62.5616 84.147 62.1108C84.4221 61.66 84.7966 61.3087 85.2706 61.0568C85.7479 60.8049 86.2831 60.679 86.8764 60.679C87.473 60.679 88.0017 60.8049 88.4624 61.0568C88.9231 61.3087 89.2843 61.6484 89.5462 62.076C89.808 62.5036 89.9389 62.9792 89.9389 63.5028C89.9389 63.8774 89.871 64.2436 89.7351 64.6016C89.6025 64.9562 89.3705 65.3523 89.0391 65.7898C88.7109 66.224 88.2552 66.7543 87.6719 67.3807L85.3849 69.8267V69.9062H90.1179V71H83.6946ZM95.4126 60.679C95.8303 60.6823 96.2479 60.7618 96.6655 60.9176C97.0831 61.0734 97.4643 61.3319 97.8089 61.6932C98.1536 62.0511 98.4304 62.54 98.6392 63.1598C98.848 63.7796 98.9524 64.5568 98.9524 65.4915C98.9524 66.3963 98.8662 67.2 98.6939 67.9027C98.5249 68.602 98.2796 69.192 97.9581 69.6726C97.6399 70.1532 97.2521 70.5178 96.7947 70.7663C96.3407 71.0149 95.8269 71.1392 95.2536 71.1392C94.6835 71.1392 94.1747 71.0265 93.7273 70.8011C93.2831 70.5724 92.9186 70.2559 92.6335 69.8516C92.3518 69.4439 92.1712 68.9716 92.0916 68.4347H93.3047C93.4141 68.902 93.6312 69.2881 93.956 69.593C94.2841 69.8946 94.7166 70.0455 95.2536 70.0455C96.0391 70.0455 96.6589 69.7024 97.1129 69.0163C97.5703 68.3303 97.799 67.3608 97.799 66.108H97.7195C97.5339 66.3864 97.3134 66.6267 97.0582 66.8288C96.803 67.031 96.5196 67.1868 96.2081 67.2962C95.8965 67.4055 95.5651 67.4602 95.2138 67.4602C94.6304 67.4602 94.0952 67.3161 93.608 67.0277C93.1241 66.736 92.7363 66.3366 92.4446 65.8295C92.1562 65.3191 92.0121 64.7358 92.0121 64.0795C92.0121 63.4564 92.1513 62.8864 92.4297 62.3693C92.7114 61.849 93.1058 61.4347 93.6129 61.1264C94.1233 60.8182 94.7232 60.669 95.4126 60.679ZM95.4126 61.7727C94.995 61.7727 94.6188 61.8771 94.2841 62.0859C93.9527 62.2914 93.6892 62.5698 93.4936 62.9212C93.3014 63.2692 93.2053 63.6553 93.2053 64.0795C93.2053 64.5038 93.2981 64.8899 93.4837 65.2379C93.6726 65.5826 93.9295 65.8577 94.2543 66.0632C94.5824 66.2654 94.9553 66.3665 95.3729 66.3665C95.6877 66.3665 95.9811 66.3052 96.2528 66.1825C96.5246 66.0566 96.7616 65.8859 96.9638 65.6705C97.1693 65.4517 97.33 65.2048 97.446 64.9297C97.562 64.6513 97.62 64.3613 97.62 64.0597C97.62 63.6619 97.5239 63.2891 97.3317 62.9411C97.1428 62.593 96.8809 62.3113 96.5462 62.0959C96.2147 61.8804 95.8369 61.7727 95.4126 61.7727ZM104.288 71.1392C103.871 71.1326 103.453 71.053 103.035 70.9006C102.618 70.7481 102.237 70.4912 101.892 70.13C101.547 69.7654 101.27 69.2732 101.062 68.6534C100.853 68.0303 100.748 67.2481 100.748 66.3068C100.748 65.4053 100.833 64.6065 101.002 63.9105C101.171 63.2112 101.416 62.6229 101.738 62.1456C102.059 61.665 102.447 61.3004 102.901 61.0518C103.358 60.8033 103.874 60.679 104.447 60.679C105.017 60.679 105.524 60.7933 105.969 61.022C106.416 61.2474 106.781 61.5623 107.062 61.9666C107.344 62.371 107.526 62.8366 107.609 63.3636H106.396C106.283 62.9062 106.065 62.5268 105.74 62.2251C105.415 61.9235 104.984 61.7727 104.447 61.7727C103.658 61.7727 103.037 62.1158 102.583 62.8018C102.132 63.4879 101.905 64.4508 101.902 65.6903H101.981C102.167 65.4086 102.387 65.1683 102.643 64.9695C102.901 64.7673 103.186 64.6115 103.498 64.5021C103.809 64.3928 104.139 64.3381 104.487 64.3381C105.07 64.3381 105.604 64.4839 106.088 64.7756C106.572 65.0639 106.96 65.4633 107.251 65.9737C107.543 66.4808 107.689 67.0625 107.689 67.7188C107.689 68.3485 107.548 68.9252 107.266 69.4489C106.984 69.9692 106.588 70.3835 106.078 70.6918C105.571 70.9967 104.974 71.1458 104.288 71.1392ZM104.288 70.0455C104.706 70.0455 105.08 69.9411 105.412 69.7322C105.747 69.5234 106.01 69.2434 106.202 68.892C106.398 68.5407 106.496 68.1496 106.496 67.7188C106.496 67.2978 106.401 66.915 106.212 66.5703C106.027 66.2223 105.77 65.9455 105.442 65.7401C105.117 65.5346 104.746 65.4318 104.328 65.4318C104.013 65.4318 103.72 65.4948 103.448 65.6207C103.176 65.7434 102.938 65.9124 102.732 66.1278C102.53 66.3433 102.371 66.5902 102.255 66.8686C102.139 67.1437 102.081 67.4337 102.081 67.7386C102.081 68.143 102.175 68.5208 102.364 68.8722C102.556 69.2235 102.818 69.5069 103.15 69.7223C103.484 69.9377 103.864 70.0455 104.288 70.0455ZM109.405 68.9119V67.8977L113.88 60.8182H114.615V62.3892H114.118L110.738 67.7386V67.8182H116.763V68.9119H109.405ZM114.198 71V68.6037V68.1314V60.8182H115.371V71H114.198ZM121.947 71.1392C121.198 71.1392 120.56 70.9354 120.033 70.5277C119.506 70.1167 119.104 69.5218 118.825 68.7429C118.547 67.9607 118.407 67.0161 118.407 65.9091C118.407 64.8087 118.547 63.8691 118.825 63.0902C119.107 62.308 119.511 61.7114 120.038 61.3004C120.568 60.8861 121.205 60.679 121.947 60.679C122.69 60.679 123.324 60.8861 123.851 61.3004C124.382 61.7114 124.786 62.308 125.064 63.0902C125.346 63.8691 125.487 64.8087 125.487 65.9091C125.487 67.0161 125.348 67.9607 125.069 68.7429C124.791 69.5218 124.388 70.1167 123.861 70.5277C123.334 70.9354 122.696 71.1392 121.947 71.1392ZM121.947 70.0455C122.69 70.0455 123.266 69.6875 123.677 68.9716C124.088 68.2557 124.294 67.2348 124.294 65.9091C124.294 65.0275 124.199 64.2768 124.01 63.657C123.825 63.0372 123.556 62.5649 123.205 62.2401C122.857 61.9152 122.438 61.7528 121.947 61.7528C121.211 61.7528 120.636 62.1158 120.222 62.8416C119.808 63.5642 119.601 64.5866 119.601 65.9091C119.601 66.7907 119.693 67.5398 119.879 68.1562C120.065 68.7727 120.331 69.2417 120.68 69.5632C121.031 69.8847 121.453 70.0455 121.947 70.0455ZM130.697 71.1392C129.948 71.1392 129.31 70.9354 128.783 70.5277C128.256 70.1167 127.854 69.5218 127.575 68.7429C127.297 67.9607 127.157 67.0161 127.157 65.9091C127.157 64.8087 127.297 63.8691 127.575 63.0902C127.857 62.308 128.261 61.7114 128.788 61.3004C129.318 60.8861 129.955 60.679 130.697 60.679C131.44 60.679 132.074 60.8861 132.601 61.3004C133.132 61.7114 133.536 62.308 133.814 63.0902C134.096 63.8691 134.237 64.8087 134.237 65.9091C134.237 67.0161 134.098 67.9607 133.819 68.7429C133.541 69.5218 133.138 70.1167 132.611 70.5277C132.084 70.9354 131.446 71.1392 130.697 71.1392ZM130.697 70.0455C131.44 70.0455 132.016 69.6875 132.427 68.9716C132.838 68.2557 133.044 67.2348 133.044 65.9091C133.044 65.0275 132.949 64.2768 132.76 63.657C132.575 63.0372 132.306 62.5649 131.955 62.2401C131.607 61.9152 131.188 61.7528 130.697 61.7528C129.961 61.7528 129.386 62.1158 128.972 62.8416C128.558 63.5642 128.351 64.5866 128.351 65.9091C128.351 66.7907 128.443 67.5398 128.629 68.1562C128.815 68.7727 129.081 69.2417 129.43 69.5632C129.781 69.8847 130.203 70.0455 130.697 70.0455ZM140.521 65.3622V66.456H136.067V65.3622H140.521ZM145.887 71.1392C145.138 71.1392 144.5 70.9354 143.973 70.5277C143.446 70.1167 143.043 69.5218 142.765 68.7429C142.486 67.9607 142.347 67.0161 142.347 65.9091C142.347 64.8087 142.486 63.8691 142.765 63.0902C143.046 62.308 143.451 61.7114 143.978 61.3004C144.508 60.8861 145.144 60.679 145.887 60.679C146.629 60.679 147.264 60.8861 147.791 61.3004C148.321 61.7114 148.725 62.308 149.004 63.0902C149.286 63.8691 149.426 64.8087 149.426 65.9091C149.426 67.0161 149.287 67.9607 149.009 68.7429C148.73 69.5218 148.328 70.1167 147.801 70.5277C147.274 70.9354 146.636 71.1392 145.887 71.1392ZM145.887 70.0455C146.629 70.0455 147.206 69.6875 147.617 68.9716C148.028 68.2557 148.233 67.2348 148.233 65.9091C148.233 65.0275 148.139 64.2768 147.95 63.657C147.764 63.0372 147.496 62.5649 147.145 62.2401C146.797 61.9152 146.377 61.7528 145.887 61.7528C145.151 61.7528 144.576 62.1158 144.162 62.8416C143.747 63.5642 143.54 64.5866 143.54 65.9091C143.54 66.7907 143.633 67.5398 143.819 68.1562C144.004 68.7727 144.271 69.2417 144.619 69.5632C144.97 69.8847 145.393 70.0455 145.887 70.0455ZM151.316 71V70.1051L154.676 66.4261C155.071 65.9953 155.396 65.6207 155.651 65.3026C155.906 64.9811 156.095 64.6795 156.218 64.3977C156.344 64.1127 156.407 63.8144 156.407 63.5028C156.407 63.1449 156.32 62.835 156.148 62.5732C155.979 62.3113 155.747 62.1091 155.452 61.9666C155.157 61.8241 154.826 61.7528 154.458 61.7528C154.067 61.7528 153.725 61.834 153.434 61.9964C153.145 62.1555 152.922 62.3793 152.762 62.6676C152.607 62.956 152.529 63.294 152.529 63.6818H151.355C151.355 63.0852 151.493 62.5616 151.768 62.1108C152.043 61.66 152.418 61.3087 152.892 61.0568C153.369 60.8049 153.904 60.679 154.498 60.679C155.094 60.679 155.623 60.8049 156.083 61.0568C156.544 61.3087 156.905 61.6484 157.167 62.076C157.429 62.5036 157.56 62.9792 157.56 63.5028C157.56 63.8774 157.492 64.2436 157.356 64.6016C157.224 64.9562 156.992 65.3523 156.66 65.7898C156.332 66.224 155.876 66.7543 155.293 67.3807L153.006 69.8267V69.9062H157.739V71H151.316Z" fill="white"/>
<path d="M1 119L8.89 124.26C9.21866 124.479 9.6049 124.596 10 124.596C10.3951 124.596 10.7813 124.479 11.11 124.26L19 119M3 130H17C17.5304 130 18.0391 129.789 18.4142 129.414C18.7893 129.039 19 128.53 19 128V118C19 117.47 18.7893 116.961 18.4142 116.586C18.0391 116.211 17.5304 116 17 116H3C2.46957 116 1.96086 116.211 1.58579 116.586C1.21071 116.961 1 117.47 1 118V128C1 128.53 1.21071 129.039 1.58579 129.414C1.96086 129.789 2.46957 130 3 130Z" stroke="white" stroke-linecap="round" stroke-linejoin="round"/>
<path d="M35.321 127.179C34.8371 127.179 34.398 127.088 34.0036 126.906C33.6091 126.72 33.2959 126.453 33.0639 126.105C32.8319 125.754 32.7159 125.33 32.7159 124.832C32.7159 124.395 32.8021 124.04 32.9744 123.768C33.1468 123.493 33.3771 123.278 33.6655 123.122C33.9538 122.966 34.272 122.85 34.62 122.774C34.9714 122.695 35.3243 122.632 35.679 122.585C36.143 122.526 36.5192 122.481 36.8075 122.451C37.0992 122.418 37.3113 122.363 37.4439 122.287C37.5798 122.211 37.6477 122.078 37.6477 121.889V121.849C37.6477 121.359 37.5135 120.978 37.245 120.706C36.9799 120.434 36.5772 120.298 36.0369 120.298C35.4768 120.298 35.0376 120.421 34.7195 120.666C34.4013 120.911 34.1776 121.173 34.0483 121.452L32.9347 121.054C33.1335 120.59 33.3987 120.229 33.7301 119.97C34.0649 119.708 34.4295 119.526 34.8239 119.423C35.2216 119.317 35.6127 119.264 35.9972 119.264C36.2424 119.264 36.5241 119.294 36.8423 119.354C37.1638 119.41 37.4737 119.528 37.772 119.707C38.0736 119.886 38.3239 120.156 38.5227 120.517C38.7216 120.878 38.821 121.362 38.821 121.969V127H37.6477V125.966H37.5881C37.5085 126.132 37.3759 126.309 37.1903 126.498C37.0047 126.687 36.7578 126.848 36.4496 126.98C36.1413 127.113 35.7652 127.179 35.321 127.179ZM35.5 126.125C35.964 126.125 36.3551 126.034 36.6733 125.852C36.9948 125.669 37.2367 125.434 37.3991 125.146C37.5649 124.857 37.6477 124.554 37.6477 124.236V123.162C37.598 123.222 37.4886 123.276 37.3196 123.326C37.1539 123.372 36.9616 123.414 36.7429 123.45C36.5275 123.483 36.317 123.513 36.1115 123.54C35.9093 123.563 35.7453 123.583 35.6193 123.599C35.3144 123.639 35.0294 123.704 34.7642 123.793C34.5024 123.879 34.2902 124.01 34.1278 124.186C33.9688 124.358 33.8892 124.594 33.8892 124.892C33.8892 125.3 34.04 125.608 34.3416 125.817C34.6465 126.022 35.0327 126.125 35.5 126.125ZM43.8461 127.159C43.2097 127.159 42.6479 126.998 42.1607 126.677C41.6735 126.352 41.2923 125.895 41.0172 125.305C40.7421 124.711 40.6046 124.01 40.6046 123.202C40.6046 122.4 40.7421 121.704 41.0172 121.114C41.2923 120.524 41.6751 120.068 42.1657 119.746C42.6562 119.425 43.223 119.264 43.8659 119.264C44.3631 119.264 44.7559 119.347 45.0442 119.513C45.3359 119.675 45.5579 119.861 45.7104 120.07C45.8662 120.275 45.9872 120.444 46.0733 120.577H46.1728V116.818H47.3461V127H46.2125V125.827H46.0733C45.9872 125.966 45.8645 126.142 45.7054 126.354C45.5463 126.562 45.3193 126.75 45.0243 126.915C44.7293 127.078 44.3366 127.159 43.8461 127.159ZM44.0051 126.105C44.4758 126.105 44.8735 125.982 45.1983 125.737C45.5231 125.489 45.7701 125.146 45.9391 124.708C46.1081 124.267 46.1926 123.759 46.1926 123.182C46.1926 122.612 46.1098 122.113 45.9441 121.685C45.7784 121.254 45.5331 120.92 45.2083 120.681C44.8835 120.439 44.4824 120.318 44.0051 120.318C43.508 120.318 43.0937 120.446 42.7623 120.701C42.4341 120.953 42.1872 121.296 42.0215 121.73C41.8591 122.161 41.7779 122.645 41.7779 123.182C41.7779 123.725 41.8607 124.219 42.0265 124.663C42.1955 125.104 42.4441 125.455 42.7722 125.717C43.1036 125.976 43.5146 126.105 44.0051 126.105ZM49.6578 127V119.364H50.7914V120.557H50.8908C51.0499 120.149 51.3068 119.833 51.6614 119.607C52.016 119.379 52.4419 119.264 52.9391 119.264C53.4429 119.264 53.8622 119.379 54.1969 119.607C54.535 119.833 54.7985 120.149 54.9874 120.557H55.0669C55.2625 120.162 55.5558 119.849 55.9469 119.617C56.338 119.382 56.807 119.264 57.3539 119.264C58.0366 119.264 58.5951 119.478 59.0293 119.906C59.4635 120.33 59.6806 120.991 59.6806 121.889V127H58.5073V121.889C58.5073 121.326 58.3532 120.923 58.0449 120.681C57.7367 120.439 57.3738 120.318 56.9561 120.318C56.4192 120.318 56.0033 120.481 55.7083 120.805C55.4133 121.127 55.2658 121.535 55.2658 122.028V127H54.0726V121.77C54.0726 121.336 53.9318 120.986 53.65 120.721C53.3683 120.452 53.0054 120.318 52.5613 120.318C52.2563 120.318 51.9713 120.399 51.7061 120.562C51.4443 120.724 51.2322 120.95 51.0698 121.238C50.9107 121.523 50.8311 121.853 50.8311 122.227V127H49.6578ZM61.8258 127V119.364H62.9991V127H61.8258ZM62.4224 118.091C62.1937 118.091 61.9965 118.013 61.8308 117.857C61.6684 117.701 61.5872 117.514 61.5872 117.295C61.5872 117.077 61.6684 116.889 61.8308 116.734C61.9965 116.578 62.1937 116.5 62.4224 116.5C62.6511 116.5 62.8467 116.578 63.0091 116.734C63.1748 116.889 63.2576 117.077 63.2576 117.295C63.2576 117.514 63.1748 117.701 63.0091 117.857C62.8467 118.013 62.6511 118.091 62.4224 118.091ZM70.5572 121.074L69.5032 121.372C69.4369 121.196 69.3391 121.026 69.2099 120.86C69.0839 120.691 68.9116 120.552 68.6928 120.442C68.4741 120.333 68.194 120.278 67.8526 120.278C67.3853 120.278 66.9959 120.386 66.6843 120.602C66.3761 120.814 66.2219 121.084 66.2219 121.412C66.2219 121.704 66.328 121.934 66.5401 122.103C66.7522 122.272 67.0837 122.413 67.5344 122.526L68.668 122.804C69.3507 122.97 69.8595 123.223 70.1942 123.565C70.529 123.903 70.6964 124.339 70.6964 124.872C70.6964 125.31 70.5704 125.701 70.3185 126.045C70.07 126.39 69.7219 126.662 69.2745 126.861C68.8271 127.06 68.3067 127.159 67.7134 127.159C66.9345 127.159 66.2899 126.99 65.7795 126.652C65.2691 126.314 64.9459 125.82 64.81 125.17L65.9237 124.892C66.0297 125.303 66.2302 125.611 66.5252 125.817C66.8235 126.022 67.2129 126.125 67.6935 126.125C68.2404 126.125 68.6746 126.009 68.9961 125.777C69.3209 125.542 69.4833 125.26 69.4833 124.932C69.4833 124.667 69.3905 124.445 69.2049 124.266C69.0193 124.083 68.7343 123.947 68.3498 123.858L67.0771 123.56C66.3777 123.394 65.864 123.137 65.5359 122.789C65.2111 122.438 65.0487 121.999 65.0487 121.472C65.0487 121.041 65.1696 120.66 65.4116 120.328C65.6568 119.997 65.9899 119.737 66.4109 119.548C66.8351 119.359 67.3157 119.264 67.8526 119.264C68.6083 119.264 69.2016 119.43 69.6325 119.761C70.0666 120.093 70.3749 120.53 70.5572 121.074ZM77.8716 121.074L76.8176 121.372C76.7514 121.196 76.6536 121.026 76.5243 120.86C76.3984 120.691 76.226 120.552 76.0073 120.442C75.7885 120.333 75.5085 120.278 75.1671 120.278C74.6998 120.278 74.3103 120.386 73.9988 120.602C73.6905 120.814 73.5364 121.084 73.5364 121.412C73.5364 121.704 73.6425 121.934 73.8546 122.103C74.0667 122.272 74.3981 122.413 74.8489 122.526L75.9824 122.804C76.6652 122.97 77.1739 123.223 77.5087 123.565C77.8435 123.903 78.0108 124.339 78.0108 124.872C78.0108 125.31 77.8849 125.701 77.633 126.045C77.3844 126.39 77.0364 126.662 76.589 126.861C76.1415 127.06 75.6212 127.159 75.0279 127.159C74.249 127.159 73.6043 126.99 73.0939 126.652C72.5835 126.314 72.2604 125.82 72.1245 125.17L73.2381 124.892C73.3442 125.303 73.5447 125.611 73.8397 125.817C74.138 126.022 74.5274 126.125 75.008 126.125C75.5549 126.125 75.9891 126.009 76.3105 125.777C76.6354 125.542 76.7978 125.26 76.7978 124.932C76.7978 124.667 76.705 124.445 76.5194 124.266C76.3337 124.083 76.0487 123.947 75.6642 123.858L74.3915 123.56C73.6922 123.394 73.1784 123.137 72.8503 122.789C72.5255 122.438 72.3631 121.999 72.3631 121.472C72.3631 121.041 72.4841 120.66 72.726 120.328C72.9713 119.997 73.3044 119.737 73.7253 119.548C74.1496 119.359 74.6301 119.264 75.1671 119.264C75.9228 119.264 76.516 119.43 76.9469 119.761C77.3811 120.093 77.6893 120.53 77.8716 121.074ZM79.777 127V119.364H80.9503V127H79.777ZM80.3736 118.091C80.1449 118.091 79.9477 118.013 79.782 117.857C79.6196 117.701 79.5384 117.514 79.5384 117.295C79.5384 117.077 79.6196 116.889 79.782 116.734C79.9477 116.578 80.1449 116.5 80.3736 116.5C80.6023 116.5 80.7978 116.578 80.9602 116.734C81.1259 116.889 81.2088 117.077 81.2088 117.295C81.2088 117.514 81.1259 117.701 80.9602 117.857C80.7978 118.013 80.6023 118.091 80.3736 118.091ZM86.2015 127.159C85.5121 127.159 84.9073 126.995 84.3869 126.667C83.8699 126.339 83.4655 125.88 83.1738 125.29C82.8855 124.7 82.7413 124.01 82.7413 123.222C82.7413 122.426 82.8855 121.732 83.1738 121.138C83.4655 120.545 83.8699 120.085 84.3869 119.756C84.9073 119.428 85.5121 119.264 86.2015 119.264C86.8909 119.264 87.4941 119.428 88.0112 119.756C88.5315 120.085 88.9359 120.545 89.2243 121.138C89.5159 121.732 89.6618 122.426 89.6618 123.222C89.6618 124.01 89.5159 124.7 89.2243 125.29C88.9359 125.88 88.5315 126.339 88.0112 126.667C87.4941 126.995 86.8909 127.159 86.2015 127.159ZM86.2015 126.105C86.7252 126.105 87.1561 125.971 87.4941 125.702C87.8322 125.434 88.0824 125.081 88.2449 124.643C88.4073 124.206 88.4885 123.732 88.4885 123.222C88.4885 122.711 88.4073 122.236 88.2449 121.795C88.0824 121.354 87.8322 120.998 87.4941 120.726C87.1561 120.454 86.7252 120.318 86.2015 120.318C85.6779 120.318 85.247 120.454 84.9089 120.726C84.5708 120.998 84.3206 121.354 84.1582 121.795C83.9958 122.236 83.9146 122.711 83.9146 123.222C83.9146 123.732 83.9958 124.206 84.1582 124.643C84.3206 125.081 84.5708 125.434 84.9089 125.702C85.247 125.971 85.6779 126.105 86.2015 126.105ZM92.6261 122.406V127H91.4528V119.364H92.5863V120.557H92.6857C92.8647 120.169 93.1365 119.857 93.5011 119.622C93.8656 119.384 94.3363 119.264 94.913 119.264C95.43 119.264 95.8825 119.37 96.2702 119.582C96.658 119.791 96.9596 120.109 97.1751 120.537C97.3905 120.961 97.4982 121.498 97.4982 122.148V127H96.3249V122.227C96.3249 121.627 96.1692 121.16 95.8576 120.825C95.546 120.487 95.1185 120.318 94.5749 120.318C94.2004 120.318 93.8656 120.399 93.5707 120.562C93.279 120.724 93.0487 120.961 92.8796 121.273C92.7106 121.584 92.6261 121.962 92.6261 122.406ZM105.509 129.685C104.494 129.685 103.598 129.545 102.819 129.267C102.04 128.992 101.386 128.586 100.855 128.049C100.325 127.512 99.9239 126.854 99.6522 126.075C99.3804 125.296 99.2445 124.405 99.2445 123.401C99.2445 122.429 99.382 121.561 99.6571 120.795C99.9355 120.03 100.338 119.38 100.865 118.847C101.396 118.31 102.039 117.9 102.794 117.619C103.553 117.337 104.412 117.196 105.369 117.196C106.301 117.196 107.116 117.348 107.816 117.653C108.518 117.955 109.105 118.364 109.575 118.881C110.049 119.395 110.404 119.973 110.639 120.616C110.878 121.259 110.997 121.922 110.997 122.605C110.997 123.086 110.974 123.573 110.928 124.067C110.881 124.561 110.784 125.015 110.634 125.429C110.485 125.84 110.255 126.171 109.943 126.423C109.635 126.675 109.218 126.801 108.691 126.801C108.459 126.801 108.203 126.765 107.925 126.692C107.646 126.619 107.4 126.498 107.184 126.329C106.969 126.16 106.841 125.933 106.801 125.648H106.742C106.662 125.84 106.539 126.022 106.374 126.195C106.211 126.367 105.998 126.504 105.732 126.607C105.471 126.71 105.151 126.755 104.773 126.741C104.342 126.725 103.963 126.629 103.634 126.453C103.306 126.274 103.031 126.032 102.809 125.727C102.59 125.419 102.425 125.063 102.312 124.658C102.203 124.251 102.148 123.812 102.148 123.341C102.148 122.893 102.214 122.484 102.347 122.113C102.479 121.742 102.663 121.417 102.899 121.138C103.137 120.86 103.416 120.638 103.734 120.472C104.055 120.303 104.402 120.199 104.773 120.159C105.104 120.126 105.406 120.141 105.678 120.204C105.95 120.263 106.173 120.355 106.349 120.477C106.525 120.597 106.636 120.729 106.682 120.875H106.742V120.318H107.796V124.812C107.796 125.091 107.874 125.336 108.029 125.548C108.185 125.76 108.412 125.866 108.71 125.866C109.048 125.866 109.307 125.75 109.486 125.518C109.668 125.286 109.793 124.929 109.859 124.445C109.928 123.961 109.963 123.341 109.963 122.585C109.963 122.141 109.902 121.704 109.779 121.273C109.66 120.839 109.478 120.433 109.232 120.055C108.99 119.677 108.684 119.344 108.313 119.055C107.941 118.767 107.506 118.542 107.005 118.379C106.508 118.214 105.943 118.131 105.31 118.131C104.531 118.131 103.833 118.252 103.217 118.494C102.604 118.732 102.082 119.082 101.651 119.543C101.223 120 100.897 120.557 100.671 121.213C100.449 121.866 100.338 122.608 100.338 123.44C100.338 124.286 100.449 125.036 100.671 125.692C100.897 126.349 101.228 126.902 101.666 127.353C102.106 127.804 102.652 128.145 103.301 128.377C103.951 128.612 104.7 128.73 105.548 128.73C105.913 128.73 106.273 128.695 106.627 128.626C106.982 128.556 107.295 128.48 107.567 128.397C107.839 128.314 108.034 128.253 108.154 128.213L108.432 129.128C108.227 129.214 107.958 129.3 107.627 129.386C107.298 129.473 106.947 129.544 106.573 129.6C106.201 129.656 105.847 129.685 105.509 129.685ZM104.932 125.727C105.376 125.727 105.736 125.638 106.011 125.459C106.286 125.28 106.486 125.01 106.612 124.648C106.738 124.287 106.801 123.831 106.801 123.281C106.801 122.724 106.732 122.29 106.593 121.979C106.453 121.667 106.248 121.448 105.976 121.322C105.704 121.196 105.369 121.134 104.972 121.134C104.594 121.134 104.271 121.233 104.002 121.432C103.737 121.627 103.533 121.889 103.391 122.217C103.252 122.542 103.182 122.897 103.182 123.281C103.182 123.705 103.238 124.105 103.351 124.479C103.464 124.851 103.648 125.152 103.903 125.384C104.158 125.613 104.501 125.727 104.932 125.727ZM118.163 121.074L117.109 121.372C117.042 121.196 116.945 121.026 116.815 120.86C116.689 120.691 116.517 120.552 116.298 120.442C116.08 120.333 115.799 120.278 115.458 120.278C114.991 120.278 114.601 120.386 114.29 120.602C113.982 120.814 113.827 121.084 113.827 121.412C113.827 121.704 113.933 121.934 114.146 122.103C114.358 122.272 114.689 122.413 115.14 122.526L116.273 122.804C116.956 122.97 117.465 123.223 117.8 123.565C118.134 123.903 118.302 124.339 118.302 124.872C118.302 125.31 118.176 125.701 117.924 126.045C117.675 126.39 117.327 126.662 116.88 126.861C116.433 127.06 115.912 127.159 115.319 127.159C114.54 127.159 113.895 126.99 113.385 126.652C112.875 126.314 112.551 125.82 112.415 125.17L113.529 124.892C113.635 125.303 113.836 125.611 114.131 125.817C114.429 126.022 114.818 126.125 115.299 126.125C115.846 126.125 116.28 126.009 116.602 125.777C116.926 125.542 117.089 125.26 117.089 124.932C117.089 124.667 116.996 124.445 116.81 124.266C116.625 124.083 116.34 123.947 115.955 123.858L114.683 123.56C113.983 123.394 113.469 123.137 113.141 122.789C112.817 122.438 112.654 121.999 112.654 121.472C112.654 121.041 112.775 120.66 113.017 120.328C113.262 119.997 113.595 119.737 114.016 119.548C114.441 119.359 114.921 119.264 115.458 119.264C116.214 119.264 116.807 119.43 117.238 119.761C117.672 120.093 117.98 120.53 118.163 121.074ZM120.068 127V119.364H121.202V120.557H121.301C121.46 120.149 121.717 119.833 122.072 119.607C122.426 119.379 122.852 119.264 123.349 119.264C123.853 119.264 124.272 119.379 124.607 119.607C124.945 119.833 125.209 120.149 125.398 120.557H125.477C125.673 120.162 125.966 119.849 126.357 119.617C126.748 119.382 127.217 119.264 127.764 119.264C128.447 119.264 129.005 119.478 129.439 119.906C129.874 120.33 130.091 120.991 130.091 121.889V127H128.917V121.889C128.917 121.326 128.763 120.923 128.455 120.681C128.147 120.439 127.784 120.318 127.366 120.318C126.829 120.318 126.413 120.481 126.118 120.805C125.823 121.127 125.676 121.535 125.676 122.028V127H124.483V121.77C124.483 121.336 124.342 120.986 124.06 120.721C123.778 120.452 123.416 120.318 122.971 120.318C122.666 120.318 122.381 120.399 122.116 120.562C121.854 120.724 121.642 120.95 121.48 121.238C121.321 121.523 121.241 121.853 121.241 122.227V127H120.068ZM137.645 121.074L136.591 121.372C136.525 121.196 136.427 121.026 136.298 120.86C136.172 120.691 135.999 120.552 135.781 120.442C135.562 120.333 135.282 120.278 134.941 120.278C134.473 120.278 134.084 120.386 133.772 120.602C133.464 120.814 133.31 121.084 133.31 121.412C133.31 121.704 133.416 121.934 133.628 122.103C133.84 122.272 134.172 122.413 134.622 122.526L135.756 122.804C136.439 122.97 136.947 123.223 137.282 123.565C137.617 123.903 137.784 124.339 137.784 124.872C137.784 125.31 137.658 125.701 137.406 126.045C137.158 126.39 136.81 126.662 136.362 126.861C135.915 127.06 135.395 127.159 134.801 127.159C134.022 127.159 133.378 126.99 132.867 126.652C132.357 126.314 132.034 125.82 131.898 125.17L133.012 124.892C133.118 125.303 133.318 125.611 133.613 125.817C133.911 126.022 134.301 126.125 134.781 126.125C135.328 126.125 135.762 126.009 136.084 125.777C136.409 125.542 136.571 125.26 136.571 124.932C136.571 124.667 136.478 124.445 136.293 124.266C136.107 124.083 135.822 123.947 135.438 123.858L134.165 123.56C133.466 123.394 132.952 123.137 132.624 122.789C132.299 122.438 132.137 121.999 132.137 121.472C132.137 121.041 132.258 120.66 132.499 120.328C132.745 119.997 133.078 119.737 133.499 119.548C133.923 119.359 134.404 119.264 134.941 119.264C135.696 119.264 136.289 119.43 136.72 119.761C137.155 120.093 137.463 120.53 137.645 121.074ZM140.724 122.406V127H139.55V116.818H140.724V120.557H140.823C141.002 120.162 141.271 119.849 141.629 119.617C141.99 119.382 142.47 119.264 143.07 119.264C143.591 119.264 144.046 119.369 144.438 119.577C144.829 119.783 145.132 120.099 145.347 120.527C145.566 120.951 145.675 121.491 145.675 122.148V127H144.502V122.227C144.502 121.621 144.345 121.152 144.03 120.82C143.718 120.486 143.286 120.318 142.732 120.318C142.348 120.318 142.003 120.399 141.698 120.562C141.397 120.724 141.158 120.961 140.982 121.273C140.81 121.584 140.724 121.962 140.724 122.406ZM151.024 127.159C150.288 127.159 149.653 126.997 149.119 126.672C148.589 126.344 148.18 125.886 147.892 125.3C147.606 124.71 147.464 124.024 147.464 123.241C147.464 122.459 147.606 121.77 147.892 121.173C148.18 120.573 148.581 120.106 149.095 119.771C149.612 119.433 150.215 119.264 150.904 119.264C151.302 119.264 151.695 119.33 152.083 119.463C152.47 119.596 152.823 119.811 153.142 120.109C153.46 120.404 153.713 120.795 153.902 121.283C154.091 121.77 154.186 122.37 154.186 123.082V123.58H148.299V122.565H152.992C152.992 122.134 152.906 121.75 152.734 121.412C152.565 121.074 152.323 120.807 152.008 120.612C151.696 120.416 151.329 120.318 150.904 120.318C150.437 120.318 150.033 120.434 149.691 120.666C149.353 120.895 149.093 121.193 148.911 121.561C148.728 121.929 148.637 122.323 148.637 122.744V123.42C148.637 123.997 148.737 124.486 148.936 124.887C149.138 125.285 149.418 125.588 149.776 125.797C150.134 126.002 150.55 126.105 151.024 126.105C151.332 126.105 151.61 126.062 151.859 125.976C152.111 125.886 152.328 125.754 152.51 125.578C152.692 125.399 152.833 125.177 152.933 124.912L154.066 125.23C153.947 125.615 153.746 125.953 153.465 126.244C153.183 126.533 152.835 126.758 152.421 126.92C152.006 127.08 151.541 127.159 151.024 127.159ZM159.053 130.023C158.486 130.023 157.999 129.95 157.591 129.804C157.183 129.661 156.844 129.473 156.572 129.237C156.303 129.005 156.09 128.757 155.931 128.491L156.865 127.835C156.971 127.974 157.106 128.134 157.268 128.312C157.43 128.495 157.652 128.652 157.934 128.785C158.219 128.921 158.592 128.989 159.053 128.989C159.669 128.989 160.178 128.839 160.579 128.541C160.98 128.243 161.181 127.776 161.181 127.139V125.588H161.081C160.995 125.727 160.872 125.9 160.713 126.105C160.557 126.307 160.332 126.488 160.037 126.647C159.745 126.803 159.351 126.881 158.854 126.881C158.237 126.881 157.684 126.735 157.193 126.443C156.706 126.152 156.32 125.727 156.035 125.17C155.753 124.614 155.612 123.937 155.612 123.142C155.612 122.36 155.75 121.679 156.025 121.099C156.3 120.515 156.683 120.065 157.173 119.746C157.664 119.425 158.231 119.264 158.874 119.264C159.371 119.264 159.765 119.347 160.057 119.513C160.352 119.675 160.577 119.861 160.733 120.07C160.892 120.275 161.015 120.444 161.101 120.577H161.22V119.364H162.354V127.219C162.354 127.875 162.205 128.409 161.906 128.82C161.611 129.234 161.214 129.537 160.713 129.729C160.216 129.925 159.663 130.023 159.053 130.023ZM159.013 125.827C159.484 125.827 159.881 125.719 160.206 125.504C160.531 125.288 160.778 124.978 160.947 124.574C161.116 124.17 161.2 123.686 161.2 123.122C161.2 122.572 161.118 122.086 160.952 121.665C160.786 121.245 160.541 120.915 160.216 120.676C159.891 120.437 159.49 120.318 159.013 120.318C158.516 120.318 158.102 120.444 157.77 120.696C157.442 120.948 157.195 121.286 157.029 121.71C156.867 122.134 156.786 122.605 156.786 123.122C156.786 123.652 156.869 124.121 157.034 124.529C157.203 124.933 157.452 125.252 157.78 125.484C158.111 125.712 158.522 125.827 159.013 125.827ZM165.357 127.08C165.111 127.08 164.901 126.992 164.725 126.816C164.55 126.64 164.462 126.43 164.462 126.185C164.462 125.939 164.55 125.729 164.725 125.553C164.901 125.378 165.111 125.29 165.357 125.29C165.602 125.29 165.812 125.378 165.988 125.553C166.164 125.729 166.252 125.939 166.252 126.185C166.252 126.347 166.21 126.496 166.127 126.632C166.048 126.768 165.94 126.877 165.804 126.96C165.672 127.04 165.522 127.08 165.357 127.08ZM171.459 127.159C170.743 127.159 170.127 126.99 169.61 126.652C169.093 126.314 168.695 125.848 168.417 125.255C168.138 124.662 167.999 123.984 167.999 123.222C167.999 122.446 168.142 121.762 168.427 121.168C168.715 120.572 169.116 120.106 169.63 119.771C170.147 119.433 170.75 119.264 171.439 119.264C171.976 119.264 172.46 119.364 172.891 119.562C173.322 119.761 173.675 120.04 173.95 120.398C174.225 120.756 174.396 121.173 174.462 121.651H173.289C173.199 121.303 173.001 120.994 172.692 120.726C172.387 120.454 171.976 120.318 171.459 120.318C171.002 120.318 170.601 120.437 170.256 120.676C169.915 120.911 169.648 121.245 169.456 121.675C169.267 122.103 169.172 122.605 169.172 123.182C169.172 123.772 169.265 124.286 169.451 124.723C169.64 125.161 169.905 125.5 170.246 125.742C170.591 125.984 170.995 126.105 171.459 126.105C171.764 126.105 172.041 126.052 172.29 125.946C172.538 125.84 172.749 125.688 172.921 125.489C173.093 125.29 173.216 125.051 173.289 124.773H174.462C174.396 125.223 174.232 125.629 173.97 125.991C173.711 126.349 173.368 126.634 172.941 126.846C172.517 127.055 172.023 127.159 171.459 127.159ZM179.28 127.159C178.59 127.159 177.985 126.995 177.465 126.667C176.948 126.339 176.544 125.88 176.252 125.29C175.964 124.7 175.819 124.01 175.819 123.222C175.819 122.426 175.964 121.732 176.252 121.138C176.544 120.545 176.948 120.085 177.465 119.756C177.985 119.428 178.59 119.264 179.28 119.264C179.969 119.264 180.572 119.428 181.089 119.756C181.61 120.085 182.014 120.545 182.302 121.138C182.594 121.732 182.74 122.426 182.74 123.222C182.74 124.01 182.594 124.7 182.302 125.29C182.014 125.88 181.61 126.339 181.089 126.667C180.572 126.995 179.969 127.159 179.28 127.159ZM179.28 126.105C179.803 126.105 180.234 125.971 180.572 125.702C180.91 125.434 181.161 125.081 181.323 124.643C181.485 124.206 181.567 123.732 181.567 123.222C181.567 122.711 181.485 122.236 181.323 121.795C181.161 121.354 180.91 120.998 180.572 120.726C180.234 120.454 179.803 120.318 179.28 120.318C178.756 120.318 178.325 120.454 177.987 120.726C177.649 120.998 177.399 121.354 177.236 121.795C177.074 122.236 176.993 122.711 176.993 123.222C176.993 123.732 177.074 124.206 177.236 124.643C177.399 125.081 177.649 125.434 177.987 125.702C178.325 125.971 178.756 126.105 179.28 126.105ZM185.386 127.08C185.141 127.08 184.93 126.992 184.755 126.816C184.579 126.64 184.491 126.43 184.491 126.185C184.491 125.939 184.579 125.729 184.755 125.553C184.93 125.378 185.141 125.29 185.386 125.29C185.631 125.29 185.842 125.378 186.017 125.553C186.193 125.729 186.281 125.939 186.281 126.185C186.281 126.347 186.239 126.496 186.157 126.632C186.077 126.768 185.969 126.877 185.833 126.96C185.701 127.04 185.552 127.08 185.386 127.08ZM193.199 123.878V119.364H194.372V127H193.199V125.707H193.119C192.94 126.095 192.662 126.425 192.284 126.697C191.906 126.965 191.429 127.099 190.852 127.099C190.375 127.099 189.951 126.995 189.58 126.786C189.208 126.574 188.917 126.256 188.705 125.832C188.492 125.404 188.386 124.866 188.386 124.216V119.364H189.56V124.136C189.56 124.693 189.715 125.137 190.027 125.469C190.342 125.8 190.743 125.966 191.23 125.966C191.522 125.966 191.818 125.891 192.12 125.742C192.425 125.593 192.68 125.364 192.886 125.056C193.094 124.748 193.199 124.355 193.199 123.878ZM197.615 124.216L197.595 122.764H197.834L201.175 119.364H202.626L199.067 122.963H198.967L197.615 124.216ZM196.521 127V116.818H197.694V127H196.521ZM201.373 127L198.39 123.222L199.226 122.406L202.865 127H201.373Z" fill="white"/>
</svg>
