<svg width="242" height="134" viewBox="0 0 242 134" fill="none" xmlns="http://www.w3.org/2000/svg">
<path d="M107.444 75.435C105.211 77.1853 102.425 78.0788 99.5894 77.954C96.707 78.1011 93.8677 77.207 91.5894 75.435C89.6624 73.805 88.7734 71.285 88.7734 67.729V52.019H94.4054V67.728C94.3809 68.423 94.4305 69.1186 94.5534 69.803C94.6712 70.4417 94.9238 71.0478 95.2944 71.581C95.7444 72.0909 96.3008 72.4958 96.9244 72.767C97.7775 73.0831 98.6829 73.2341 99.5924 73.212C101.519 73.212 103.001 72.767 103.742 71.878C104.614 70.6775 105.034 69.2079 104.928 67.728V52.019H110.411V67.728C110.408 71.137 109.371 73.805 107.444 75.435Z" fill="white"/>
<path d="M117.82 52.019V77.213H112.781V52.019H117.82Z" fill="white"/>
<path d="M125.081 72.767C125.145 72.9768 125.259 73.1676 125.414 73.3226C125.57 73.4777 125.76 73.5922 125.97 73.656C126.316 73.9403 126.721 74.143 127.156 74.249C127.639 74.3791 128.139 74.4291 128.638 74.397C129.039 74.4126 129.439 74.3626 129.824 74.249C130.269 74.101 130.565 74.101 130.861 73.804C131.177 73.6367 131.435 73.3786 131.602 73.063C131.807 72.702 131.911 72.2922 131.902 71.877C131.902 71.136 131.457 70.543 130.42 70.247C129.067 69.7528 127.68 69.3565 126.27 69.061C125.556 68.9523 124.859 68.7531 124.195 68.468C123.492 68.3262 122.832 68.0217 122.268 67.579C121.718 67.2524 121.259 66.7931 120.932 66.243C120.613 65.5994 120.46 64.886 120.487 64.168C120.486 63.134 120.74 62.1158 121.228 61.204C121.663 60.4725 122.275 59.8613 123.006 59.426C123.785 58.9793 124.639 58.6799 125.526 58.543C126.504 58.3624 127.496 58.2621 128.49 58.243C129.436 58.2617 130.378 58.3621 131.306 58.543C132.193 58.6819 133.047 58.9833 133.825 59.432C134.557 59.8673 135.168 60.4785 135.603 61.21C136.096 62.0749 136.399 63.0349 136.492 64.026H131.602C131.64 63.6383 131.561 63.2481 131.376 62.905C131.192 62.562 130.909 62.2814 130.565 62.099C129.816 61.7816 129.007 61.6298 128.194 61.654H127.305C126.99 61.6859 126.686 61.7885 126.416 61.954C126.116 62.102 125.971 62.254 125.675 62.399C125.51 62.669 125.407 62.9729 125.375 63.288C125.37 63.4828 125.407 63.6764 125.484 63.8555C125.56 64.0345 125.675 64.1947 125.82 64.325C126.227 64.6347 126.676 64.8843 127.154 65.066L128.932 65.511C129.673 65.659 130.266 65.811 131.007 65.956C131.721 66.0647 132.418 66.264 133.082 66.549C133.823 66.849 134.416 67.142 135.009 67.438C135.567 67.8155 136.025 68.3213 136.346 68.913C136.65 69.5621 136.802 70.2716 136.791 70.988C136.812 72.0243 136.556 73.0474 136.05 73.952C135.607 74.7665 134.938 75.4356 134.123 75.879C133.312 76.4004 132.405 76.7531 131.455 76.916C130.426 77.0893 129.386 77.1896 128.343 77.216C127.3 77.1896 126.26 77.0893 125.231 76.916C124.281 76.7531 123.374 76.4004 122.563 75.879C121.781 75.3935 121.122 74.7341 120.636 73.952C120.125 72.9894 119.822 71.9303 119.746 70.843H124.488C124.499 71.5276 124.705 72.1949 125.081 72.767V72.767Z" fill="white"/>
<path d="M138.567 53.5011H143.458V58.9841H147.163V62.3931H143.458V71.4331C143.458 72.3221 143.606 72.9151 143.903 73.0631C144.374 73.4055 144.953 73.5637 145.533 73.5081H146.274C146.53 73.5311 146.787 73.4797 147.015 73.3601V77.2131C146.57 77.2131 146.126 77.3611 145.533 77.3611H144.051C143.307 77.3857 142.562 77.3361 141.828 77.2131C141.203 77.1293 140.6 76.9281 140.05 76.6201C139.51 76.3283 139.09 75.8561 138.864 75.2861C138.545 74.5895 138.393 73.8285 138.419 73.0631L138.567 53.5011Z" fill="white"/>
<path d="M153.831 72.916C154.275 73.3015 154.794 73.5923 155.354 73.7706C155.915 73.9489 156.506 74.011 157.091 73.953C158.032 73.9559 158.955 73.6995 159.759 73.212C160.402 72.8666 160.882 72.2804 161.093 71.582H165.539C165.014 73.4831 163.866 75.153 162.279 76.324C160.671 77.2987 158.825 77.8115 156.944 77.806C155.625 77.8033 154.318 77.5519 153.091 77.065C151.999 76.5995 150.996 75.9475 150.127 75.138C149.316 74.2154 148.664 73.1635 148.2 72.026C147.359 69.5172 147.412 66.7947 148.348 64.32C148.756 63.1545 149.413 62.0923 150.275 61.208C151.138 60.3523 152.14 59.6505 153.239 59.133C154.466 58.6461 155.773 58.3947 157.092 58.392C158.478 58.3536 159.853 58.659 161.092 59.281C162.217 59.819 163.186 60.635 163.907 61.652C164.656 62.6783 165.208 63.834 165.537 65.061C165.857 66.3686 165.959 67.7203 165.837 69.061H152.647C152.577 69.7501 152.646 70.4462 152.849 71.1083C153.053 71.7704 153.386 72.385 153.831 72.916ZM159.463 63.283C158.845 62.7346 158.077 62.3847 157.258 62.2789C156.438 62.1732 155.606 62.3164 154.869 62.69C154.364 62.9506 153.912 63.3022 153.535 63.727C153.232 64.1384 152.983 64.5867 152.794 65.061C152.646 65.506 152.646 65.95 152.494 66.247H160.645C160.556 65.1631 160.144 64.1307 159.463 63.283V63.283Z" fill="white"/>
<path d="M172.208 58.985V62.394C172.508 61.801 172.801 61.357 173.097 60.764C173.504 60.328 173.951 59.931 174.431 59.578C174.945 59.2703 175.492 59.0218 176.061 58.837C176.64 58.6653 177.237 58.5645 177.839 58.537C178.192 58.5132 178.545 58.5636 178.876 58.685V63.427C178.576 63.427 178.431 63.279 177.987 63.279H177.098C176.287 63.2692 175.481 63.4204 174.727 63.724C174.146 63.9958 173.638 64.4024 173.245 64.91C172.861 65.508 172.562 66.1565 172.356 66.837C172.175 67.6148 172.074 68.4094 172.056 69.208V77.508H167.021V58.985H172.208Z" fill="white"/>
<path d="M107.444 103.89C105.211 105.64 102.425 106.534 99.5894 106.409C96.707 106.556 93.8677 105.662 91.5894 103.89C89.6624 102.26 88.7734 99.7401 88.7734 96.1841V80.6221H94.4054V96.3311C94.3809 97.026 94.4305 97.7216 94.5534 98.4061C94.6712 99.0447 94.9238 99.6509 95.2944 100.184C95.7444 100.694 96.3008 101.099 96.9244 101.37C97.7775 101.686 98.6829 101.837 99.5924 101.815C101.519 101.815 103.001 101.37 103.742 100.481C104.614 99.2805 105.034 97.8109 104.928 96.3311V80.6221H110.411V96.3311C110.408 99.7401 109.371 102.259 107.444 103.89Z" fill="white"/>
<path d="M117.523 87.5881V90.1071H117.671C118.28 89.1026 119.151 88.283 120.19 87.7361C121.167 87.2812 122.225 87.0291 123.302 86.9951C124.421 86.9189 125.542 87.1227 126.562 87.5881C127.364 87.9064 128.076 88.415 128.637 89.0701C129.158 89.7719 129.512 90.5825 129.674 91.4411C129.862 92.4681 129.962 93.5091 129.974 94.5531V105.817H124.933V95.4421C124.985 94.2608 124.73 93.0863 124.192 92.0331C123.913 91.6317 123.534 91.3109 123.092 91.1027C122.649 90.8945 122.16 90.8064 121.673 90.8471C121.122 90.8093 120.569 90.8963 120.056 91.1016C119.543 91.3069 119.082 91.6253 118.709 92.0331C118.117 92.7737 117.82 94.1071 117.82 96.0331V105.666H112.781V87.5881H117.523Z" fill="white"/>
<path d="M132.342 84.7721V80.6221H137.381V84.7721H132.342ZM137.381 87.5881V105.816H132.342V87.5871L137.381 87.5881Z" fill="white"/>
<path d="M144.792 105.816L138.568 87.587H143.903L147.756 100.036L151.61 87.587H156.649L150.425 105.816H144.792Z" fill="white"/>
<path d="M161.982 101.519C162.426 101.905 162.944 102.195 163.505 102.374C164.065 102.552 164.656 102.614 165.242 102.556C166.182 102.559 167.105 102.303 167.91 101.815C168.552 101.47 169.032 100.884 169.244 100.185H173.69C173.165 102.086 172.017 103.756 170.43 104.927C168.821 105.902 166.975 106.415 165.095 106.409C163.775 106.406 162.468 106.155 161.242 105.668C160.149 105.203 159.146 104.551 158.278 103.741C157.5 102.848 156.852 101.85 156.351 100.777C155.926 99.5381 155.725 98.2334 155.758 96.9241C155.702 95.5996 155.955 94.2804 156.499 93.0711C156.906 91.9056 157.564 90.8435 158.426 89.9591C159.288 89.1034 160.29 88.4016 161.39 87.8841C162.616 87.3972 163.923 87.1458 165.243 87.1431C166.629 87.1047 168.003 87.4101 169.243 88.0321C170.367 88.5701 171.336 89.3861 172.058 90.4031C172.806 91.4294 173.359 92.5851 173.688 93.8121C174.008 95.1197 174.109 96.4714 173.988 97.8121H160.798C160.739 98.4777 160.813 99.1483 161.016 99.7848C161.22 100.421 161.548 101.011 161.982 101.519V101.519ZM167.614 91.8861C167.239 91.5312 166.796 91.2562 166.312 91.0779C165.828 90.8996 165.313 90.8217 164.798 90.8491C164.127 90.8203 163.461 90.9741 162.871 91.2941C162.366 91.5548 161.914 91.9063 161.537 92.3311C161.234 92.7425 160.985 93.1908 160.796 93.6651C160.648 94.1101 160.648 94.5541 160.496 94.8511H168.647C168.701 93.7658 168.33 92.7021 167.614 91.8851V91.8861Z" fill="white"/>
<path d="M179.916 87.5881V90.9971C180.216 90.4041 180.509 89.9601 180.805 89.3671C181.211 88.9311 181.658 88.5341 182.139 88.1811C182.652 87.8745 183.199 87.6269 183.769 87.4431C184.347 87.2713 184.944 87.1706 185.547 87.1431C185.899 87.1193 186.252 87.1697 186.584 87.2911V92.0331C186.284 92.0331 186.139 91.8851 185.695 91.8851H184.806C183.994 91.8753 183.188 92.0265 182.435 92.3301C181.853 92.6019 181.345 93.0085 180.953 93.5161C180.51 94.0802 180.205 94.7401 180.064 95.4431C179.882 96.2209 179.781 97.0155 179.764 97.8141V106.114H174.729V87.5881H179.916Z" fill="white"/>
<path d="M192.808 101.37C192.872 101.58 192.986 101.771 193.141 101.926C193.297 102.081 193.487 102.195 193.697 102.259C194.043 102.543 194.448 102.746 194.883 102.852C195.366 102.982 195.866 103.032 196.365 103C196.766 103.016 197.166 102.966 197.551 102.852C197.996 102.704 198.292 102.704 198.588 102.407C198.904 102.24 199.162 101.982 199.329 101.666C199.534 101.305 199.638 100.895 199.629 100.48C199.629 99.739 199.184 99.146 198.147 98.85C196.794 98.3558 195.407 97.9595 193.997 97.664C193.283 97.5553 192.586 97.3561 191.922 97.071C191.219 96.9292 190.559 96.6247 189.995 96.182C189.446 95.8557 188.987 95.3971 188.661 94.848C188.342 94.2044 188.189 93.491 188.216 92.773C188.215 91.739 188.469 90.7208 188.957 89.809C189.392 89.0775 190.004 88.4663 190.735 88.031C191.513 87.5823 192.367 87.2809 193.254 87.142C194.232 86.9614 195.224 86.8611 196.218 86.842C197.164 86.8607 198.106 86.9611 199.034 87.142C199.921 87.2809 200.775 87.5823 201.553 88.031C202.285 88.4663 202.896 89.0775 203.331 89.809C203.824 90.6739 204.127 91.6339 204.22 92.625H199.478C199.516 92.2373 199.437 91.8471 199.252 91.504C199.068 91.161 198.785 90.8804 198.441 90.698C197.692 90.3805 196.883 90.2287 196.07 90.253H195.181C194.866 90.2849 194.562 90.3875 194.292 90.553C193.992 90.701 193.847 90.853 193.551 90.998C193.386 91.268 193.283 91.5719 193.251 91.887C193.23 92.0835 193.26 92.2821 193.338 92.4636C193.416 92.6452 193.539 92.8037 193.696 92.924C194.103 93.2337 194.552 93.4833 195.03 93.665L196.808 94.11C197.549 94.258 198.142 94.41 198.883 94.555C199.597 94.6637 200.294 94.863 200.958 95.148C201.699 95.448 202.292 95.741 202.885 96.037C203.443 96.4157 203.901 96.923 204.221 97.516C204.525 98.1651 204.677 98.8746 204.666 99.591C204.687 100.627 204.431 101.65 203.925 102.555C203.482 103.369 202.812 104.039 201.998 104.482C201.187 105.003 200.28 105.356 199.33 105.519C197.274 105.914 195.162 105.914 193.106 105.519C192.156 105.356 191.249 105.003 190.438 104.482C189.656 103.997 188.997 103.337 188.511 102.555C188 101.592 187.697 100.533 187.621 99.446H192.363C192.443 100.101 192.592 100.746 192.808 101.37Z" fill="white"/>
<path d="M206.295 84.7721V80.6221H211.334V84.7721H206.295ZM211.334 87.5881V105.816H206.295V87.5871L211.334 87.5881Z" fill="white"/>
<path d="M213.706 82.1041H218.745V87.5871H222.45V90.9961H218.745V100.036C218.745 100.925 218.893 101.518 219.19 101.666C219.661 102.008 220.24 102.167 220.82 102.111H221.561C221.817 102.134 222.074 102.083 222.302 101.963V105.816C221.857 105.816 221.413 105.964 220.82 105.964H219.338C218.594 105.989 217.849 105.939 217.115 105.816C216.49 105.732 215.887 105.531 215.337 105.223C214.797 104.931 214.378 104.459 214.151 103.889C213.833 103.193 213.68 102.432 213.706 101.666V82.1041Z" fill="white"/>
<path d="M231.637 111.299C230.403 111.938 229.024 112.244 227.637 112.188H226.153C225.708 112.188 225.116 112.04 224.671 112.04V107.887C225.116 107.887 225.56 108.035 226.153 108.035H227.635C227.923 108.037 228.207 107.971 228.465 107.843C228.722 107.714 228.946 107.526 229.117 107.294C229.418 106.86 229.574 106.341 229.562 105.812C229.586 105.411 229.536 105.009 229.414 104.626L222.893 87.587H228.228L232.378 100.036L236.378 87.587H241.565L233.859 108.187C233.555 109.476 232.757 110.594 231.637 111.299V111.299Z" fill="white"/>
<path d="M88.7712 0H77.6562C77.6562 0 89.5123 1.334 97.0703 16.747H108.185C100.627 1.334 88.7712 0 88.7712 0Z" fill="white"/>
<path d="M108.335 16.747C111.151 10.226 113.374 2.223 124.785 0H111.296C108.761 0.455405 106.342 1.41282 104.182 2.816C103.882 2.964 103.589 3.261 103.293 3.409C105.072 5.11798 106.447 7.20184 107.319 9.50905C108.191 11.8163 108.538 14.2888 108.335 16.747V16.747Z" fill="white"/>
<path d="M46.683 25.935V105.667C46.683 112.04 48.61 117.227 52.166 120.635C56.466 124.34 65.356 126.859 73.952 126.859C79.0785 126.947 84.1848 126.196 89.069 124.636C92.7473 123.45 96.097 121.42 98.85 118.708C98.9308 118.627 99.0364 118.575 99.15 118.56V118.86C98.113 120.194 95.593 123.16 89.369 126.566C80.922 131.308 72.474 133.383 60.769 133.383C40.469 133.235 21.792 126.121 13.048 115.006C9.639 110.56 8.157 106.406 8.157 97.815V12.152C8.13209 9.55132 7.34642 7.01481 5.89691 4.85539C4.44741 2.69597 2.39748 1.0081 0 0H25.491C32.16 0 46.683 5.928 46.683 25.935Z" fill="white"/>
</svg>
