<svg width="145" height="24" viewBox="0 0 145 24" fill="none" xmlns="http://www.w3.org/2000/svg">
<path d="M12.4964 10.326H10.1058C10.0376 9.93395 9.91193 9.58665 9.72869 9.28409C9.54545 8.97727 9.31747 8.71733 9.04474 8.50426C8.77202 8.29119 8.46094 8.13139 8.11151 8.02486C7.76634 7.91406 7.39347 7.85866 6.9929 7.85866C6.28125 7.85866 5.65057 8.03764 5.10085 8.3956C4.55114 8.74929 4.12074 9.26918 3.80966 9.95526C3.49858 10.6371 3.34304 11.4702 3.34304 12.4545C3.34304 13.456 3.49858 14.2997 3.80966 14.9858C4.125 15.6676 4.5554 16.1832 5.10085 16.5327C5.65057 16.8778 6.27912 17.0504 6.98651 17.0504C7.37855 17.0504 7.74503 16.9993 8.08594 16.897C8.43111 16.7905 8.74006 16.6349 9.01278 16.4304C9.28977 16.2259 9.52202 15.9744 9.70952 15.6761C9.90128 15.3778 10.0334 15.0369 10.1058 14.6534L12.4964 14.6662C12.407 15.2884 12.2131 15.8722 11.9148 16.4176C11.6207 16.9631 11.2351 17.4446 10.7578 17.8622C10.2805 18.2756 9.7223 18.5994 9.0831 18.8338C8.44389 19.0639 7.73438 19.179 6.95455 19.179C5.80398 19.179 4.77699 18.9126 3.87358 18.38C2.97017 17.8473 2.25852 17.0781 1.73864 16.0724C1.21875 15.0668 0.958807 13.8608 0.958807 12.4545C0.958807 11.044 1.22088 9.83807 1.74503 8.83665C2.26918 7.83097 2.98295 7.06179 3.88636 6.52912C4.78977 5.99645 5.8125 5.73011 6.95455 5.73011C7.68324 5.73011 8.3608 5.83239 8.98722 6.03693C9.61364 6.24148 10.1719 6.5419 10.6619 6.93821C11.152 7.33026 11.5547 7.81179 11.87 8.38281C12.1896 8.94957 12.3984 9.5973 12.4964 10.326ZM16.6818 13.2472V19H14.3679V5.90909H16.6307V10.8501H16.7457C16.9758 10.2962 17.3317 9.85937 17.8132 9.53977C18.299 9.21591 18.9169 9.05398 19.6669 9.05398C20.3487 9.05398 20.9432 9.19673 21.4503 9.48224C21.9574 9.76776 22.3494 10.1854 22.6264 10.7351C22.9076 11.2848 23.0483 11.956 23.0483 12.7486V19H20.7344V13.1065C20.7344 12.446 20.5639 11.9325 20.223 11.5661C19.8863 11.1953 19.4133 11.0099 18.804 11.0099C18.3949 11.0099 18.0284 11.0994 17.7045 11.2784C17.3849 11.4531 17.1335 11.7067 16.9503 12.0391C16.7713 12.3714 16.6818 12.7741 16.6818 13.2472ZM29.5555 19.1918C28.5712 19.1918 27.721 18.9872 27.0051 18.5781C26.2935 18.1648 25.7459 17.581 25.3623 16.8267C24.9788 16.0682 24.7871 15.1754 24.7871 14.1484C24.7871 13.1385 24.9788 12.2521 25.3623 11.4893C25.7501 10.7223 26.2913 10.1257 26.9859 9.69957C27.6805 9.26918 28.4966 9.05398 29.4341 9.05398C30.0392 9.05398 30.6102 9.15199 31.1471 9.34801C31.6883 9.53977 32.1656 9.83807 32.579 10.2429C32.9966 10.6477 33.3247 11.1634 33.5633 11.7898C33.802 12.4119 33.9213 13.1534 33.9213 14.0142V14.7237H25.8737V13.1641H31.7033C31.699 12.7209 31.6031 12.3267 31.4156 11.9815C31.2281 11.6321 30.966 11.3572 30.6294 11.157C30.297 10.9567 29.9092 10.8565 29.466 10.8565C28.993 10.8565 28.5775 10.9716 28.2196 11.2017C27.8616 11.4276 27.5825 11.7259 27.3822 12.0966C27.1862 12.4631 27.0861 12.8658 27.0818 13.3047V14.6662C27.0818 15.2372 27.1862 15.7273 27.395 16.1364C27.6038 16.5412 27.8957 16.8523 28.2707 17.0696C28.6457 17.2827 29.0846 17.3892 29.5875 17.3892C29.9241 17.3892 30.2288 17.3423 30.5016 17.2486C30.7743 17.1506 31.0108 17.0078 31.2111 16.8203C31.4114 16.6328 31.5626 16.4006 31.6649 16.1236L33.8254 16.3665C33.689 16.9375 33.4291 17.4361 33.0456 17.8622C32.6663 18.2841 32.1805 18.6122 31.5882 18.8466C30.9959 19.0767 30.3183 19.1918 29.5555 19.1918ZM39.9635 19.1918C38.9834 19.1918 38.1418 18.9766 37.4387 18.5462C36.7398 18.1158 36.2007 17.5213 35.8215 16.7628C35.4465 16 35.259 15.1222 35.259 14.1293C35.259 13.1321 35.4507 12.2521 35.8343 11.4893C36.2178 10.7223 36.759 10.1257 37.4578 9.69957C38.161 9.26918 38.9919 9.05398 39.9507 9.05398C40.7476 9.05398 41.4529 9.20099 42.0665 9.49503C42.6844 9.7848 43.1766 10.196 43.5431 10.7287C43.9095 11.2571 44.1184 11.875 44.1695 12.5824H41.9578C41.8684 12.1094 41.6553 11.7152 41.3186 11.3999C40.9863 11.0803 40.5409 10.9205 39.9827 10.9205C39.5097 10.9205 39.0942 11.0483 38.7363 11.304C38.3783 11.5554 38.0992 11.9176 37.8989 12.3906C37.7029 12.8636 37.6049 13.4304 37.6049 14.0909C37.6049 14.7599 37.7029 15.3352 37.8989 15.8168C38.0949 16.294 38.3698 16.6626 38.7235 16.9226C39.0814 17.1783 39.5012 17.3061 39.9827 17.3061C40.3236 17.3061 40.6283 17.2422 40.8968 17.1143C41.1695 16.9822 41.3975 16.7926 41.5807 16.5455C41.764 16.2983 41.8897 15.9979 41.9578 15.6442H44.1695C44.1141 16.3388 43.9095 16.9545 43.5559 17.4915C43.2022 18.0241 42.7206 18.4418 42.1113 18.7443C41.5019 19.0426 40.786 19.1918 39.9635 19.1918ZM47.9809 15.919L47.9745 13.1257H48.3453L51.8737 9.18182H54.5775L50.2373 14.0142H49.7579L47.9809 15.919ZM45.8715 19V5.90909H48.1855V19H45.8715ZM52.0335 19L48.8374 14.532L50.3971 12.902L54.8012 19H52.0335ZM71.0485 5.90909V19H68.9391L62.7708 10.0831H62.6621V19H60.2907V5.90909H62.4129L68.5748 14.8324H68.6898V5.90909H71.0485ZM77.6149 19.1918C76.6561 19.1918 75.8251 18.9808 75.122 18.5589C74.4189 18.1371 73.8734 17.5469 73.4856 16.7884C73.1021 16.0298 72.9103 15.1435 72.9103 14.1293C72.9103 13.1151 73.1021 12.2266 73.4856 11.4638C73.8734 10.701 74.4189 10.1087 75.122 9.68679C75.8251 9.26491 76.6561 9.05398 77.6149 9.05398C78.5737 9.05398 79.4047 9.26491 80.1078 9.68679C80.8109 10.1087 81.3542 10.701 81.7378 11.4638C82.1255 12.2266 82.3194 13.1151 82.3194 14.1293C82.3194 15.1435 82.1255 16.0298 81.7378 16.7884C81.3542 17.5469 80.8109 18.1371 80.1078 18.5589C79.4047 18.9808 78.5737 19.1918 77.6149 19.1918ZM77.6277 17.3381C78.1476 17.3381 78.5822 17.1953 78.9316 16.9098C79.2811 16.62 79.541 16.2322 79.7115 15.7464C79.8862 15.2607 79.9736 14.7195 79.9736 14.1229C79.9736 13.522 79.8862 12.9787 79.7115 12.4929C79.541 12.0028 79.2811 11.6129 78.9316 11.3232C78.5822 11.0334 78.1476 10.8885 77.6277 10.8885C77.095 10.8885 76.6518 11.0334 76.2981 11.3232C75.9487 11.6129 75.6866 12.0028 75.5119 12.4929C75.3414 12.9787 75.2562 13.522 75.2562 14.1229C75.2562 14.7195 75.3414 15.2607 75.5119 15.7464C75.6866 16.2322 75.9487 16.62 76.2981 16.9098C76.6518 17.1953 77.095 17.3381 77.6277 17.3381ZM85.8304 19L83.0563 9.18182H85.4149L87.1408 16.0852H87.2303L88.9945 9.18182H91.3276L93.0918 16.0469H93.1877L94.8879 9.18182H97.253L94.4725 19H92.0627L90.2218 12.3651H90.0875L88.2466 19H85.8304Z" fill="white"/>
<path d="M106 11C105.448 11 105 11.4477 105 12C105 12.5523 105.448 13 106 13L106 11ZM144.707 12.7071C145.098 12.3166 145.098 11.6834 144.707 11.2929L138.343 4.92894C137.953 4.53841 137.319 4.53841 136.929 4.92893C136.538 5.31946 136.538 5.95262 136.929 6.34315L142.586 12L136.929 17.6569C136.538 18.0474 136.538 18.6805 136.929 19.0711C137.319 19.4616 137.953 19.4616 138.343 19.0711L144.707 12.7071ZM106 13L144 13L144 11L106 11L106 13Z" fill="white"/>
</svg>
