<svg width="91" height="70" viewBox="0 0 91 70" fill="none" xmlns="http://www.w3.org/2000/svg">
<path d="M43.9062 18.125L15.1562 41.875V67.3438C15.1562 68.75 16.25 69.8438 17.6562 69.8438H35.1562C36.4062 69.8438 37.5 68.75 37.5 67.3438V52.3438C37.5 51.0938 38.75 49.8438 40 49.8438H50C51.4062 49.8438 52.5 51.0938 52.5 52.3438V67.3438C52.5 68.75 53.75 69.8438 55 69.8438H72.6562C73.9062 69.8438 75.1562 68.75 75.1562 67.3438V41.7188L46.25 18.125C45.9375 17.8125 45.4688 17.6562 45.1562 17.6562C44.6875 17.6562 44.2188 17.8125 43.9062 18.125ZM89.375 34.2188L76.4062 23.4375V1.875C76.4062 0.78125 75.4688 0 74.5312 0H65.7812C64.6875 0 63.9062 0.78125 63.9062 1.875V13.125L49.8438 1.5625C48.5938 0.625 46.875 0 45.1562 0C43.2812 0 41.5625 0.625 40.3125 1.5625L0.78125 34.2188C0.3125 34.5312 0 35.1562 0 35.625C0 36.0938 0.3125 36.5625 0.46875 36.875L4.53125 41.7188C4.84375 42.1875 5.3125 42.3438 5.9375 42.3438C6.40625 42.3438 6.875 42.1875 7.1875 41.875L43.9062 11.7188C44.2188 11.4062 44.6875 11.25 45.1562 11.25C45.4688 11.25 45.9375 11.4062 46.25 11.7188L82.9688 41.875C83.2812 42.1875 83.75 42.3438 84.2188 42.3438C84.8438 42.3438 85.3125 42.1875 85.625 41.7188L89.6875 36.875C90 36.5625 90.1562 36.0938 90.1562 35.625C90.1562 35.1562 89.8438 34.5312 89.375 34.2188Z" fill="#2154AC"/>
</svg>
