<svg width="70" height="80" viewBox="0 0 70 80" fill="none" xmlns="http://www.w3.org/2000/svg">
<path d="M68.125 75H65V3.75C65 1.71875 63.2812 0 61.25 0H8.75C6.5625 0 5 1.71875 5 3.75V75H1.875C0.78125 75 0 75.9375 0 76.875V80H70V76.875C70 75.9375 69.0625 75 68.125 75ZM20 11.875C20 10.9375 20.7812 10 21.875 10H28.125C29.0625 10 30 10.9375 30 11.875V18.125C30 19.2188 29.0625 20 28.125 20H21.875C20.7812 20 20 19.2188 20 18.125V11.875ZM20 26.875C20 25.9375 20.7812 25 21.875 25H28.125C29.0625 25 30 25.9375 30 26.875V33.125C30 34.2188 29.0625 35 28.125 35H21.875C20.7812 35 20 34.2188 20 33.125V26.875ZM28.125 50H21.875C20.7812 50 20 49.2188 20 48.125V41.875C20 40.9375 20.7812 40 21.875 40H28.125C29.0625 40 30 40.9375 30 41.875V48.125C30 49.2188 29.0625 50 28.125 50ZM40 75H30V61.875C30 60.9375 30.7812 60 31.875 60H38.125C39.0625 60 40 60.9375 40 61.875V75ZM50 48.125C50 49.2188 49.0625 50 48.125 50H41.875C40.7812 50 40 49.2188 40 48.125V41.875C40 40.9375 40.7812 40 41.875 40H48.125C49.0625 40 50 40.9375 50 41.875V48.125ZM50 33.125C50 34.2188 49.0625 35 48.125 35H41.875C40.7812 35 40 34.2188 40 33.125V26.875C40 25.9375 40.7812 25 41.875 25H48.125C49.0625 25 50 25.9375 50 26.875V33.125ZM50 18.125C50 19.2188 49.0625 20 48.125 20H41.875C40.7812 20 40 19.2188 40 18.125V11.875C40 10.9375 40.7812 10 41.875 10H48.125C49.0625 10 50 10.9375 50 11.875V18.125Z" fill="#2154AC"/>
</svg>
