<svg width="24" height="24" viewBox="0 0 24 24" fill="none" xmlns="http://www.w3.org/2000/svg">
<path d="M12.2505 0.500977C9.9388 0.500977 7.679 1.18649 5.7569 2.47083C3.83479 3.75517 2.33671 5.58064 1.45211 7.7164C0.567498 9.85216 0.336095 12.2023 0.78716 14.4696C1.23823 16.7368 2.3515 18.8194 3.98619 20.454C5.62089 22.0886 7.70359 23.2016 9.9709 23.6525C12.2382 24.1034 14.5883 23.8718 16.724 22.987C18.8597 22.1022 20.685 20.604 21.9692 18.6818C23.2534 16.7595 23.9387 14.4997 23.9385 12.188C23.938 9.08838 22.7064 6.1159 20.5145 3.92425C18.3227 1.7326 15.3501 0.501242 12.2505 0.500977ZM12.2505 5.68498C12.6419 5.68498 13.0245 5.80104 13.35 6.0185C13.6754 6.23595 13.9291 6.54503 14.0789 6.90665C14.2286 7.26826 14.2678 7.66617 14.1915 8.05006C14.1151 8.43395 13.9266 8.78657 13.6499 9.06334C13.3731 9.34011 13.0205 9.52859 12.6366 9.60495C12.2527 9.68131 11.8548 9.64212 11.4932 9.49233C11.1316 9.34255 10.8225 9.0889 10.605 8.76345C10.3876 8.43801 10.2715 8.05539 10.2715 7.66398C10.2714 7.40401 10.3225 7.14656 10.4219 6.90634C10.5213 6.66612 10.667 6.44784 10.8508 6.26397C11.0346 6.08009 11.2528 5.93423 11.4929 5.83471C11.7331 5.7352 11.9905 5.68398 12.2505 5.68398V5.68498ZM14.8895 17.655C14.8895 17.8051 14.8299 17.9491 14.7237 18.0552C14.6176 18.1613 14.4736 18.221 14.3235 18.221H10.1765C10.0264 18.221 9.88243 18.1613 9.77628 18.0552C9.67014 17.9491 9.61051 17.8051 9.61051 17.655V16.524C9.61051 16.3739 9.67014 16.2299 9.77628 16.1238C9.88243 16.0176 10.0264 15.958 10.1765 15.958H10.7425V12.938H10.1765C10.0264 12.938 9.88243 12.8783 9.77628 12.7722C9.67014 12.6661 9.61051 12.5221 9.61051 12.372V11.245C9.61051 11.0949 9.67014 10.9509 9.77628 10.8448C9.88243 10.7386 10.0264 10.679 10.1765 10.679H13.1925C13.3426 10.679 13.4866 10.7386 13.5927 10.8448C13.6989 10.9509 13.7585 11.0949 13.7585 11.245V15.958H14.3245C14.4746 15.958 14.6186 16.0176 14.7247 16.1238C14.8309 16.2299 14.8905 16.3739 14.8905 16.524L14.8895 17.655Z" fill="white"/>
</svg>
