<svg width="17" height="27" viewBox="0 0 17 27" fill="none" xmlns="http://www.w3.org/2000/svg">
<path d="M8.325 0.176025C6.11707 0.176025 3.99958 1.05312 2.43834 2.61436C0.877096 4.1756 0 6.2931 0 8.50103C0 16.826 8.325 26.817 8.325 26.817C8.325 26.817 16.65 16.826 16.65 8.50103C16.65 7.40777 16.4347 6.32522 16.0163 5.31519C15.5979 4.30515 14.9847 3.38741 14.2117 2.61436C13.4386 1.84131 12.5209 1.2281 11.5108 0.809728C10.5008 0.391358 9.41825 0.176025 8.325 0.176025ZM8.325 13.601C7.31632 13.601 6.33028 13.3019 5.49159 12.7415C4.6529 12.1811 3.99922 11.3846 3.61321 10.4527C3.22721 9.52081 3.12621 8.49537 3.323 7.50606C3.51978 6.51676 4.00551 5.60803 4.71876 4.89478C5.432 4.18153 6.34074 3.69581 7.33004 3.49902C8.31934 3.30224 9.34478 3.40323 10.2767 3.78924C11.2086 4.17525 12.0051 4.82893 12.5655 5.66762C13.1259 6.50631 13.425 7.49234 13.425 8.50103C13.425 9.17077 13.2931 9.83395 13.0368 10.4527C12.7805 11.0715 12.4048 11.6337 11.9312 12.1073C11.4577 12.5808 10.8954 12.9565 10.2767 13.2128C9.65793 13.4691 8.99474 13.601 8.325 13.601ZM5.099 8.50103C5.0992 7.86303 5.28857 7.23941 5.64317 6.70903C5.99776 6.17865 6.50166 5.76532 7.09116 5.5213C7.68065 5.27729 8.32926 5.21355 8.95498 5.33813C9.58069 5.46272 10.1554 5.77005 10.6065 6.22125C11.0575 6.67246 11.3647 7.24728 11.4891 7.87303C11.6135 8.49879 11.5495 9.14738 11.3053 9.73679C11.0611 10.3262 10.6477 10.83 10.1172 11.1844C9.58668 11.5388 8.963 11.728 8.325 11.728C7.46941 11.728 6.64887 11.3881 6.04387 10.7832C5.43888 10.1782 5.099 9.35761 5.099 8.50203V8.50103Z" fill="white"/>
</svg>
