<svg width="80" height="80" viewBox="0 0 80 80" fill="none" xmlns="http://www.w3.org/2000/svg">
<path d="M27.5 33.75H52.5C53.75 33.75 55 32.6562 55 31.25V28.75C55 27.5 53.75 26.25 52.5 26.25H27.5C26.0938 26.25 25 27.5 25 28.75V31.25C25 32.6562 26.0938 33.75 27.5 33.75ZM25 46.25C25 47.6562 26.0938 48.75 27.5 48.75H52.5C53.75 48.75 55 47.6562 55 46.25V43.75C55 42.5 53.75 41.25 52.5 41.25H27.5C26.0938 41.25 25 42.5 25 43.75V46.25ZM40 65.3125C37.3438 65.3125 34.8438 64.5312 32.6562 62.8125L0 39.2188V72.5C0 76.7188 3.28125 80 7.5 80H72.5C76.5625 80 80 76.7188 80 72.5V39.2188L47.1875 62.8125C45 64.5312 42.5 65.3125 40 65.3125ZM77.0312 25.4688C75.625 24.5312 74.375 23.4375 72.5 22.0312V15C72.5 10.9375 69.0625 7.5 65 7.5H52.8125C52.3438 7.1875 51.875 6.875 51.4062 6.5625C48.75 4.6875 43.5938 0 40 0C36.25 0 31.0938 4.6875 28.4375 6.5625C27.9688 6.875 27.5 7.1875 27.0312 7.5H15C10.7812 7.5 7.5 10.9375 7.5 15V22.0312C5.46875 23.4375 4.21875 24.5312 2.8125 25.4688C1.09375 26.875 0 29.0625 0 31.4062V33.125L15 43.9062V15H65V43.9062L80 33.125V31.4062C80 29.0625 78.9062 27.0312 77.0312 25.4688Z" fill="#2154AC"/>
</svg>
