<svg width="21" height="26" viewBox="0 0 21 26" fill="none" xmlns="http://www.w3.org/2000/svg">
<path d="M19.9091 10.4545C19.9091 17.8081 10.4545 24.1111 10.4545 24.1111C10.4545 24.1111 1 17.8081 1 10.4545C1 7.94704 1.9961 5.54224 3.76917 3.76917C5.54224 1.9961 7.94704 1 10.4545 1C12.962 1 15.3668 1.9961 17.1399 3.76917C18.913 5.54224 19.9091 7.94704 19.9091 10.4545Z" stroke="#2154AC" stroke-width="2" stroke-linecap="round" stroke-linejoin="round"/>
<path d="M10.4547 13.6061C12.1953 13.6061 13.6063 12.1951 13.6063 10.4546C13.6063 8.71402 12.1953 7.30304 10.4547 7.30304C8.7142 7.30304 7.30322 8.71402 7.30322 10.4546C7.30322 12.1951 8.7142 13.6061 10.4547 13.6061Z" stroke="#2154AC" stroke-width="2" stroke-linecap="round" stroke-linejoin="round"/>
</svg>
