<svg width="21" height="26" viewBox="0 0 21 26" fill="none" xmlns="http://www.w3.org/2000/svg">
<path d="M19.9091 11.2499C19.9091 18.5321 10.4545 24.774 10.4545 24.774C10.4545 24.774 1 18.5321 1 11.2499C1 8.76674 1.9961 6.38527 3.76917 4.6294C5.54224 2.87352 7.94704 1.88708 10.4545 1.88708C12.962 1.88708 15.3668 2.87352 17.1399 4.6294C18.913 6.38527 19.9091 8.76674 19.9091 11.2499Z" stroke="#757575" stroke-width="2" stroke-linecap="round" stroke-linejoin="round"/>
<path d="M10.4543 14.3709C12.1948 14.3709 13.6058 12.9736 13.6058 11.25C13.6058 9.52632 12.1948 8.12903 10.4543 8.12903C8.71372 8.12903 7.30273 9.52632 7.30273 11.25C7.30273 12.9736 8.71372 14.3709 10.4543 14.3709Z" stroke="#757575" stroke-width="2" stroke-linecap="round" stroke-linejoin="round"/>
</svg>
