<svg width="114" height="60" viewBox="0 0 114 60" fill="none" xmlns="http://www.w3.org/2000/svg">
<g clip-path="url(#clip0_843_165)">
<path d="M18.9295 58.7606C18.0281 58.7606 17.4647 58.4789 17.0703 58.1972L17.4647 57.5211C17.7464 57.7465 18.2534 57.9718 18.8731 57.9718C19.4365 57.9718 20.1126 57.6901 20.1126 57.0704C20.1126 56 18.5351 55.7746 17.7464 54.9296C17.4647 54.6479 17.2957 54.2535 17.2957 53.7465C17.2957 52.8451 18.0281 52.0563 19.2675 52.0563C19.9436 52.0563 20.4506 52.2253 20.7886 52.3944V53.2394C20.3943 53.0141 19.8872 52.7887 19.3238 52.7887C18.7041 52.7887 18.1971 53.0141 18.1971 53.6338C18.1971 54.9859 21.0703 54.9859 21.0703 56.9577C21.0703 58.0845 20.1689 58.7606 18.9295 58.7606Z" fill="black"/>
<path d="M23.9441 53.0141C24.5075 52.4507 25.3525 52.1127 26.2539 52.1127C27.268 52.1127 28.1131 52.507 28.6765 53.1268C29.1835 53.6901 29.5215 54.5352 29.5215 55.4366C29.5215 56.4507 29.1835 57.2958 28.5638 57.8592C28.0004 58.4225 27.2117 58.7606 26.2539 58.7606C25.3525 58.7606 24.6201 58.4789 24.0004 57.9718C23.3807 57.3521 22.9863 56.507 22.9863 55.493C23.0427 54.4789 23.3807 53.6338 23.9441 53.0141ZM26.2539 52.9014C24.8455 52.9014 23.9441 53.9155 23.9441 55.4366C23.9441 57.0141 24.8455 57.9718 26.2539 57.9718C27.6624 57.9718 28.5638 56.9577 28.5638 55.4366C28.5638 53.9718 27.7187 52.9014 26.2539 52.9014Z" fill="black"/>
<path d="M36.2814 58.0845C35.887 58.4789 35.2673 58.7606 34.3659 58.7606C33.5208 58.7606 32.9574 58.5352 32.5631 58.1972C32.056 57.6901 31.9434 56.9577 31.9434 56.338V52.169H32.8448V56.2817C32.8448 56.7324 32.9574 57.2394 33.2955 57.5775C33.5208 57.8591 33.9152 58.0282 34.4222 58.0282C35.0419 58.0282 35.4363 57.8591 35.6617 57.5775C35.9434 57.2958 36.056 56.8451 36.056 56.338V52.169H36.9574V56.3944C36.8448 57.0141 36.6758 57.6338 36.2814 58.0845Z" fill="black"/>
<path d="M43.5497 52.9577H41.7469V58.7042H40.8455V52.9577H38.9863V52.169H43.8314L43.5497 52.9577Z" fill="black"/>
<path d="M50.1411 58.6479V55.7746H46.7608V58.7042H45.8594V52.169H46.7608V54.9859H50.1411V52.169H51.0425V58.6479H50.1411Z" fill="black"/>
<path d="M57.803 58.6479L57.127 56.9577H54.6481L54.0284 58.6479H53.127L55.6058 52.1127H56.1692L58.7044 58.6479H57.803ZM56.1692 54.2535C56.0565 53.9155 55.9439 53.6901 55.9439 53.4648C55.8875 53.6901 55.8312 53.9718 55.6622 54.2535L54.9298 56.2254H56.8453L56.1692 54.2535Z" fill="black"/>
<path d="M66.1978 58.6479V54.2535C66.1978 54.0282 66.1978 53.8591 66.1978 53.5775C66.0851 53.8591 65.9725 54.0845 65.8598 54.2535L64.226 56.8451H63.7189L62.0288 54.2535C61.9161 54.0845 61.8034 53.9155 61.6908 53.6338C61.7471 53.9155 61.7471 54.0845 61.7471 54.3099V58.7606H60.8457V52.169H61.6908L63.6626 55.0986C63.8316 55.3803 63.9443 55.5493 64.0006 55.7183C64.057 55.5493 64.1696 55.3803 64.3387 55.0986L66.1978 52.169H67.0992V58.6479H66.1978Z" fill="black"/>
<path d="M71.0985 56.338H70.7041V58.6479H69.8027V52.169H71.2675C72.6196 52.169 73.521 52.9014 73.521 54.1972C73.521 55.3239 72.845 56.338 71.0985 56.338ZM71.2112 52.9577H70.7041V55.6056H71.2112C72.1689 55.6056 72.5633 55.0422 72.5633 54.2535C72.5633 53.4648 72.1126 52.9577 71.2112 52.9577Z" fill="black"/>
<path d="M79.831 52.9577H78.0281V58.7042H77.1267V52.9577H75.2676V52.169H80.1126L79.831 52.9577Z" fill="black"/>
<path d="M82.2527 53.0141C82.816 52.4507 83.6611 52.1127 84.5625 52.1127C85.5766 52.1127 86.4217 52.507 86.9851 53.1268C87.4921 53.6901 87.8301 54.5352 87.8301 55.4366C87.8301 56.4507 87.4921 57.2958 86.8724 57.8592C86.309 58.4225 85.5203 58.7606 84.5625 58.7606C83.6611 58.7606 82.9287 58.4789 82.309 57.9718C81.6893 57.3521 81.2949 56.507 81.2949 55.493C81.3513 54.4789 81.6893 53.6338 82.2527 53.0141ZM84.6189 52.9014C83.2104 52.9014 82.309 53.9155 82.309 55.4366C82.309 57.0141 83.2104 57.9718 84.6189 57.9718C86.0273 57.9718 86.9287 56.9577 86.9287 55.4366C86.9287 53.9718 86.0837 52.9014 84.6189 52.9014Z" fill="black"/>
<path d="M94.9866 58.6479L91.8317 54.4789C91.4936 54.0282 91.3246 53.7465 91.1556 53.5211C91.1556 53.7465 91.212 54.0282 91.212 54.3099V58.6479H90.3105V52.169H91.212L94.2542 56.2253C94.6486 56.7324 94.8176 57.0141 94.9866 57.2394C94.9866 57.0141 94.9866 56.7324 94.9866 56.3944V52.169H95.888V58.6479H94.9866Z" fill="black"/>
<path d="M7.94449 35.6056C7.38111 36.169 6.53604 36.507 5.2966 36.507C4.1135 36.507 3.38111 36.169 2.87406 35.7183C2.14167 34.9859 1.97266 33.9155 1.97266 33.0704V27.0986H2.98674V33.0704C2.98674 33.6901 3.09942 34.4789 3.6628 34.9859C4.00082 35.3803 4.56421 35.6056 5.35294 35.6056C6.25435 35.6056 6.81773 35.3803 7.21209 34.9859C7.60646 34.5352 7.77547 33.9155 7.77547 33.1831V27.0986H8.78956V33.2958C8.78956 34.1408 8.50787 34.9859 7.94449 35.6056Z" fill="black"/>
<path d="M22.3666 36.3943L17.6906 30.1408C17.1272 29.4084 16.9018 29.0704 16.7328 28.676H16.6765C16.6765 29.0141 16.7328 29.2958 16.7328 29.8028V36.3943H15.7188V27.0986H16.7892L21.2962 33.1267C21.9159 33.9718 22.1976 34.3098 22.3666 34.7042C22.3666 34.3662 22.3666 34.0845 22.3666 33.5774V27.0986H23.3807V36.3943H22.3666Z" fill="black"/>
<path d="M31.2114 27.0986H30.1973V36.3943H31.2114V27.0986Z" fill="black"/>
<path d="M41.2957 36.4507H40.7323L37.0703 27.1549H38.1407L40.5069 33.3521C40.6759 33.8028 40.845 34.3098 41.014 34.7605H41.1267C41.2957 34.3098 41.4647 33.8591 41.6337 33.3521L44.2252 27.1549H45.2957L41.2957 36.4507Z" fill="black"/>
<path d="M51.1562 36.3943V27.0986H55.7196L55.3253 28.0563H52.1703V31.1549H55.2689V32.1127H52.1703V35.4366H55.776V36.3943H51.1562Z" fill="black"/>
<path d="M66.7614 36.3943C65.2966 34.0281 64.3952 32.4507 63.9445 32.4507H63.0431V36.3943H61.9727V27.0986H63.8318C66.0853 27.0986 66.9867 28.2253 66.9867 29.6338C66.9867 30.9859 66.198 31.7183 65.1839 32.1127C65.4656 32.2817 66.536 33.9718 68.0572 36.338H66.7614V36.3943ZM63.8881 28.0563H62.9867V31.4929H63.8318C65.0149 31.4929 65.86 30.7042 65.86 29.7465C65.8036 28.8451 65.3529 28.0563 63.8881 28.0563Z" fill="black"/>
<path d="M76.0001 36.5634C74.817 36.5634 73.9719 36.169 73.4648 35.831L73.9719 34.9859C74.3099 35.2676 75.0986 35.662 76.0001 35.662C76.8451 35.662 77.8592 35.2676 77.8592 34.2535C77.8592 32.6197 75.662 32.2817 74.4789 31.0422C74.0846 30.5915 73.8029 30.0845 73.8029 29.3521C73.8029 28.0563 74.7606 27.0422 76.4508 27.0422C77.4085 27.0422 78.0846 27.2676 78.4789 27.4929V28.5634C77.9719 28.2253 77.2395 27.9436 76.4508 27.9436C75.5494 27.9436 74.7606 28.338 74.7606 29.1831C74.7606 31.2676 78.8733 31.2676 78.8733 34.0282C78.9296 35.5493 77.6339 36.5634 76.0001 36.5634Z" fill="black"/>
<path d="M86.1977 27.0986H85.1836V36.3943H86.1977V27.0986Z" fill="black"/>
<path d="M98.4795 28.0563H95.8316V36.3943H94.8175V28.0563H92.1133V27.0986H98.8175L98.4795 28.0563Z" fill="black"/>
<path d="M108.226 32.676V36.3943H107.212V32.676L104.113 27.1549H105.24L106.874 30.1408C107.156 30.6479 107.494 31.2112 107.719 31.6619C107.944 31.1549 108.226 30.5915 108.508 30.1408L110.085 27.1549H111.156L108.226 32.676Z" fill="black"/>
<path d="M6.53584 19.7183C3.9443 19.7183 2.08514 18.8732 0.845703 18.0281L2.25415 15.4929C3.26824 16.169 4.67669 16.9014 6.42317 16.9014C7.88796 16.9014 9.52176 16.338 9.52176 14.7605C9.52176 12.1126 5.01472 11.6056 2.7612 9.0704C2.0288 8.28166 1.5781 7.1549 1.5781 5.74645C1.5781 2.98589 3.71894 0.61969 7.6626 0.61969C9.63444 0.61969 11.2119 1.07039 12.226 1.63377L12.1696 4.67603C10.7049 3.8873 9.35275 3.38025 7.83162 3.38025C6.25415 3.49293 5.07106 4.16899 5.07106 5.40842C5.07106 8.84504 13.1274 8.67603 13.1274 14.4225C13.0711 17.6901 10.1978 19.7183 6.53584 19.7183Z" fill="#E30613"/>
<path d="M34.3673 17.0704C32.6772 18.7605 30.3673 19.7746 27.5504 19.7746C24.8462 19.7746 22.5927 18.9859 20.9589 17.5211C19.0997 15.831 18.0293 13.2957 18.0293 10.4225C18.0293 7.66194 18.987 5.2394 20.7335 3.49292C22.4237 1.80278 24.7335 0.788696 27.5504 0.788696C30.5363 0.788696 33.0152 1.85912 34.649 3.66194C36.1701 5.35208 37.0152 7.66194 37.0152 10.2535C37.0152 12.9014 36.1138 15.3802 34.3673 17.0704ZM27.5504 3.54926C24.0575 3.54926 21.6349 6.08447 21.6349 10.2535C21.6349 14.4788 24.0575 16.9577 27.5504 16.9577C30.987 16.9577 33.4096 14.4225 33.4096 10.2535C33.4096 6.19715 31.0997 3.54926 27.5504 3.54926Z" fill="#E30613"/>
<path d="M42.9863 19.4366V0.901367H46.4229V16.5633H53.0708V19.4366H42.9863Z" fill="#E30613"/>
<path d="M58.5918 19.4366V0.901367H68.9017L68.0002 3.71827H61.9721V8.56334H68.0002V11.3802H61.9721V16.6197H68.9017V19.4366H58.5918Z" fill="#E30613"/>
<path d="M88.902 19.4366L80.5076 8.56334C79.7189 7.49292 79.1555 6.81686 78.7048 6.02813H78.6485C78.7048 6.64785 78.7611 7.66193 78.7611 8.507V19.4366H75.3809V0.845032H78.8175L86.9302 11.3239C87.7752 12.4507 88.2823 13.1831 88.733 13.9155H88.7893C88.733 13.1267 88.733 12.0563 88.733 11.2112V0.90137H92.1133V19.4929H88.902V19.4366Z" fill="#E30613"/>
<path d="M111.324 3.71827H106.253V19.4366H102.817V3.71827H97.4082V0.901367H112.112L111.324 3.71827Z" fill="#E30613"/>
<path d="M111.212 44.0563H1.91602V44.7887H111.212V44.0563Z" fill="black"/>
</g>
<defs>
<clipPath id="clip0_843_165">
<rect width="113.07" height="60" fill="white"/>
</clipPath>
</defs>
</svg>
