<svg width="28" height="24" viewBox="0 0 28 24" fill="none" xmlns="http://www.w3.org/2000/svg">
<path d="M26.0344 10.7333V21.3333C26.0344 22.0667 25.7735 22.6947 25.2518 23.2173C24.7291 23.7391 24.1011 24 23.3678 24H4.7011C3.96776 24 3.34021 23.7391 2.81843 23.2173C2.29576 22.6947 2.03443 22.0667 2.03443 21.3333V10.7333C1.52332 10.2667 1.1291 9.66667 0.851764 8.93333C0.573542 8.2 0.567764 7.4 0.83443 6.53333L2.23443 2C2.41221 1.42222 2.7291 0.944444 3.1851 0.566667C3.64021 0.188889 4.16776 0 4.76776 0H23.3011C23.9011 0 24.4233 0.183111 24.8678 0.549333C25.3122 0.916444 25.6344 1.4 25.8344 2L27.2344 6.53333C27.5011 7.4 27.4958 8.18889 27.2184 8.9C26.9402 9.61111 26.5455 10.2222 26.0344 10.7333ZM16.9678 9.33333C17.5678 9.33333 18.0233 9.12756 18.3344 8.716C18.6455 8.30533 18.7678 7.84444 18.7011 7.33333L17.9678 2.66667H15.3678V7.6C15.3678 8.06667 15.5233 8.47244 15.8344 8.81733C16.1455 9.16133 16.5233 9.33333 16.9678 9.33333ZM10.9678 9.33333C11.4789 9.33333 11.8958 9.16133 12.2184 8.81733C12.5402 8.47244 12.7011 8.06667 12.7011 7.6V2.66667H10.1011L9.36776 7.33333C9.27887 7.86667 9.39576 8.33333 9.71843 8.73333C10.0402 9.13333 10.4567 9.33333 10.9678 9.33333ZM5.03443 9.33333C5.43443 9.33333 5.78421 9.18889 6.08376 8.9C6.38421 8.61111 6.56776 8.24444 6.63443 7.8L7.36776 2.66667H4.76776L3.43443 7.13333C3.3011 7.57778 3.3731 8.05556 3.65043 8.56667C3.92865 9.07778 4.38999 9.33333 5.03443 9.33333ZM23.0344 9.33333C23.6789 9.33333 24.1455 9.07778 24.4344 8.56667C24.7233 8.05556 24.79 7.57778 24.6344 7.13333L23.2344 2.66667H20.7011L21.4344 7.8C21.5011 8.24444 21.6847 8.61111 21.9851 8.9C22.2847 9.18889 22.6344 9.33333 23.0344 9.33333Z" fill="#04A1E5"/>
</svg>
