<svg width="28" height="28" viewBox="0 0 28 28" fill="none" xmlns="http://www.w3.org/2000/svg">
<path d="M23.9327 10.1333C23.3993 8.73329 22.6051 7.50529 21.55 6.44929C20.494 5.39418 19.266 4.59996 17.866 4.06663L16.3327 7.79996C17.2438 8.13329 18.0327 8.63863 18.6993 9.31596C19.366 9.99418 19.8882 10.7777 20.266 11.6666L23.9327 10.1333ZM10.1993 4.06663C8.77713 4.59996 7.53268 5.39996 6.46602 6.46663C5.39935 7.53329 4.59935 8.77774 4.06602 10.2L7.73268 11.7333C8.11046 10.8 8.63846 9.98351 9.31668 9.28396C9.99401 8.58351 10.7993 8.06663 11.7327 7.73329L10.1993 4.06663ZM4.06602 17.8C4.57713 19.2222 5.36601 20.4666 6.43268 21.5333C7.49935 22.6 8.73268 23.4 10.1327 23.9333L11.7327 20.2666C10.7993 19.9333 9.99401 19.4164 9.31668 18.716C8.63846 18.0164 8.11046 17.2 7.73268 16.2666L4.06602 17.8ZM17.866 23.9333C19.266 23.4 20.494 22.6057 21.55 21.5506C22.6051 20.4946 23.3993 19.2666 23.9327 17.8666L20.266 16.2666C19.9327 17.2 19.4216 18.0053 18.7327 18.6826C18.0438 19.3608 17.2438 19.8888 16.3327 20.2666L17.866 23.9333ZM13.9993 27.3333C12.1549 27.3333 10.4216 26.9831 8.79935 26.2826C7.17713 25.5831 5.76602 24.6333 4.56602 23.4333C3.36602 22.2333 2.41624 20.8222 1.71668 19.2C1.01624 17.5777 0.666016 15.8444 0.666016 14C0.666016 12.1555 1.01624 10.4222 1.71668 8.79996C2.41624 7.17774 3.36602 5.76663 4.56602 4.56663C5.76602 3.36663 7.17713 2.4164 8.79935 1.71596C10.4216 1.0164 12.1549 0.666626 13.9993 0.666626C15.8438 0.666626 17.5771 1.0164 19.1993 1.71596C20.8216 2.4164 22.2327 3.36663 23.4327 4.56663C24.6327 5.76663 25.5825 7.17774 26.282 8.79996C26.9825 10.4222 27.3327 12.1555 27.3327 14C27.3327 15.8444 26.9825 17.5777 26.282 19.2C25.5825 20.8222 24.6327 22.2333 23.4327 23.4333C22.2327 24.6333 20.8216 25.5831 19.1993 26.2826C17.5771 26.9831 15.8438 27.3333 13.9993 27.3333ZM13.9993 18C15.1105 18 16.0549 17.6111 16.8327 16.8333C17.6105 16.0555 17.9993 15.1111 17.9993 14C17.9993 12.8888 17.6105 11.9444 16.8327 11.1666C16.0549 10.3888 15.1105 9.99996 13.9993 9.99996C12.8882 9.99996 11.9438 10.3888 11.166 11.1666C10.3882 11.9444 9.99935 12.8888 9.99935 14C9.99935 15.1111 10.3882 16.0555 11.166 16.8333C11.9438 17.6111 12.8882 18 13.9993 18Z" fill="#04A1E5"/>
</svg>
