<svg width="122" height="150" viewBox="0 0 122 150" fill="none" xmlns="http://www.w3.org/2000/svg">
<rect width="8" height="8" fill="#BAEAFF"/>
<rect y="28.3833" width="8" height="8" fill="#BAEAFF"/>
<rect y="56.7671" width="8" height="8" fill="#BAEAFF"/>
<rect y="85.1494" width="8" height="8" fill="#BAEAFF"/>
<rect y="113.533" width="8" height="8" fill="#BAEAFF"/>
<rect y="141.917" width="8" height="8" fill="#BAEAFF"/>
<rect x="28.3867" width="8" height="8" fill="#BAEAFF"/>
<rect x="28.3867" y="28.3833" width="8" height="8" fill="#BAEAFF"/>
<rect x="28.3867" y="56.7671" width="8" height="8" fill="#BAEAFF"/>
<rect x="28.3867" y="85.1494" width="8" height="8" fill="#BAEAFF"/>
<rect x="28.3867" y="113.533" width="8" height="8" fill="#BAEAFF"/>
<rect x="28.3867" y="141.917" width="8" height="8" fill="#BAEAFF"/>
<rect x="56.7656" width="8" height="8" fill="#BAEAFF"/>
<rect x="56.7656" y="28.3833" width="8" height="8" fill="#BAEAFF"/>
<rect x="56.7656" y="56.7671" width="8" height="8" fill="#BAEAFF"/>
<rect x="56.7656" y="85.1494" width="8" height="8" fill="#BAEAFF"/>
<rect x="56.7656" y="113.533" width="8" height="8" fill="#BAEAFF"/>
<rect x="56.7656" y="141.917" width="8" height="8" fill="#BAEAFF"/>
<rect x="85.1523" width="8" height="8" fill="#BAEAFF"/>
<rect x="85.1523" y="28.3833" width="8" height="8" fill="#BAEAFF"/>
<rect x="85.1523" y="56.7671" width="8" height="8" fill="#BAEAFF"/>
<rect x="85.1523" y="85.1494" width="8" height="8" fill="#BAEAFF"/>
<rect x="85.1523" y="113.533" width="8" height="8" fill="#BAEAFF"/>
<rect x="85.1523" y="141.917" width="8" height="8" fill="#BAEAFF"/>
<rect x="113.531" width="8" height="8" fill="#BAEAFF"/>
<rect x="113.531" y="28.3833" width="8" height="8" fill="#BAEAFF"/>
<rect x="113.531" y="56.7671" width="8" height="8" fill="#BAEAFF"/>
<rect x="113.531" y="85.1494" width="8" height="8" fill="#BAEAFF"/>
<rect x="113.531" y="113.533" width="8" height="8" fill="#BAEAFF"/>
<rect x="113.531" y="141.917" width="8" height="8" fill="#BAEAFF"/>
</svg>
