<svg width="22" height="28" viewBox="0 0 22 28" fill="none" xmlns="http://www.w3.org/2000/svg">
<path d="M0.666016 27.3333V0.666626H3.33268V3.33329H21.9993L19.3327 9.99996L21.9993 16.6666H3.33268V27.3333H0.666016ZM10.666 12.6666C11.3993 12.6666 12.0273 12.4053 12.55 11.8826C13.0718 11.3608 13.3327 10.7333 13.3327 9.99996C13.3327 9.26663 13.0718 8.63863 12.55 8.11596C12.0273 7.59418 11.3993 7.33329 10.666 7.33329C9.93268 7.33329 9.30513 7.59418 8.78335 8.11596C8.26068 8.63863 7.99935 9.26663 7.99935 9.99996C7.99935 10.7333 8.26068 11.3608 8.78335 11.8826C9.30513 12.4053 9.93268 12.6666 10.666 12.6666Z" fill="#04A1E5"/>
</svg>
