<svg width="100" height="50" viewBox="0 0 100 50" fill="none" xmlns="http://www.w3.org/2000/svg">
<path d="M23.75 22.0312C23.125 20.1562 22.5 16.7188 22.5 16.7188H22.3438C22.3438 16.7188 21.7188 20.1562 21.25 22.0312L19.375 27.8125H25.4688L23.75 22.0312ZM96.25 0H52.5V50H96.25C98.2812 50 100 48.4375 100 46.25V3.75C100 1.71875 98.2812 0 96.25 0ZM92.5 18.75C92.5 19.8438 91.5625 20.625 90.625 20.625H88.75C87.6562 24.375 85.3125 28.125 82.0312 31.5625C83.4375 32.6562 84.8438 33.5938 86.25 34.375C87.0312 35 87.3438 36.0938 86.875 37.0312L85.625 39.0625C85 40 83.9062 40.3125 82.9688 39.8438C80.9375 38.5938 79.2188 37.3438 77.5 35.9375C75.7812 37.3438 73.9062 38.5938 71.875 39.8438C70.9375 40.3125 69.8438 40 69.375 39.0625L68.125 37.0312C67.5 36.0938 67.8125 35 68.75 34.375C70.1562 33.5938 71.5625 32.6562 72.8125 31.5625C71.5625 30.3125 70.4688 28.9062 69.5312 27.6562C68.9062 26.7188 69.2188 25.4688 70.1562 25L71.0938 24.375L72.1875 23.5938C73.125 23.125 74.2188 23.4375 74.6875 24.2188C75.4688 25.3125 76.4062 26.4062 77.5 27.5C79.5312 25.1562 81.25 22.9688 82.1875 20.625H64.375C63.2812 20.625 62.5 19.8438 62.5 18.75V16.25C62.5 15.3125 63.2812 14.375 64.375 14.375H74.375V11.875C74.375 10.9375 75.1562 10 76.25 10H78.75C79.6875 10 80.625 10.9375 80.625 11.875V14.375H90.625C91.5625 14.375 92.5 15.3125 92.5 16.25V18.75ZM0 3.75V46.25C0 48.4375 1.5625 50 3.75 50H47.5V0H3.75C1.5625 0 0 1.71875 0 3.75ZM9.0625 37.6562L18.125 11.0938C18.4375 10.4688 19.0625 9.84375 19.8438 9.84375H25C25.7812 9.84375 26.5625 10.4688 26.7188 11.0938L35.7812 37.6562C36.0938 38.75 35.3125 40 33.9062 40H30.3125C29.5312 40 28.75 39.5312 28.5938 38.75L27.1875 33.75H17.6562L16.25 38.75C16.0938 39.5312 15.3125 40 14.5312 40H10.9375C9.6875 40 8.75 38.75 9.0625 37.6562Z" fill="#2154AC"/>
</svg>
