<svg width="51" height="40" viewBox="0 0 51 40" fill="none" xmlns="http://www.w3.org/2000/svg">
<path d="M1 2H50V38H1V2Z" fill="#41479B"/>
<path d="M50 33.3126L31.8802 20L50 6.68751V2H43.6198L25.5 15.3125L7.3802 2H1V6.6875L19.1198 20L1 33.3126V38H7.38029L25.5 24.6875L43.6197 38H50V33.3126Z" fill="white"/>
<path fill-rule="evenodd" clip-rule="evenodd" d="M21 18.5684L22.9487 20.0001L0.0820312 36.8001L1.91953 39.2001L25.5008 21.8751L49.082 39.2001L50.9195 36.8001L28.0529 20.0001L50.9195 3.20005L49.082 0.800049L25.5008 18.1251L21 14.8184V18.5684ZM3.55279 2L17 11.8796V14H14.7819L1 3.87448V2.00106L1.00081 2H3.55279Z" fill="#DC251C"/>
<path fill-rule="evenodd" clip-rule="evenodd" d="M19.375 14V2H31.625V14H50V26H31.625V38H19.375V26H1V14H19.375Z" fill="white"/>
<path fill-rule="evenodd" clip-rule="evenodd" d="M22.4375 17V2H28.5625V17H50V23H28.5625V38H22.4375V23H1V17H22.4375Z" fill="#DC251C"/>
</svg>
