<svg width="40" height="16" viewBox="0 0 40 16" fill="none" xmlns="http://www.w3.org/2000/svg">
<path d="M1 7C0.447715 7 4.82823e-08 7.44772 0 8C-4.82823e-08 8.55228 0.447715 9 1 9L1 7ZM39.7071 8.70711C40.0976 8.31659 40.0976 7.68342 39.7071 7.2929L33.3431 0.928935C32.9526 0.538411 32.3195 0.538411 31.9289 0.928935C31.5384 1.31946 31.5384 1.95262 31.9289 2.34315L37.5858 8L31.9289 13.6569C31.5384 14.0474 31.5384 14.6805 31.9289 15.0711C32.3195 15.4616 32.9526 15.4616 33.3431 15.0711L39.7071 8.70711ZM1 9L39 9L39 7L1 7L1 9Z" fill="#404040"/>
</svg>
