<svg width="20" height="20" viewBox="0 0 20 20" fill="none" xmlns="http://www.w3.org/2000/svg">
<path fill-rule="evenodd" clip-rule="evenodd" d="M10.0004 19.6C12.5465 19.6 14.9883 18.5886 16.7886 16.7882C18.589 14.9879 19.6004 12.5461 19.6004 10C19.6004 7.45395 18.589 5.01215 16.7886 3.2118C14.9883 1.41145 12.5465 0.400024 10.0004 0.400024C7.45431 0.400024 5.01251 1.41145 3.21217 3.2118C1.41182 5.01215 0.400391 7.45395 0.400391 10C0.400391 12.5461 1.41182 14.9879 3.21217 16.7882C5.01251 18.5886 7.45431 19.6 10.0004 19.6ZM14.4488 8.44842C14.6674 8.2221 14.7883 7.91898 14.7856 7.60434C14.7829 7.28971 14.6567 6.98873 14.4342 6.76624C14.2117 6.54375 13.9107 6.41755 13.5961 6.41481C13.2814 6.41208 12.9783 6.53303 12.752 6.75162L8.80039 10.7032L7.24879 9.15162C7.02247 8.93303 6.71934 8.81208 6.40471 8.81482C6.09007 8.81755 5.7891 8.94375 5.56661 9.16624C5.34412 9.38873 5.21792 9.68971 5.21518 10.0043C5.21245 10.319 5.3334 10.6221 5.55199 10.8484L7.95199 13.2484C8.17702 13.4734 8.48219 13.5998 8.80039 13.5998C9.11859 13.5998 9.42376 13.4734 9.64879 13.2484L14.4488 8.44842Z" fill="#28D185"/>
</svg>
