<svg width="32" height="32" viewBox="0 0 32 32" fill="none" xmlns="http://www.w3.org/2000/svg">
<path d="M9.33333 7.66667V1V7.66667ZM22.6667 7.66667V1V7.66667ZM7.66667 14.3333H24.3333H7.66667ZM4.33333 31H27.6667C28.5507 31 29.3986 30.6488 30.0237 30.0237C30.6488 29.3986 31 28.5507 31 27.6667V7.66667C31 6.78261 30.6488 5.93477 30.0237 5.30964C29.3986 4.68452 28.5507 4.33333 27.6667 4.33333H4.33333C3.44928 4.33333 2.60143 4.68452 1.97631 5.30964C1.35119 5.93477 1 6.78261 1 7.66667V27.6667C1 28.5507 1.35119 29.3986 1.97631 30.0237C2.60143 30.6488 3.44928 31 4.33333 31Z" stroke="#2154AC" stroke-width="2" stroke-linecap="round" stroke-linejoin="round"/>
</svg>
