<svg width="20" height="20" viewBox="0 0 20 20" fill="none" xmlns="http://www.w3.org/2000/svg">
<path fill-rule="evenodd" clip-rule="evenodd" d="M9.6 19.2C12.1461 19.2 14.5879 18.1886 16.3882 16.3882C18.1886 14.5879 19.2 12.1461 19.2 9.6C19.2 7.05392 18.1886 4.61212 16.3882 2.81177C14.5879 1.01143 12.1461 0 9.6 0C7.05392 0 4.61212 1.01143 2.81177 2.81177C1.01143 4.61212 0 7.05392 0 9.6C0 12.1461 1.01143 14.5879 2.81177 16.3882C4.61212 18.1886 7.05392 19.2 9.6 19.2ZM14.0484 8.0484C14.267 7.82208 14.3879 7.51895 14.3852 7.20432C14.3825 6.88968 14.2563 6.58871 14.0338 6.36622C13.8113 6.14373 13.5103 6.01752 13.1957 6.01479C12.881 6.01206 12.5779 6.13301 12.3516 6.3516L8.4 10.3032L6.8484 8.7516C6.62208 8.53301 6.31895 8.41206 6.00432 8.41479C5.68968 8.41753 5.38871 8.54373 5.16622 8.76622C4.94373 8.98871 4.81752 9.28968 4.81479 9.60432C4.81206 9.91895 4.93301 10.2221 5.1516 10.4484L7.5516 12.8484C7.77663 13.0734 8.0818 13.1997 8.4 13.1997C8.7182 13.1997 9.02337 13.0734 9.2484 12.8484L14.0484 8.0484Z" fill="#28D185"/>
</svg>
